<svg xmlns="http://www.w3.org/2000/svg" xmlns:xlink="http://www.w3.org/1999/xlink" preserveAspectRatio="xMidYMid" width="100%" height="100%" viewBox="0 0 141 141">
  <defs>
    <style>

      .cls-2 {
        fill: #fff;
      }
    </style>
  </defs>
  <path d="M70.500,141.003 C31.562,141.003 -0.003,109.438 -0.003,70.500 C-0.003,31.563 31.562,-0.002 70.500,-0.002 C109.437,-0.002 141.002,31.563 141.002,70.500 C141.002,109.438 109.437,141.003 70.500,141.003 ZM99.628,57.149 C99.628,57.149 81.325,76.857 81.325,76.857 C81.325,76.857 81.325,22.689 81.325,22.689 C81.325,22.689 59.675,22.689 59.675,22.689 C59.675,22.689 59.675,76.863 59.675,76.863 C59.675,76.863 41.367,57.149 41.367,57.149 C41.367,57.149 24.432,68.713 24.432,68.713 C24.432,68.713 56.661,103.415 56.661,103.415 C56.661,103.415 70.498,118.312 70.498,118.312 C70.498,118.312 84.335,103.415 84.335,103.415 C84.335,103.415 116.567,68.713 116.567,68.713 C116.567,68.713 99.628,57.149 99.628,57.149 Z" id="path-1" class="cls-2" fill-rule="evenodd"/>
</svg>
