<?xml version="1.0" encoding="utf-8"?>
<!-- Generator: Adobe Illustrator 19.1.0, SVG Export Plug-In . SVG Version: 6.00 Build 0)  -->
<svg version="1.1" id="Layer_1" xmlns="http://www.w3.org/2000/svg" xmlns:xlink="http://www.w3.org/1999/xlink" x="0px" y="0px"
	 viewBox="87 13.6 103 103.4" style="enable-background:new 87 13.6 103 103.4;" xml:space="preserve">
<style type="text/css">
	.st0{display:none;}
	.st1{display:inline;}
	.st2{opacity:0.75;fill:#A4A4A4;enable-background:new    ;}
	.st3{opacity:0.75;fill:#FFFFFF;enable-background:new    ;}
	.st4{fill:#5F2651;}
	.st5{fill:none;stroke:#FFFFFF;stroke-width:4;}
	.st6{fill:#FFFFFF;}
</style>
<g id="Page-1_1_" class="st0">
	<g id="Desktop_1_" transform="translate(-51.000000, -152.000000)" class="st1">
		<g id="bitcoin-here-gray" transform="translate(51.000000, 152.000000)">
			<g id="Group_2_">
				<g id="Bitcoin_Grayscale">
					<path id="Shape_3_" class="st2" d="M623.8,145.7c-6.8,27.8-35,44.6-62.6,37.7c-27.8-6.8-44.6-34.9-37.7-62.6
						c6.8-27.8,35-44.6,62.6-37.7C614,89.9,630.8,118.1,623.8,145.7L623.8,145.7L623.8,145.7z"/>
					<path id="Shape_2_" class="st3" d="M596.5,125.9c1-6.9-4.2-10.5-11.3-13.1l2.3-9.4l-5.7-1.3l-2.3,9.1c-1.4-0.3-3.1-0.6-4.5-1.1
						l2.3-9.2l-5.7-1.4l-2.3,9.4c-1.3-0.3-2.4-0.5-3.6-0.8l0,0l-7.8-1.9l-1.3,6c0,0,4.2,1,4.1,1c2.3,0.6,2.7,2.1,2.6,3.2l-2.7,10.6
						c0.1,0,0.3,0.1,0.6,0.1c-0.1,0-0.3-0.1-0.6-0.1l-3.7,14.9c-0.3,0.6-1,1.8-2.6,1.3c0,0.1-4.2-1-4.2-1l-2.8,6.5l7.4,1.8
						c1.4,0.3,2.7,0.6,4.1,1l-2.4,9.4l5.7,1.4l2.3-9.4c1.6,0.5,3.1,0.8,4.5,1.1l-2.3,9.2l5.7,1.4l2.4-9.4c9.7,1.8,17,1.1,20.1-7.6
						c2.4-7.1-0.1-11.2-5.2-13.7C592.9,133.4,595.7,131,596.5,125.9L596.5,125.9L596.5,125.9z M583.6,144.2
						c-1.8,7.1-13.6,3.2-17.5,2.3l3.1-12.4C573,134.9,585.3,136.7,583.6,144.2L583.6,144.2L583.6,144.2z M585.3,125.9
						c-1.6,6.5-11.5,3.2-14.7,2.4l2.7-11.3C576.6,117.6,587,119.1,585.3,125.9L585.3,125.9z"/>
				</g>
			</g>
		</g>
	</g>
</g>
<title>augur svg</title>
<desc>Created with Sketch.</desc>
<title>augurSvg</title>
<desc>Created with Sketch.</desc>
<title>augurSvg</title>
<desc>Created with Sketch.</desc>
<title>augurSvg</title>
<desc>Created with Sketch.</desc>
<g id="Welcome_1_">
	<g id="AUGlogo">
		<g id="Layer_1_1_">
			<g id="Page-1_2_">
				<g id="Desktop_2_">
					<g id="bitcoin-here-gray_1_">
						<g id="Group_1_">
							<g id="Bitcoin_Grayscale_1_">
								<path id="Shape_1_" class="st4" d="M188.4,77.8c-6.8,27.8-34.9,44.5-62.5,37.6c-27.8-6.9-44.5-34.9-37.6-62.6
									c6.8-27.8,34.9-44.5,62.5-37.6C178.6,21.9,195.4,50.1,188.4,77.8L188.4,77.8L188.4,77.8L188.4,77.8z"/>
								<g id="Welcome_2_" transform="translate(22.000000, 17.000000)">
									<g id="augurSvg_1_">
										<path id="Line_9_" class="st5" d="M88.9,63c0,0,8.3-5.2,11.8-5.2s5.8,2.5,7.5,3.8C109.8,63,113,64,113,64"/>
										<path id="Line_8_" class="st5" d="M88.1,64c-0.5-0.3-0.6-0.9-0.4-1.4l27-47.6c0.8-1.4,2.1-1.4,2.9,0l26.9,47.6
											c0.3,0.5,0.1,1.1-0.4,1.4L117,80.1c-0.5,0.3-1.2,0.3-1.6,0L88.1,64L88.1,64z"/>
										<path id="Line_7_" class="st5" d="M116.2,15.4c0,0,0.1,10,0,16.6c0,2.8,0,5-0.2,5.7c-0.6,1.9-4.8,4.2-6.3,5.1
											c-1.5,0.9-3.5,2.6-4.5,4.3s-1,6.7-1,6.7"/>
										<path id="Line_6_" class="st5" d="M126.8,58.6c0,0-0.8,1.6-2.6,2.9c-2.1,1.6-5.4,3.2-5.9,3.6c-1,0.7-1.7,1.7-2,3
											c-0.2,1.3,0,10.8,0,10.8"/>
										<path id="Line_5_" class="st5" d="M119.4,41.2c0,0,3.3,1,5.9,3.6c2.6,2.6,2.7,6.5,4.4,10.2c1.6,3.7,14.7,8.3,14.7,8.3"/>
									</g>
								</g>
							</g>
						</g>
					</g>
				</g>
			</g>
		</g>
	</g>
</g>
<g id="Welcome_3_" class="st0">
	<g id="AUGlogo_1_" class="st1">
		<g id="Layer_1_2_">
			<g id="Page-1_3_">
				<g id="Desktop_3_">
					<g id="bitcoin-here-gray_2_">
						<g id="Group_3_">
							<g id="Bitcoin_Grayscale_2_">
								<path id="Shape_17_" class="st4" d="M292.7,78.4c-6.8,27.8-34.9,44.5-62.5,37.6c-27.8-6.9-44.5-34.9-37.6-62.6
									c6.8-27.8,34.9-44.5,62.5-37.6C282.9,22.5,299.7,50.7,292.7,78.4L292.7,78.4L292.7,78.4L292.7,78.4z"/>
								<g id="Welcome" transform="translate(22.000000, 17.000000)">
									<g id="augurSvg">
										<path id="Line" class="st5" d="M193.2,63.6c0,0,8.3-5.2,11.8-5.2s5.8,2.5,7.5,3.8c1.6,1.4,4.8,2.4,4.8,2.4"/>
										<path id="Line_1_" class="st5" d="M192.4,64.6c-0.5-0.3-0.6-0.9-0.4-1.4l27-47.6c0.8-1.4,2.1-1.4,2.9,0l26.9,47.6
											c0.3,0.5,0.1,1.1-0.4,1.4l-27.1,16.1c-0.5,0.3-1.2,0.3-1.6,0L192.4,64.6L192.4,64.6z"/>
										<path id="Line_2_" class="st5" d="M220.5,16c0,0,0.1,10,0,16.6c0,2.8,0,5-0.2,5.7c-0.6,1.9-4.8,4.2-6.3,5.1
											c-1.5,0.9-3.5,2.6-4.5,4.3c-1,1.7-1,6.7-1,6.7"/>
										<path id="Line_3_" class="st5" d="M231.1,59.2c0,0-0.8,1.6-2.6,2.9c-2.1,1.6-5.4,3.2-5.9,3.6c-1,0.7-1.7,1.7-2,3
											c-0.2,1.3,0,10.8,0,10.8"/>
										<path id="Line_4_" class="st5" d="M223.7,41.8c0,0,3.3,1,5.9,3.6c2.6,2.6,2.7,6.5,4.4,10.2c1.6,3.7,14.7,8.3,14.7,8.3"/>
										<ellipse id="Oval" class="st6" cx="220.5" cy="53.1" rx="14.5" ry="14.5"/>
									</g>
								</g>
							</g>
						</g>
					</g>
				</g>
			</g>
		</g>
	</g>
</g>
</svg>
