<?xml version="1.0" encoding="utf-8"?>
<!-- Generator: Adobe Illustrator 21.0.0, SVG Export Plug-In . SVG Version: 6.00 Build 0)  -->
<svg version="1.1" id="Layer_1" xmlns="http://www.w3.org/2000/svg" xmlns:xlink="http://www.w3.org/1999/xlink" x="0px" y="0px"
	 viewBox="0 0 302.9 103.4" style="enable-background:new 0 0 302.9 103.4;" xml:space="preserve">
<style type="text/css">
	.st0{opacity:0.5;fill:#A4A4A4;}
	.st1{fill:#FFFFFF;}
</style>
<g>
	<circle class="st0" cx="51.8" cy="51.7" r="51.6"/>
	<g>
		<circle class="st1" cx="43.3" cy="52.7" r="2.8"/>
		<circle class="st1" cx="48.1" cy="60.5" r="2.8"/>
		<circle class="st1" cx="44.5" cy="66.2" r="2.4"/>
		
			<ellipse transform="matrix(5.734877e-02 -0.9984 0.9984 5.734877e-02 -32.7541 108.1551)" class="st1" cx="40.9" cy="71.4" rx="2.2" ry="2.2"/>
		
			<ellipse transform="matrix(5.734877e-02 -0.9984 0.9984 5.734877e-02 -7.0445 129.8026)" class="st1" cx="65.2" cy="68.6" rx="2.2" ry="2.2"/>
		
			<ellipse transform="matrix(5.734877e-02 -0.9984 0.9984 5.734877e-02 21.732 112.042)" class="st1" cx="70.2" cy="44.5" rx="2.2" ry="2.2"/>
		
			<ellipse transform="matrix(5.734877e-02 -0.9984 0.9984 5.734877e-02 13.5781 79.0882)" class="st1" cx="48.7" cy="32.4" rx="2.2" ry="2.2"/>
		
			<ellipse transform="matrix(5.734877e-02 -0.9984 0.9984 5.734877e-02 -20.2366 76.7625)" class="st1" cx="30.5" cy="49.1" rx="2.2" ry="2.2"/>
		
			<ellipse transform="matrix(5.734877e-02 -0.9984 0.9984 5.734877e-02 -40.8356 108.194)" class="st1" cx="36.9" cy="75.7" rx="1.7" ry="1.7"/>
		
			<ellipse transform="matrix(5.734877e-02 -0.9984 0.9984 5.734877e-02 -47.9581 107.9694)" class="st1" cx="33.2" cy="79.4" rx="1.4" ry="1.4"/>
		
			<ellipse transform="matrix(5.734877e-02 -0.9984 0.9984 5.734877e-02 -12.0141 144.0441)" class="st1" cx="70.3" cy="78.4" rx="1.4" ry="1.4"/>
		
			<ellipse transform="matrix(5.734877e-02 -0.9984 0.9984 5.734877e-02 33.5656 120.9574)" class="st1" cx="80.8" cy="42.7" rx="1.4" ry="1.4"/>
		<ellipse transform="matrix(0.9411 -0.338 0.338 0.9411 -9.3839 31.5273)" class="st1" cx="85.8" cy="42.7" rx="1.2" ry="1.2"/>
		<ellipse transform="matrix(0.9411 -0.338 0.338 0.9411 -23.8148 29.1809)" class="st1" cx="71.9" cy="83" rx="1.2" ry="1.2"/>
		<ellipse transform="matrix(0.958 -0.2866 0.2866 0.958 -22.3361 11.7684)" class="st1" cx="29" cy="82.2" rx="1.2" ry="1.2"/>
		<ellipse transform="matrix(0.958 -0.2866 0.2866 0.958 -11.1994 6.5199)" class="st1" cx="16.7" cy="41.5" rx="1.2" ry="1.2"/>
		<ellipse transform="matrix(0.5844 -0.8115 0.8115 0.5844 7.8798 48.9774)" class="st1" cx="51.8" cy="16.8" rx="1.2" ry="1.2"/>
		<ellipse transform="matrix(0.866 -0.5 0.5 0.866 0.8664 28.4518)" class="st1" cx="53.5" cy="12.6" rx="0.9" ry="0.9"/>
		<ellipse transform="matrix(0.866 -0.5 0.5 0.866 -9.4419 50.9756)" class="st1" cx="90.4" cy="43.1" rx="0.9" ry="0.9"/>
		<ellipse transform="matrix(0.866 -0.5 0.5 0.866 -17.3848 11.7645)" class="st1" cx="13.3" cy="38.3" rx="0.9" ry="0.9"/>
		<ellipse transform="matrix(0.866 -0.5 0.5 0.866 -38.9046 23.9399)" class="st1" cx="25.2" cy="84.6" rx="0.9" ry="0.9"/>
		<ellipse transform="matrix(0.866 -0.5 0.5 0.866 -34.0171 48.1603)" class="st1" cx="72.9" cy="87.6" rx="0.9" ry="0.9"/>
		
			<ellipse transform="matrix(5.734877e-02 -0.9984 0.9984 5.734877e-02 25.7235 70.3941)" class="st1" cx="50.1" cy="21.6" rx="1.4" ry="1.4"/>
		
			<ellipse transform="matrix(5.734877e-02 -0.9984 0.9984 5.734877e-02 -24.7715 62.3623)" class="st1" cx="20.6" cy="44.3" rx="1.4" ry="1.4"/>
		
			<ellipse transform="matrix(5.734877e-02 -0.9984 0.9984 5.734877e-02 -9.3345 137.1713)" class="st1" cx="68" cy="73.5" rx="1.7" ry="1.7"/>
		
			<ellipse transform="matrix(5.734877e-02 -0.9984 0.9984 5.734877e-02 27.8547 116.3608)" class="st1" cx="75.5" cy="43.4" rx="1.7" ry="1.7"/>
		
			<ellipse transform="matrix(5.734877e-02 -0.9984 0.9984 5.734877e-02 19.5693 74.4972)" class="st1" cx="49.2" cy="26.9" rx="1.7" ry="1.7"/>
		
			<ellipse transform="matrix(5.734877e-02 -0.9984 0.9984 5.734877e-02 -22.8785 69.4068)" class="st1" cx="25.3" cy="46.8" rx="1.7" ry="1.7"/>
		<circle class="st1" cx="36.7" cy="50.9" r="2.4"/>
		<circle class="st1" cx="61.4" cy="63.4" r="2.4"/>
		<circle class="st1" cx="64" cy="46.5" r="2.4"/>
		<circle class="st1" cx="48.7" cy="38.9" r="2.4"/>
		<circle class="st1" cx="57" cy="58.3" r="2.8"/>
		<circle class="st1" cx="57.6" cy="49.1" r="2.8"/>
		<circle class="st1" cx="49.3" cy="45.7" r="2.8"/>
	</g>
</g>
</svg>
