<?xml version="1.0" encoding="utf-8"?>
<!-- Generator: Adobe Illustrator 19.1.0, SVG Export Plug-In . SVG Version: 6.00 Build 0)  -->
<svg version="1.1" id="Layer_1" xmlns="http://www.w3.org/2000/svg" xmlns:xlink="http://www.w3.org/1999/xlink" x="0px" y="0px"
	 viewBox="87 13.6 103.4 103.4" style="enable-background:new 87 13.6 103.4 103.4;" xml:space="preserve">
<style type="text/css">
	.st0{fill:#F7931A;}
	.st1{fill:#FFFFFF;}
</style>
<g id="Page-1">
	<g id="Desktop" transform="translate(-51.000000, -282.000000)">
		<g id="bitcoin-here" transform="translate(51.000000, 282.000000)">
			<g id="Group_1_">
				<g id="Bitcoin">
					<g id="Group">
						<path id="Shape" class="st0" d="M126.2,115.4c-27.8-6.8-44.6-35-37.7-62.6c6.8-27.8,35-44.6,62.6-37.7
							c27.8,6.8,44.7,34.9,37.7,62.6C182,105.5,153.8,122.3,126.2,115.4z"/>
						<path id="Shape_1_" class="st1" d="M161.5,57.8c1-6.9-4.2-10.5-11.3-13.1l2.3-9.4l-5.7-1.3l-2.3,9.1c-1.4-0.3-3.1-0.6-4.5-1.1
							l2.3-9.2l-5.7-1.4l-2.3,9.4c-1.3-0.3-2.4-0.5-3.6-0.8l0,0l-7.8-1.9l-1.4,6.1c0,0,4.2,1,4.1,1c2.3,0.6,2.7,2.1,2.6,3.2
							L125.6,59c0.1,0,0.3,0.1,0.6,0.1c-0.1,0-0.3-0.1-0.6-0.1l-3.8,14.8c-0.3,0.6-1,1.8-2.6,1.3c0,0.1-4.2-1-4.2-1l-2.8,6.5
							l7.4,1.8c1.4,0.3,2.7,0.6,4.1,1l-2.4,9.4l5.7,1.4l2.3-9.4c1.6,0.5,3.1,0.8,4.5,1.1l-2.3,9.2l5.7,1.4l2.4-9.4
							c9.7,1.8,17,1.1,20.1-7.6c2.4-7.1-0.1-11.2-5.2-13.7C157.9,65.4,160.7,62.9,161.5,57.8L161.5,57.8L161.5,57.8z M148.5,76.1
							c-1.8,7.1-13.6,3.2-17.5,2.3l3.1-12.4C138,66.9,150.3,68.6,148.5,76.1L148.5,76.1L148.5,76.1z M150.3,57.8
							c-1.6,6.5-11.5,3.2-14.7,2.4l2.7-11.3C141.6,49.6,151.9,51,150.3,57.8L150.3,57.8z"/>
					</g>
				</g>
			</g>
		</g>
	</g>
</g>
</svg>
