<svg id="Layer_1" data-name="Layer 1" xmlns="http://www.w3.org/2000/svg" viewBox="0 0 103.4 103.4"><defs><style>.cls-1{fill:#1b5bb9;}.cls-2{fill:#fff;}</style></defs><title>bcap_for_select</title><circle class="cls-1" cx="51.7" cy="51.7" r="51.7"/><circle class="cls-2" cx="43.15" cy="52.69" r="2.79"/><circle class="cls-2" cx="47.94" cy="60.47" r="2.79"/><circle class="cls-2" cx="44.35" cy="66.26" r="2.39"/><circle class="cls-2" cx="41.22" cy="71.44" r="2.2" transform="translate(-32.94 108.5) rotate(-86.71)"/><circle class="cls-2" cx="65.57" cy="68.65" r="2.2" transform="translate(-7.2 130.17) rotate(-86.71)"/><circle class="cls-2" cx="70.55" cy="44.5" r="2.2" transform="translate(21.61 112.39) rotate(-86.71)"/><circle class="cls-2" cx="49" cy="32.33" r="2.2" transform="translate(13.45 79.4) rotate(-86.71)"/><circle class="cls-2" cx="30.84" cy="49.09" r="2.2" transform="translate(-20.41 77.07) rotate(-86.71)"/><circle class="cls-2" cx="37.19" cy="75.75" r="1.74" transform="translate(-41.03 108.54) rotate(-86.71)"/><circle class="cls-2" cx="33.51" cy="79.41" r="1.42" transform="translate(-48.16 108.31) rotate(-86.71)"/><circle class="cls-2" cx="70.63" cy="78.41" r="1.42" transform="translate(-12.17 144.43) rotate(-86.71)"/><circle class="cls-2" cx="81.2" cy="42.69" r="1.42" transform="translate(33.46 121.32) rotate(-86.71)"/><circle class="cls-2" cx="86.21" cy="42.7" r="1.22" transform="translate(-9.82 31.65) rotate(-19.76)"/><circle class="cls-2" cx="72.24" cy="83.01" r="1.22" transform="translate(-24.27 29.3) rotate(-19.76)"/><circle class="cls-2" cx="29.34" cy="82.21" r="1.22" transform="translate(-22.8 11.86) rotate(-16.66)"/><circle class="cls-2" cx="16.97" cy="41.5" r="1.22" transform="translate(-11.65 6.6) rotate(-16.66)"/><circle class="cls-2" cx="52.09" cy="16.76" r="1.22" transform="translate(7.58 49.23) rotate(-54.24)"/><circle class="cls-2" cx="53.86" cy="12.57" r="0.95" transform="translate(0.47 28.61) rotate(-30)"/><circle class="cls-2" cx="90.78" cy="43.1" r="0.95" transform="translate(-9.85 51.16) rotate(-30)"/><circle class="cls-2" cx="13.55" cy="38.31" r="0.95" transform="translate(-17.8 11.91) rotate(-30)"/><circle class="cls-2" cx="25.53" cy="84.6" r="0.95" transform="translate(-39.35 24.1) rotate(-30)"/><circle class="cls-2" cx="73.22" cy="87.6" r="0.95" transform="translate(-34.46 48.35) rotate(-30)"/><circle class="cls-2" cx="50.47" cy="21.54" r="1.42" transform="translate(25.61 70.7) rotate(-86.71)"/><circle class="cls-2" cx="20.94" cy="44.29" r="1.42" transform="translate(-24.95 62.65) rotate(-86.71)"/><circle class="cls-2" cx="68.33" cy="73.55" r="1.74" transform="translate(-9.49 137.55) rotate(-86.71)"/><circle class="cls-2" cx="75.91" cy="43.42" r="1.74" transform="translate(27.74 116.71) rotate(-86.71)"/><circle class="cls-2" cx="49.57" cy="26.86" r="1.74" transform="translate(19.44 74.8) rotate(-86.71)"/><circle class="cls-2" cx="25.62" cy="46.81" r="1.74" transform="translate(-23.05 69.71) rotate(-86.71)"/><circle class="cls-2" cx="36.56" cy="50.89" r="2.39"/><circle class="cls-2" cx="61.31" cy="63.46" r="2.39"/><circle class="cls-2" cx="63.9" cy="46.5" r="2.39"/><circle class="cls-2" cx="48.54" cy="38.92" r="2.39"/><circle class="cls-2" cx="56.92" cy="58.27" r="2.79"/><circle class="cls-2" cx="57.52" cy="49.09" r="2.79"/><circle class="cls-2" cx="49.13" cy="45.7" r="2.79"/></svg>