<?xml version="1.0" encoding="utf-8"?>
<!-- Generator: Adobe Illustrator 21.1.0, SVG Export Plug-In . SVG Version: 6.00 Build 0)  -->
<svg version="1.1" id="Layer_1" xmlns="http://www.w3.org/2000/svg" xmlns:xlink="http://www.w3.org/1999/xlink" x="0px" y="0px"
	 viewBox="0 0 302.9 103.4" style="enable-background:new 0 0 302.9 103.4;" xml:space="preserve">
<style type="text/css">
	.st0{opacity:0.75;fill:#A4A4A4;enable-background:new    ;}
	.st1{fill:#FFFFFF;}
</style>
<path id="Shape_6_" class="st0" d="M101.8,64.2c-6.8,27.8-35,44.6-62.6,37.7C11.4,95-5.4,66.9,1.5,39.2c6.8-27.8,35-44.6,62.6-37.7
	C92,8.1,108.8,36.3,101.8,64.2L101.8,64.2L101.8,64.2L101.8,64.2z"/>
<g id="civic_1_">
	<path class="st1" d="M52.1,78.8c-15,0-27.1-12.1-27.1-27.1c0-15,12.1-27.1,27.1-27.1c12.2,0,22.5,8,25.9,19.1h9.4
		c-3.7-16.2-18-28.2-35.3-28.2c-20,0-36.2,16.2-36.2,36.2s16.2,36.2,36.2,36.2c17.2,0,31.6-12.1,35.3-28.2H78
		C74.5,70.8,64.3,78.8,52.1,78.8z"/>
	<path class="st1" d="M55.5,65V54.5c3-1.3,5.1-4.3,5.1-7.8c0-4.7-3.8-8.6-8.6-8.6s-8.6,3.8-8.6,8.6c0,3.3,1.9,6.2,4.6,7.6v10.7
		L55.5,65L55.5,65z"/>
</g>
</svg>
