<?xml version="1.0" encoding="utf-8"?>
<!-- Generator: Adobe Illustrator 19.1.0, SVG Export Plug-In . SVG Version: 6.00 Build 0)  -->
<svg version="1.1" id="Layer_1" xmlns="http://www.w3.org/2000/svg" xmlns:xlink="http://www.w3.org/1999/xlink" x="0px" y="0px"
	 viewBox="87 13.6 104 103.4" style="enable-background:new 87 13.6 104 103.4;" xml:space="preserve">
<style type="text/css">
	.st0{fill:#1C75BC;}
</style>
<path class="st0" d="M139,13.3c-28.7,0-52,23.3-52,52s23.3,52,52,52s52-23.3,52-52C190.9,36.6,167.7,13.3,139,13.3z M112.9,61.3
	h20.7l-2.4,7.8h-20.7L112.9,61.3z M166.7,57.6c-0.8,3-3.5,11.9-4.6,15.1s-3.1,5.8-5.7,7.4c-2.6,1.5-3.6,2.2-7.2,2.2h-37.3l2.6-8.5
	h35l5.2-17H120l2.6-8.5c0,0,38.4,0,38.8,0c1.8,0,4.1,0.8,5.3,3C167.8,53.5,167.5,54.7,166.7,57.6z"/>
</svg>
