<?xml version="1.0" encoding="utf-8"?>
<!-- Generator: Adobe Illustrator 19.1.0, SVG Export Plug-In . SVG Version: 6.00 Build 0)  -->
<svg version="1.1" id="Layer_1" xmlns="http://www.w3.org/2000/svg" xmlns:xlink="http://www.w3.org/1999/xlink" x="0px" y="0px"
	 viewBox="87 13.6 302.9 103.4" style="enable-background:new 87 13.6 302.9 103.4;" xml:space="preserve">
<style type="text/css">
	.st0{opacity:0.75;fill:#A4A4A4;enable-background:new    ;}
	.st1{opacity:0.75;enable-background:new    ;}
	.st2{opacity:0.75;fill:#FFFFFF;enable-background:new    ;}
	.st3{clip-path:url(#SVGID_4_);fill:#FFFFFF;}
	.st4{clip-path:url(#SVGID_6_);fill:#FFFFFF;}
</style>
<g id="Page-1_2_">
	<g id="Desktop_2_" transform="translate(-51.000000, -152.000000)">
		<g id="bitcoin-here-gray_1_" transform="translate(51.000000, 152.000000)">
			<g id="Group_3_">
				<g id="Bitcoin_Grayscale_1_">
					<path id="Shape_4_" class="st0" d="M188.8,77.8c-6.8,27.8-35,44.6-62.6,37.7c-27.8-6.8-44.6-34.9-37.7-62.6
						c6.8-27.8,35-44.6,62.6-37.7C179,21.9,195.8,50.1,188.8,77.8L188.8,77.8L188.8,77.8z"/>
					<g class="st1">
						<g>
							<path id="SVGID_1_" class="st2" d="M172.8,55.9c-1,3.7-4.3,14.7-5.7,18.6s-3.9,7.2-7.1,9.1c-3.2,1.9-4.4,2.7-8.9,2.7h-45.9
								l3.2-10.5h43.2l6.4-21h-42.8l3.2-10.5h47.8c2.2,0,5.1,1,6.5,3.8C174.2,50.8,173.8,52.2,172.8,55.9z"/>
						</g>
						<g>
							<g>
								<defs>
									<path id="SVGID_2_" d="M172.8,55.9c-1,3.7-4.3,14.7-5.7,18.6s-3.9,7.2-7.1,9.1c-3.2,1.9-4.4,2.7-8.9,2.7h-45.9l3.2-10.5
										h43.2l6.4-21h-42.8l3.2-10.5h47.8c2.2,0,5.1,1,6.5,3.8C174.2,50.8,173.8,52.2,172.8,55.9z"/>
								</defs>
								<clipPath id="SVGID_4_">
									<use xlink:href="#SVGID_2_"  style="overflow:visible;"/>
								</clipPath>
								<rect x="102.5" y="41.5" class="st3" width="74.1" height="47.6"/>
							</g>
						</g>
					</g>
					<g class="st1">
						<g>
							<polygon id="SVGID_3_" class="st2" points="106.6,60.7 132.1,60.7 129.2,70.3 103.6,70.3 							"/>
						</g>
						<g>
							<g>
								<defs>
									<polygon id="SVGID_5_" points="106.6,60.7 132.1,60.7 129.2,70.3 103.6,70.3 									"/>
								</defs>
								<clipPath id="SVGID_6_">
									<use xlink:href="#SVGID_5_"  style="overflow:visible;"/>
								</clipPath>
								<rect x="100.8" y="57.8" class="st4" width="34.2" height="15.3"/>
							</g>
						</g>
					</g>
				</g>
			</g>
		</g>
	</g>
</g>
</svg>
