<?xml version="1.0" encoding="utf-8"?>
<!-- Generator: Adobe Illustrator 20.1.0, SVG Export Plug-In . SVG Version: 6.00 Build 0)  -->
<svg version="1.1" xmlns="http://www.w3.org/2000/svg" xmlns:xlink="http://www.w3.org/1999/xlink" x="0px" y="0px"
	 viewBox="0 0 103.4 103.4" style="enable-background:new 0 0 103.4 103.4;" xml:space="preserve">
<style type="text/css">
	.st0{opacity:0.75;fill:#ECB634;enable-background:new    ;}
	.st1{display:none;fill:#FFFFFF;}
	.st2{display:none;}
	.st3{display:inline;fill:#FFFFFF;}
	.st4{display:inline;}
	.st5{fill:none;stroke:#EDEDED;stroke-width:4;}
	.st6{display:inline;clip-path:url(#SVGID_2_);}
	.st7{clip-path:url(#SVGID_4_);fill:#FFFFFF;}
	.st8{fill:#FFFFFF;}
</style>
<g id="Layer_1">
	<g>
		<g>
			<g>
				<g>
					<g id="Welcome_1_">
						<g id="AUGlogo-gray" transform="translate(-1.000000, 0.000000)">
							<g id="Layer_1_1_">
								<g id="Page-1_3_">
									<path id="Shape_6_" class="st0" d="M102.8,64.2c-6.8,27.8-35,44.6-62.6,37.7C12.4,95-4.4,66.9,2.5,39.2
										c6.8-27.8,35-44.6,62.6-37.7C93,8.1,109.8,36.3,102.8,64.2L102.8,64.2L102.8,64.2L102.8,64.2z"/>
									<path id="XRP" class="st1" d="M75.5,60.7c-2.5-1.3-5.3-2-8-2l0,0c-3.7,0-6.7-2.8-6.7-6.4c0-3.6,2.9-6.4,6.4-6.5l0,0l0,0
										c2.8,0,5.5-0.7,8.1-2.2c7.6-4.3,10.1-13.8,5.6-21.2S66.7,12.7,59.1,17S49,30.8,53.5,38.1c1.8,3.1,0.9,7-2.3,8.8
										c-3.1,1.8-7.1,0.9-9-2.1l0,0l0,0c-1.3-2.3-3.4-4.3-6-5.7c-7.7-4.2-17.4-1.5-21.7,5.9s-1.7,16.8,6,21s17.4,1.5,21.7-5.9
										l0.1-0.1l0,0l0,0c1.8-3,5.9-4,8.9-2.3c3.2,1.7,4.3,5.7,2.5,8.7c-4.3,7.4-1.6,16.8,6.1,21.1c7.7,4.2,17.4,1.5,21.7-5.9
										C85.9,74.3,83.1,64.9,75.5,60.7z"/>
									<g id="Page-1" class="st2">
										<polygon id="Path-12" class="st3" points="8.3,64.6 22.3,64.5 22.4,25.3 52.5,55.6 83.1,25.2 83.2,64.5 97.2,64.5 
											92.9,74 73,74.1 72.9,49 52.6,69.8 32.2,49.3 32.3,74.1 12.8,74.1 										"/>
									</g>
									<g id="Welcome_2_" transform="translate(24.000000, 19.000000)" class="st2">
										<g id="augurSvg_1_" class="st4">
											<path id="Line_9_" class="st5" d="M1.4,48.3c0,0,8.3-5.2,11.8-5.2s5.8,2.5,7.5,3.8c1.6,1.4,4.8,2.4,4.8,2.4"/>
											<path id="Line_8_" class="st5" d="M0.7,49.5c-0.5-0.3-0.6-0.9-0.4-1.4L27.2,0.6c0.8-1.4,2.1-1.4,2.9,0L57,48.1
												c0.3,0.5,0.1,1.1-0.4,1.4L29.5,65.7c-0.5,0.3-1.2,0.3-1.6,0L0.7,49.5L0.7,49.5z"/>
											<path id="Line_7_" class="st5" d="M28.7,0.8c0,0,0.1,10,0,16.6c0,2.8,0,5-0.2,5.7c-0.6,1.9-4.8,4.2-6.3,5.1
												s-3.5,2.6-4.5,4.3s-1,6.7-1,6.7"/>
											<path id="Line_6_" class="st5" d="M39.3,44.1c0,0-0.8,1.6-2.6,2.9c-2.1,1.6-5.4,3.2-5.9,3.6c-1,0.7-1.7,1.7-2,3
												c-0.2,1.3,0,10.8,0,10.8"/>
											<path id="Line_5_" class="st5" d="M32,26.6c0,0,3.3,1,5.9,3.6s2.7,6.5,4.4,10.2c1.6,3.7,14.7,8.3,14.7,8.3"/>
										</g>
									</g>
								</g>
							</g>
						</g>
					</g>
				</g>
			</g>
		</g>
	</g>
	<g class="st2">
		<defs>
			<path id="SVGID_1_" d="M10.5,32.8h27.4v11.4H10.5V32.8z M83.8,62.6H62V40.8h30.9v-8H53.2v0h0v37.8h8.7v0h24.2v0h6.6V55.9h0v-8
				H68.6v8h15.2V62.6z M19.3,55.9h21.8v6.7H19.3V55.9z M10.5,55.9L10.5,55.9l0-8h30.7V32.8H50v37.8h-8.7v0H17.1v0h-6.6V55.9z"/>
		</defs>
		<clipPath id="SVGID_2_" class="st4">
			<use xlink:href="#SVGID_1_"  style="overflow:visible;"/>
		</clipPath>
		<g class="st6">
			<defs>
				<rect id="SVGID_3_" x="-528.4" y="-551.3" width="3903.5" height="752.5"/>
			</defs>
			<clipPath id="SVGID_4_">
				<use xlink:href="#SVGID_3_"  style="overflow:visible;"/>
			</clipPath>
			<rect x="7.4" y="29.7" class="st7" width="88.5" height="43.9"/>
		</g>
	</g>
</g>
<g id="Layer_2">
	<polygon class="st8" points="53.2,32.8 92.9,32.8 92.9,40.8 62,40.8 62,62.6 83.8,62.6 83.8,55.9 68.6,55.9 68.6,47.9 92.7,47.9 
		92.7,70.6 53.2,70.6 	"/>
	<path class="st8" d="M41.2,32.8H50v37.8H10.5V47.8h30.6V32.8z M19.3,55.9v6.7h21.8v-6.7H19.3z"/>
	<rect x="10.5" y="32.8" class="st8" width="27.4" height="11.4"/>
</g>
</svg>
