<?xml version="1.0" encoding="utf-8"?>
<!-- Generator: Adobe Illustrator 20.1.0, SVG Export Plug-In . SVG Version: 6.00 Build 0)  -->
<svg version="1.1" id="Layer_1" xmlns="http://www.w3.org/2000/svg" xmlns:xlink="http://www.w3.org/1999/xlink" x="0px" y="0px"
	 viewBox="0 0 302.9 103.4" style="enable-background:new 0 0 302.9 103.4;" xml:space="preserve">
<style type="text/css">
	.st0{opacity:0.75;fill:#A4A4A4;enable-background:new    ;}
	.st1{fill:#FFFFFF;}
	.st2{display:none;fill:#FFFFFF;}
</style>
<g id="Layer_1_2_">
	<g>
		<g>
			<g id="Welcome_1_">
				<g id="AUGlogo-gray" transform="translate(-1.000000, 0.000000)">
					<g id="Layer_1_1_">
						<g id="Page-1_3_">
							<g id="Desktop_3_">
								<g id="bitcoin-here-gray_2_">
									<path id="Shape_6_" class="st0" d="M102.8,64.2c-6.8,27.8-35,44.6-62.6,37.7C12.4,95-4.4,66.9,2.5,39.2
										c6.8-27.8,35-44.6,62.6-37.7C93,8.1,109.8,36.3,102.8,64.2L102.8,64.2L102.8,64.2L102.8,64.2z"/>
									<path class="st1" d="M63.4,24.1H27v12.8h6.5v29.3H27v14c0,0,34.6,0,37.3,0c4.2,0,18.1-7.5,17.6-29.7S63.4,24.1,63.4,24.1z
										 M58.3,66.6h-8l-0.4-28.9h8.3c0,0,6.4,4.8,6.1,14.4C64.2,61.8,58.3,66.6,58.3,66.6z"/>
									<path id="XRP" class="st2" d="M75.5,60.7c-2.5-1.3-5.3-2-8-2l0,0c-3.7,0-6.7-2.8-6.7-6.4c0-3.6,2.9-6.4,6.4-6.5l0,0l0,0
										c2.8,0,5.5-0.7,8.1-2.2c7.6-4.3,10.1-13.8,5.6-21.2S66.7,12.7,59.1,17S49,30.8,53.5,38.1c1.8,3.1,0.9,7-2.3,8.8
										c-3.1,1.8-7.1,0.9-9-2.1l0,0l0,0c-1.3-2.3-3.4-4.3-6-5.7c-7.7-4.2-17.4-1.5-21.7,5.9s-1.7,16.8,6,21s17.4,1.5,21.7-5.9
										l0.1-0.1l0,0l0,0c1.8-3,5.9-4,8.9-2.3c3.2,1.7,4.3,5.7,2.5,8.7c-4.3,7.4-1.6,16.8,6.1,21.1c7.7,4.2,17.4,1.5,21.7-5.9
										C85.9,74.3,83.1,64.9,75.5,60.7z"/>
								</g>
							</g>
						</g>
					</g>
				</g>
			</g>
		</g>
	</g>
</g>
<g id="Layer_2">
</g>
</svg>
