<?xml version="1.0" encoding="utf-8"?>
<!-- Generator: Adobe Illustrator 20.1.0, SVG Export Plug-In . SVG Version: 6.00 Build 0)  -->
<svg version="1.1" id="Layer_1" xmlns="http://www.w3.org/2000/svg" xmlns:xlink="http://www.w3.org/1999/xlink" x="0px" y="0px"
	 viewBox="0 0 302.9 103.4" style="enable-background:new 0 0 302.9 103.4;" xml:space="preserve">
<style type="text/css">
	.st0{fill:#BA9F33;}
	.st1{display:none;fill:#FFFFFF;}
	.st2{fill:#FFFFFF;}
</style>
<g id="Page-1">
	<g id="Desktop" transform="translate(-51.000000, -282.000000)">
		<g id="bitcoin-here" transform="translate(51.000000, 282.000000)">
			<g id="Group_1_">
				<g id="Bitcoin">
					<g id="Group">
						<path id="Shape" class="st0" d="M38.8,102.6C11,95.8-5.8,67.6,1.1,40c6.8-27.8,35-44.6,62.6-37.7
							c27.8,6.8,44.7,34.9,37.7,62.6C94.6,92.7,66.4,109.5,38.8,102.6z"/>
						<path id="Shape_1_" class="st1" d="M74.1,45c1-6.9-4.2-10.5-11.3-13.1l2.3-9.4l-5.7-1.3l-2.3,9.1c-1.4-0.3-3.1-0.6-4.5-1.1
							l2.3-9.2l-5.7-1.4L46.9,28c-1.3-0.3-2.4-0.5-3.6-0.8l0,0l-7.8-1.9l-1.4,6.1c0,0,4.2,1,4.1,1c2.3,0.6,2.7,2.1,2.6,3.2
							l-2.6,10.6c0.1,0,0.3,0.1,0.6,0.1c-0.1,0-0.3-0.1-0.6-0.1L34.4,61c-0.3,0.6-1,1.8-2.6,1.3c0,0.1-4.2-1-4.2-1l-2.8,6.5l7.4,1.8
							c1.4,0.3,2.7,0.6,4.1,1L33.9,80l5.7,1.4l2.3-9.4c1.6,0.5,3.1,0.8,4.5,1.1l-2.3,9.2l5.7,1.4l2.4-9.4c9.7,1.8,17,1.1,20.1-7.6
							c2.4-7.1-0.1-11.2-5.2-13.7C70.5,52.6,73.3,50.1,74.1,45L74.1,45L74.1,45z M61.1,63.3c-1.8,7.1-13.6,3.2-17.5,2.3l3.1-12.4
							C50.6,54.1,62.9,55.8,61.1,63.3L61.1,63.3L61.1,63.3z M62.9,45c-1.6,6.5-11.5,3.2-14.7,2.4l2.7-11.3
							C54.2,36.8,64.5,38.2,62.9,45L62.9,45z"/>
						<path class="st2" d="M62.9,24.4H26.5v12.8H33v29.3h-6.5v14c0,0,34.6,0,37.3,0c4.2,0,18.1-7.5,17.6-29.7S62.9,24.4,62.9,24.4z
							 M57.8,66.9h-8L49.4,38h8.3c0,0,6.4,4.8,6.1,14.4C63.7,62.1,57.8,66.9,57.8,66.9z"/>
					</g>
				</g>
			</g>
		</g>
	</g>
</g>
</svg>
