<?xml version="1.0" encoding="UTF-8" standalone="no"?>
<svg width="10px" height="16px" viewBox="0 0 10 16" version="1.1" xmlns="http://www.w3.org/2000/svg" xmlns:xlink="http://www.w3.org/1999/xlink">
    <!-- Generator: Sketch 39 (31667) - http://www.bohemiancoding.com/sketch -->
    <title>Group</title>
    <desc>Created with Sketch.</desc>
    <defs></defs>
    <g id="Page-1" stroke="none" stroke-width="1" fill="none" fill-rule="evenodd" fill-opacity="0.75">
        <g id="1wallets" transform="translate(-714.000000, -252.000000)" fill="#FFFFFF">
            <g id="Group-4" transform="translate(186.000000, 0.000000)">
                <g id="Wallet-Copy-3">
                    <g id="menu-copy-2">
                        <g id="bodyOfMenu" transform="translate(0.000000, 127.000000)">
                            <g id="ethLine" transform="translate(22.000000, 116.000000)">
                                <g id="ic_dialpad_black_24px" transform="translate(506.000000, 9.000000)">
                                    <g id="Group">
                                        <path d="M2,0 C0.9,0 0,0.9 0,2 C0,3.1 0.9,4 2,4 C3.1,4 4,3.1 4,2 C4,0.9 3.1,0 2,0 L2,0 Z M2,6 C0.9,6 0,6.9 0,8 C0,9.1 0.9,10 2,10 C3.1,10 4,9.1 4,8 C4,6.9 3.1,6 2,6 L2,6 Z M2,12 C0.9,12 0,12.9 0,14 C0,15.1 0.9,16 2,16 C3.1,16 4,15.1 4,14 C4,12.9 3.1,12 2,12 L2,12 Z M8,12 C6.9,12 6,12.9 6,14 C6,15.1 6.9,16 8,16 C9.1,16 10,15.1 10,14 C10,12.9 9.1,12 8,12 L8,12 Z M8,6 C6.9,6 6,6.9 6,8 C6,9.1 6.9,10 8,10 C9.1,10 10,9.1 10,8 C10,6.9 9.1,6 8,6 L8,6 Z M8,0 C6.9,0 6,0.9 6,2 C6,3.1 6.9,4 8,4 C9.1,4 10,3.1 10,2 C10,0.9 9.1,0 8,0 L8,0 Z" id="Shape"></path>
                                    </g>
                                </g>
                            </g>
                        </g>
                    </g>
                </g>
            </g>
        </g>
    </g>
</svg>