<?xml version="1.0" encoding="utf-8"?>
<!-- Generator: Adobe Illustrator 19.1.0, SVG Export Plug-In . SVG Version: 6.00 Build 0)  -->
<svg version="1.1" id="Layer_1" xmlns="http://www.w3.org/2000/svg" xmlns:xlink="http://www.w3.org/1999/xlink" x="0px" y="0px"
	 viewBox="87 13.6 103 103.4" style="enable-background:new 87 13.6 103 103.4;" xml:space="preserve">
<style type="text/css">
	.st0{display:none;}
	.st1{display:inline;}
	.st2{opacity:0.75;fill:#A4A4A4;enable-background:new    ;}
	.st3{opacity:0.75;fill:#FFFFFF;enable-background:new    ;}
	.st4{fill:#FFFFFF;}
	.st5{fill:#191919;stroke:#FFFFFF;stroke-miterlimit:10;}
	.st6{display:none;opacity:0.75;fill:#FFFFFF;stroke:#383838;stroke-miterlimit:10;enable-background:new    ;}
</style>
<g id="Page-1_1_" class="st0">
	<g id="Desktop_1_" transform="translate(-51.000000, -152.000000)" class="st1">
		<g id="bitcoin-here-gray" transform="translate(51.000000, 152.000000)">
			<g id="Group_2_">
				<g id="Bitcoin_Grayscale">
					<path id="Shape_3_" class="st2" d="M449.8,118.5c-6.8,27.8-35,44.6-62.6,37.7c-27.8-6.8-44.6-34.9-37.7-62.6
						c6.8-27.8,35-44.6,62.6-37.7C440,62.7,456.8,90.9,449.8,118.5L449.8,118.5L449.8,118.5z"/>
					<path id="Shape_2_" class="st3" d="M422.5,98.7c1-6.9-4.2-10.5-11.3-13.1l2.3-9.4l-5.7-1.3l-2.3,9.1c-1.4-0.3-3.1-0.6-4.5-1.1
						l2.3-9.2l-5.7-1.4l-2.3,9.4c-1.3-0.3-2.4-0.5-3.6-0.8l0,0l-7.8-1.9l-1.3,6c0,0,4.2,1,4.1,1c2.3,0.6,2.7,2.1,2.6,3.2l-2.7,10.6
						c0.1,0,0.3,0.1,0.6,0.1c-0.1,0-0.3-0.1-0.6-0.1l-3.7,14.9c-0.3,0.6-1,1.8-2.6,1.3c0,0.1-4.2-1-4.2-1l-2.8,6.5l7.4,1.8
						c1.4,0.3,2.7,0.6,4.1,1l-2.4,9.4l5.7,1.4l2.3-9.4c1.6,0.5,3.1,0.8,4.5,1.1l-2.3,9.2l5.7,1.4l2.4-9.4c9.7,1.8,17,1.1,20.1-7.6
						c2.4-7.1-0.1-11.2-5.2-13.7C418.9,106.2,421.7,103.8,422.5,98.7L422.5,98.7L422.5,98.7z M409.6,117c-1.8,7.1-13.6,3.2-17.5,2.3
						l3.1-12.4C399,107.7,411.3,109.5,409.6,117L409.6,117L409.6,117z M411.3,98.7c-1.6,6.5-11.5,3.2-14.7,2.4l2.7-11.3
						C402.6,90.4,413,91.9,411.3,98.7L411.3,98.7z"/>
				</g>
			</g>
		</g>
	</g>
</g>
<g id="Page-1_3_">
	<g id="Desktop_3_" transform="translate(-51.000000, -152.000000)">
		<g id="bitcoin-here-gray_2_" transform="translate(51.000000, 152.000000)">
			<g id="Group_3_">
				<g id="Bitcoin_Grayscale_2_">
					<path id="Shape_17_" class="st4" d="M188.8,77.8c-6.8,27.8-35,44.6-62.6,37.7c-27.8-6.9-44.6-35-37.7-62.7
						c6.8-27.8,35-44.6,62.6-37.7C179,21.9,195.8,50.1,188.8,77.8L188.8,77.8L188.8,77.8z"/>
					<g id="logo">
						<polygon id="Shape" class="st5" points="138.8,28.8 161.9,65.8 138.8,78.9 						"/>
						<polygon id="Shape_11_" class="st5" points="161.9,70 138.8,101.3 138.8,82.9 						"/>
						<polygon id="Shape_10_" class="st5" points="138.8,28.8 115.5,65.8 138.8,78.9 						"/>
						<polygon id="Shape_9_" class="st5" points="115.5,70 138.8,101.3 138.8,82.9 						"/>
						<polygon id="Shape_8_" class="st5" points="138.8,78.9 115.5,65.8 138.8,56 						"/>
						<polygon id="Shape_7_" class="st5" points="138.8,78.9 161.9,65.8 138.8,56 						"/>
					</g>
					<path id="Shape_6_" class="st6" d="M160.4,58.9c1-6.9-4.2-10.5-11.3-13.1l2.3-9.4l-5.7-1.3l-2.3,9.1c-1.4-0.3-3.1-0.6-4.5-1.1
						l2.3-9.2l-5.7-1.3l-2.3,9.4c-1.3-0.3-2.4-0.5-3.6-0.8l0,0l-7.8-1.9l-1.3,6c0,0,4.2,1,4.1,1c2.3,0.6,2.7,2.1,2.6,3.2l-2.7,10.6
						c0.1,0,0.3,0.1,0.6,0.1c-0.1,0-0.3-0.1-0.6-0.1L120.8,75c-0.3,0.6-1,1.8-2.6,1.3c0,0.1-4.2-1-4.2-1l-2.8,6.5l7.4,1.8
						c1.4,0.3,2.7,0.6,4.1,1l-2.4,9.4l5.7,1.4l2.3-9.4c1.6,0.5,3.1,0.8,4.5,1.1l-2.3,9.2l5.7,1.4l2.4-9.4c9.7,1.8,17,1.1,20.1-7.6
						c2.4-7.1-0.1-11.2-5.2-13.7C156.8,66.4,159.6,64,160.4,58.9L160.4,58.9L160.4,58.9z M147.5,77.3c-1.8,7.1-13.6,3.1-17.5,2.3
						l3.1-12.4C136.9,67.9,149.2,69.8,147.5,77.3L147.5,77.3L147.5,77.3z M149.2,58.9c-1.6,6.5-11.5,3.2-14.7,2.4l2.7-11.3
						C140.5,50.6,150.9,52.1,149.2,58.9L149.2,58.9z"/>
				</g>
			</g>
		</g>
	</g>
</g>
</svg>
