<?xml version="1.0" encoding="utf-8"?>
<!-- Generator: Adobe Illustrator 19.1.0, SVG Export Plug-In . SVG Version: 6.00 Build 0)  -->
<svg version="1.1" id="Layer_1" xmlns="http://www.w3.org/2000/svg" xmlns:xlink="http://www.w3.org/1999/xlink" x="0px" y="0px"
	 viewBox="87 13.6 302.9 103.4" style="enable-background:new 87 13.6 302.9 103.4;" xml:space="preserve">
<style type="text/css">
	.st0{display:none;}
	.st1{display:inline;}
	.st2{opacity:0.75;fill:#A4A4A4;enable-background:new    ;}
	.st3{opacity:0.75;fill:#FFFFFF;enable-background:new    ;}
	.st4{fill:#669073;}
	.st5{fill:#FFFFFF;stroke:#669073;stroke-miterlimit:10;}
	.st6{display:none;opacity:0.75;fill:#FFFFFF;stroke:#383838;stroke-miterlimit:10;enable-background:new    ;}
</style>
<g id="Page-1_3_">
	<g id="Desktop_3_" transform="translate(-51.000000, -152.000000)">
		<g id="bitcoin-here-gray_2_" transform="translate(51.000000, 152.000000)">
			<g id="Group_3_">
				<g id="Page-1_1_" class="st0">
					<g id="Desktop_1_" transform="translate(-51.000000, -152.000000)" class="st1">
						<g id="bitcoin-here-gray" transform="translate(51.000000, 152.000000)">
							<g id="Group_2_">
								<g id="Bitcoin_Grayscale">
									<path id="Shape_3_" class="st2" d="M449.8,118.9c-6.8,27.8-35,44.6-62.6,37.7c-27.8-6.8-44.6-34.9-37.7-62.6
										c6.8-27.8,35-44.6,62.6-37.7C440,63.1,456.8,91.3,449.8,118.9L449.8,118.9L449.8,118.9z"/>
									<path id="Shape_2_" class="st3" d="M422.5,99.1c1-6.9-4.2-10.5-11.3-13.1l2.3-9.4l-5.7-1.3l-2.3,9.1
										c-1.4-0.3-3.1-0.6-4.5-1.1l2.3-9.2l-5.7-1.4l-2.3,9.4c-1.3-0.3-2.4-0.5-3.6-0.8l0,0l-7.8-1.9l-1.3,6c0,0,4.2,1,4.1,1
										c2.3,0.6,2.7,2.1,2.6,3.2l-2.7,10.6c0.1,0,0.3,0.1,0.6,0.1c-0.1,0-0.3-0.1-0.6-0.1l-3.7,14.9c-0.3,0.6-1,1.8-2.6,1.3
										c0,0.1-4.2-1-4.2-1l-2.8,6.5l7.4,1.8c1.4,0.3,2.7,0.6,4.1,1l-2.4,9.4l5.7,1.4l2.3-9.4c1.6,0.5,3.1,0.8,4.5,1.1l-2.3,9.2
										l5.7,1.4l2.4-9.4c9.7,1.8,17,1.1,20.1-7.6c2.4-7.1-0.1-11.2-5.2-13.7C418.9,106.6,421.7,104.2,422.5,99.1L422.5,99.1
										L422.5,99.1z M409.6,117.4c-1.8,7.1-13.6,3.2-17.5,2.3l3.1-12.4C399,108.1,411.3,109.9,409.6,117.4L409.6,117.4
										L409.6,117.4z M411.3,99.1c-1.6,6.5-11.5,3.2-14.7,2.4l2.7-11.3C402.6,90.8,413,92.3,411.3,99.1L411.3,99.1z"/>
								</g>
							</g>
						</g>
					</g>
				</g>
				<g id="Bitcoin_Grayscale_2_">
					<path id="Shape_17_" class="st4" d="M188.8,78.2c-6.8,27.8-35,44.6-62.6,37.7c-27.8-6.9-44.6-35-37.7-62.7
						c6.8-27.8,35-44.6,62.6-37.7C179,22.3,195.8,50.5,188.8,78.2L188.8,78.2L188.8,78.2z"/>
					<g id="logo">
						<polygon id="Shape" class="st5" points="138.8,29.2 161.9,66.2 138.8,79.3 						"/>
						<polygon id="Shape_11_" class="st5" points="161.9,70.4 138.8,101.7 138.8,83.3 						"/>
						<polygon id="Shape_10_" class="st5" points="138.8,29.2 115.5,66.2 138.8,79.3 						"/>
						<polygon id="Shape_9_" class="st5" points="115.5,70.4 138.8,101.7 138.8,83.3 						"/>
						<polygon id="Shape_8_" class="st5" points="138.8,79.3 115.5,66.2 138.8,56.4 						"/>
						<polygon id="Shape_7_" class="st5" points="138.8,79.3 161.9,66.2 138.8,56.4 						"/>
					</g>
					<path id="Shape_6_" class="st6" d="M160.4,59.3c1-6.9-4.2-10.5-11.3-13.1l2.3-9.4l-5.7-1.3l-2.3,9.1c-1.4-0.3-3.1-0.6-4.5-1.1
						l2.3-9.2l-5.7-1.3l-2.3,9.4c-1.3-0.3-2.4-0.5-3.6-0.8l0,0l-7.8-1.9l-1.3,6c0,0,4.2,1,4.1,1c2.3,0.6,2.7,2.1,2.6,3.2l-2.7,10.6
						c0.1,0,0.3,0.1,0.6,0.1c-0.1,0-0.3-0.1-0.6-0.1l-3.7,14.9c-0.3,0.6-1,1.8-2.6,1.3c0,0.1-4.2-1-4.2-1l-2.8,6.5l7.4,1.8
						c1.4,0.3,2.7,0.6,4.1,1l-2.4,9.4l5.7,1.4l2.3-9.4c1.6,0.5,3.1,0.8,4.5,1.1l-2.3,9.2l5.7,1.4l2.4-9.4c9.7,1.8,17,1.1,20.1-7.6
						c2.4-7.1-0.1-11.2-5.2-13.7C156.8,66.8,159.6,64.4,160.4,59.3L160.4,59.3L160.4,59.3z M147.5,77.7c-1.8,7.1-13.6,3.1-17.5,2.3
						l3.1-12.4C136.9,68.3,149.2,70.2,147.5,77.7L147.5,77.7L147.5,77.7z M149.2,59.3c-1.6,6.5-11.5,3.2-14.7,2.4l2.7-11.3
						C140.5,51,150.9,52.5,149.2,59.3L149.2,59.3z"/>
				</g>
			</g>
		</g>
	</g>
</g>
</svg>
