<?xml version="1.0" encoding="utf-8"?>
<!-- Generator: Adobe Illustrator 20.0.0, SVG Export Plug-In . SVG Version: 6.00 Build 0)  -->
<svg version="1.1" id="Layer_1" xmlns="http://www.w3.org/2000/svg" xmlns:xlink="http://www.w3.org/1999/xlink" x="0px" y="0px"
	 viewBox="0 0 302.9 103.4" style="enable-background:new 0 0 302.9 103.4;" xml:space="preserve">
<style type="text/css">
	.st0{display:none;}
	.st1{display:inline;}
	.st2{opacity:0.75;fill:#A4A4A4;enable-background:new    ;}
	.st3{opacity:0.75;fill:#FFFFFF;enable-background:new    ;}
	.st4{fill:#FFFFFF;}
	.st5{fill:#191919;stroke:#FFFFFF;stroke-miterlimit:10;}
	.st6{display:none;opacity:0.75;fill:#FFFFFF;stroke:#383838;stroke-miterlimit:10;enable-background:new    ;}
</style>
<g id="Page-1_1_" class="st0">
	<g id="Desktop_1_" transform="translate(-51.000000, -152.000000)" class="st1">
		<g id="bitcoin-here-gray" transform="translate(51.000000, 152.000000)">
			<g id="Group_2_">
				<g id="Bitcoin_Grayscale">
					<path id="Shape_3_" class="st2" d="M362.8,104.9c-6.8,27.8-35,44.6-62.6,37.7c-27.8-6.8-44.6-34.9-37.7-62.6
						c6.8-27.8,35-44.6,62.6-37.7C353,49.1,369.8,77.3,362.8,104.9L362.8,104.9L362.8,104.9z"/>
					<path id="Shape_2_" class="st3" d="M335.5,85.1c1-6.9-4.2-10.5-11.3-13.1l2.3-9.4l-5.7-1.3l-2.3,9.1c-1.4-0.3-3.1-0.6-4.5-1.1
						l2.3-9.2l-5.7-1.4l-2.3,9.4c-1.3-0.3-2.4-0.5-3.6-0.8l0,0l-7.8-1.9l-1.3,6c0,0,4.2,1,4.1,1c2.3,0.6,2.7,2.1,2.6,3.2l-2.7,10.6
						c0.1,0,0.3,0.1,0.6,0.1c-0.1,0-0.3-0.1-0.6-0.1l-3.7,14.9c-0.3,0.6-1,1.8-2.6,1.3c0,0.1-4.2-1-4.2-1l-2.8,6.5l7.4,1.8
						c1.4,0.3,2.7,0.6,4.1,1l-2.4,9.4l5.7,1.4l2.3-9.4c1.6,0.5,3.1,0.8,4.5,1.1l-2.3,9.2l5.7,1.4l2.4-9.4c9.7,1.8,17,1.1,20.1-7.6
						c2.4-7.1-0.1-11.2-5.2-13.7C331.9,92.6,334.7,90.2,335.5,85.1L335.5,85.1L335.5,85.1z M322.6,103.4c-1.8,7.1-13.6,3.2-17.5,2.3
						l3.1-12.4C312,94.1,324.3,95.9,322.6,103.4L322.6,103.4L322.6,103.4z M324.3,85.1c-1.6,6.5-11.5,3.2-14.7,2.4l2.7-11.3
						C315.6,76.8,326,78.3,324.3,85.1L324.3,85.1z"/>
				</g>
			</g>
		</g>
	</g>
</g>
<g id="Page-1_3_">
	<g id="Desktop_3_" transform="translate(-51.000000, -152.000000)">
		<g id="bitcoin-here-gray_2_" transform="translate(51.000000, 152.000000)">
			<g id="Group_3_">
				<g id="Bitcoin_Grayscale_2_">
					<path id="Shape_17_" class="st4" d="M101.8,64.2c-6.8,27.8-35,44.6-62.6,37.7C11.4,95-5.4,66.9,1.5,39.2
						c6.8-27.8,35-44.6,62.6-37.7C92,8.3,108.8,36.5,101.8,64.2L101.8,64.2L101.8,64.2z"/>
					<g id="logo">
						<polygon id="Shape" class="st5" points="51.8,15.2 74.9,52.2 51.8,65.3 						"/>
						<polygon id="Shape_11_" class="st5" points="74.9,56.4 51.8,87.7 51.8,69.3 						"/>
						<polygon id="Shape_10_" class="st5" points="51.8,15.2 28.5,52.2 51.8,65.3 						"/>
						<polygon id="Shape_9_" class="st5" points="28.5,56.4 51.8,87.7 51.8,69.3 						"/>
						<polygon id="Shape_8_" class="st5" points="51.8,65.3 28.5,52.2 51.8,42.4 						"/>
						<polygon id="Shape_7_" class="st5" points="51.8,65.3 74.9,52.2 51.8,42.4 						"/>
					</g>
					<path id="Shape_6_" class="st6" d="M73.4,45.3c1-6.9-4.2-10.5-11.3-13.1l2.3-9.4l-5.7-1.3l-2.3,9.1c-1.4-0.3-3.1-0.6-4.5-1.1
						l2.3-9.2L48.5,19l-2.3,9.4c-1.3-0.3-2.4-0.5-3.6-0.8l0,0l-7.8-1.9l-1.3,6c0,0,4.2,1,4.1,1c2.3,0.6,2.7,2.1,2.6,3.2l-2.7,10.6
						c0.1,0,0.3,0.1,0.6,0.1c-0.1,0-0.3-0.1-0.6-0.1l-3.7,14.9c-0.3,0.6-1,1.8-2.6,1.3c0,0.1-4.2-1-4.2-1l-2.8,6.5l7.4,1.8
						c1.4,0.3,2.7,0.6,4.1,1l-2.4,9.4l5.7,1.4l2.3-9.4c1.6,0.5,3.1,0.8,4.5,1.1l-2.3,9.2l5.7,1.4l2.4-9.4c9.7,1.8,17,1.1,20.1-7.6
						c2.4-7.1-0.1-11.2-5.2-13.7C69.8,52.8,72.6,50.4,73.4,45.3L73.4,45.3L73.4,45.3z M60.5,63.7C58.7,70.8,46.9,66.8,43,66
						l3.1-12.4C49.9,54.3,62.2,56.2,60.5,63.7L60.5,63.7L60.5,63.7z M62.2,45.3c-1.6,6.5-11.5,3.2-14.7,2.4l2.7-11.3
						C53.5,37,63.9,38.5,62.2,45.3L62.2,45.3z"/>
				</g>
			</g>
		</g>
	</g>
</g>
</svg>
