<?xml version="1.0" encoding="UTF-8" standalone="no"?>
<svg width="42px" height="40px" viewBox="0 0 42 40" version="1.1" xmlns="http://www.w3.org/2000/svg" xmlns:xlink="http://www.w3.org/1999/xlink">
    <!-- Generator: Sketch 42 (36781) - http://www.bohemiancoding.com/sketch -->
    <title>Group 7</title>
    <desc>Created with Sketch.</desc>
    <defs></defs>
    <g id="Page-1" stroke="none" stroke-width="1" fill="none" fill-rule="evenodd">
        <g id="jaxx-new-icons" transform="translate(-1090.000000, -390.000000)" fill-rule="nonzero" fill="#E1E1E1">
            <g id="Group-7" transform="translate(1090.000000, 390.000000)">
                <g id="Group-5" transform="translate(0.360311, 0.000000)">
                    <path d="M39.9363978,27.8376515 L39.9583369,27.8256978 L22.8303132,10.4284619 L22.8049265,2.24215138 L14.5215002,0 L13.6375106,0.894786463 L18.0454705,5.33634086 L13.7524559,9.68392802 L9.3444959,5.2389696 L8.46223006,6.12354395 L10.6830953,14.4874977 L18.5626068,14.5182132 L18.510188,14.5608824 L35.7531571,32.0674432 L35.7750962,32.0469399 C36.9294854,33.1808005 38.773468,33.1808005 39.9058398,32.024774 C41.0569381,30.8772181 41.0620311,29.0107773 39.9363978,27.8376515 Z M38.8208722,30.9198873 C38.3087506,31.4390424 37.480549,31.4390424 36.9752441,30.9198873 C36.4648463,30.4058779 36.4613987,29.5760056 36.9718749,29.0585921 C37.4806273,28.5411787 38.3104743,28.5411787 38.822596,29.0551881 C39.3279008,29.5691975 39.3346392,30.4042155 38.8208722,30.9198873 Z" id="Shape"></path>
                    <path d="M3.69055091,18.1023463 C3.83080454,18.1296578 7.10976198,18.7905157 7.81455605,22.5284638 C6.92382798,23.4830188 6.36774977,24.8166884 6.36774977,26.2972065 C6.36774977,26.3143059 6.37111899,26.3262596 6.37111899,26.3348093 L15.7176521,26.3348093 L15.7176521,26.2972065 C15.7176521,24.8166884 15.1615739,23.4830188 14.2725696,22.5284638 C14.9773637,18.7921782 18.2545973,18.1296578 18.3932055,18.1023463 C18.6990995,18.0425778 18.9070509,17.7471391 18.8512629,17.4346803 C18.7954749,17.1256255 18.5014124,16.9172668 18.1920708,16.9718897 C18.1532073,16.9804394 14.3723142,17.7180861 13.2922829,21.7207573 C12.624707,21.3143313 11.8573081,21.0804028 11.0410163,21.0804028 C10.2280154,21.0804028 9.46069486,21.3160729 8.79139514,21.7241614 C7.70799463,17.7180861 3.93219459,16.9838435 3.88996179,16.9752938 C3.58406785,16.9206709 3.29165079,17.1289504 3.23586275,17.4380843 C3.17506006,17.7472183 3.38293318,18.0425778 3.69055091,18.1023463 Z" id="Shape"></path>
                    <path d="M21.5538485,22.6958949 C21.1566721,22.5695497 20.7341091,22.7966702 20.6073323,23.199613 C20.6073323,23.199613 19.6828337,26.2118682 19.486792,26.8590308 C19.0862465,26.9683558 17.8608686,27.3184173 17.0158209,27.5540083 C16.9836957,27.4173719 16.9600328,27.282477 16.9279077,27.1493238 L5.15420329,27.1493238 C5.12544738,27.2825562 5.09841526,27.417451 5.06965935,27.5540083 C4.22461165,27.3132717 2.99750994,26.9682766 2.59868817,26.8590308 C2.39927729,26.2118682 1.47642408,23.1978714 1.47642408,23.1978714 C1.35474035,22.796591 0.930531891,22.567729 0.533355556,22.6941533 C0.13281,22.815432 -0.0903421413,23.2422822 0.034789168,23.6469667 L1.39877529,28.1004748 L4.85175692,29.0721291 C4.82981781,29.3931376 4.80952413,29.7192918 4.80952413,30.0523331 C4.80952413,30.4587592 4.83491082,30.8634437 4.87040517,31.257916 L1.41899062,32.8186269 L0.340683114,38.9729655 C0.269694406,39.3861996 0.54346322,39.7858176 0.955918581,39.8575398 C1.36492637,39.9310037 1.75873348,39.6577308 1.82972219,39.2410927 C1.82972219,39.2410927 2.64946155,34.5775635 2.76777606,33.8808444 C3.10070213,33.7288503 4.19256487,33.2336818 5.12552574,32.818706 C5.94189588,36.339825 8.28444488,38.8876271 11.0461093,38.8876271 C13.8061283,38.8876271 16.1520466,36.3433082 16.9701405,32.818706 C17.8980084,33.2336818 18.9915949,33.7288503 19.324521,33.8808444 C19.4411117,34.5724178 20.260851,39.2410927 20.260851,39.2410927 C20.3335635,39.6577308 20.7256469,39.9310037 21.1397477,39.8575398 C21.5521247,39.7858176 21.8208788,39.3913452 21.7516139,38.9729655 L20.6715826,32.818706 L17.223694,31.2630616 C17.2591883,30.8685893 17.2828512,30.4639048 17.2828512,30.0592204 C17.2828512,29.7262582 17.2625576,29.3983624 17.2406184,29.0756123 L20.6919546,28.1056996 L22.0575862,23.650529 C22.1758224,23.2457654 21.9510248,22.818836 21.5538485,22.6958949 Z" id="Shape"></path>
                </g>
            </g>
        </g>
    </g>
</svg>