<?xml version="1.0" encoding="UTF-8" standalone="no"?>
<svg width="36px" height="36px" viewBox="0 0 36 36" version="1.1" xmlns="http://www.w3.org/2000/svg" xmlns:xlink="http://www.w3.org/1999/xlink">
    <!-- Generator: Sketch 39 (31667) - http://www.bohemiancoding.com/sketch -->
    <title>gear</title>
    <desc>Created with Sketch.</desc>
    <defs></defs>
    <g id="Welcome" stroke="none" stroke-width="1" fill="none" fill-rule="evenodd">
        <g id="Menuv2" transform="translate(-230.000000, -139.000000)" fill="#FFFFFF">
            <g id="tools" transform="translate(230.000000, 139.000000)">
                <g id="gear">
                    <g id="Welcome">
                        <g id="gear">
                            <path d="M36,20.424 L36,15.576 C33.5235,14.6955 31.959,14.448 31.1715,12.5475 L31.1715,12.546 C30.381,10.6395 31.3215,9.345 32.442,6.9855 L29.0145,3.558 C26.673,4.671 25.365,5.6205 23.454,4.8285 L23.4525,4.8285 C21.549,4.0395 21.3,2.4645 20.424,0 L15.576,0 C14.703,2.4525 14.4525,4.038 12.5475,4.8285 L12.546,4.8285 C10.6395,5.6205 9.348,4.6815 6.9855,3.558 L3.558,6.9855 C4.6755,9.3375 5.6205,10.6365 4.8285,12.546 C4.038,14.4525 2.4525,14.703 0,15.576 L0,20.424 C2.448,21.294 4.038,21.5475 4.8285,23.4525 C5.6235,25.3755 4.6575,26.7015 3.558,29.013 L6.9855,32.442 C9.3285,31.3275 10.6365,30.3795 12.546,31.1715 L12.5475,31.1715 C14.4525,31.9605 14.7015,33.54 15.576,36 L20.424,36 C21.297,33.546 21.549,31.965 23.4645,31.167 L23.466,31.167 C25.359,30.381 26.646,31.3185 29.013,32.4435 L32.4405,29.0145 C31.3245,26.67 30.378,25.365 31.1685,23.4555 C31.959,21.549 33.5505,21.2955 36,20.424 L36,20.424 L36,20.424 Z M18,24 C14.6865,24 12,21.3135 12,18 C12,14.6865 14.6865,12 18,12 C21.3135,12 24,14.6865 24,18 C24,21.3135 21.3135,24 18,24 L18,24 L18,24 Z" id="Shape"></path>
                        </g>
                    </g>
                </g>
            </g>
        </g>
    </g>
</svg>