<?xml version="1.0" encoding="UTF-8" standalone="no"?>
<svg width="37px" height="34px" viewBox="0 0 37 34" version="1.1" xmlns="http://www.w3.org/2000/svg" xmlns:xlink="http://www.w3.org/1999/xlink">
    <!-- Generator: Sketch 39 (31667) - http://www.bohemiancoding.com/sketch -->
    <title>glass</title>
    <desc>Created with Sketch.</desc>
    <defs></defs>
    <g id="Welcome" stroke="none" stroke-width="1" fill="none" fill-rule="evenodd">
        <g id="Menuv2" transform="translate(-230.000000, -558.000000)" fill="#FFFFFF">
            <g id="about" transform="translate(230.000000, 558.000000)">
                <g id="glass">
                    <g id="Welcome">
                        <g>
                            <g id="glass">
                                <g id="Layer_1">
                                    <g id="Group">
                                        <g id="Shape" transform="translate(0.107762, 0.233601)">
                                            <polygon points="36.1925213 8.01963606 31.9041034 4.76343631 25.9175869 12.4702497 19.9166798 4.76343631 15.6282617 8.01963606 22.4926087 16.8639864 15.9736376 25.253322 20.2620557 28.5095218 25.9175869 21.2577232 31.5587273 28.5095218 35.861536 25.253322 29.3281744 16.8639864"></polygon>
                                            <path d="M11.9874236,0.113753703 L6.76361234,0.113753703 L6.76361234,21.3430384 L6.76361234,21.3430384 C6.77800302,21.7411764 6.76361234,27.4999576 0.0575626582,27.9976302 L0.0575626582,33.1592044 C0.0575626582,33.1592044 12.0449862,32.5193398 11.9730329,21.3288193 L11.9730329,21.3288193 L11.9730329,0.113753703 L11.9874236,0.113753703 L11.9874236,0.113753703 Z"></path>
                                        </g>
                                    </g>
                                </g>
                            </g>
                        </g>
                    </g>
                </g>
            </g>
        </g>
    </g>
</svg>