<?xml version="1.0" encoding="utf-8"?>
<!-- Generator: Adobe Illustrator 21.0.0, SVG Export Plug-In . SVG Version: 6.00 Build 0)  -->
<svg version="1.1" id="Layer_1" xmlns="http://www.w3.org/2000/svg" xmlns:xlink="http://www.w3.org/1999/xlink" x="0px" y="0px"
	 viewBox="0 0 302.9 103.4" style="enable-background:new 0 0 302.9 103.4;" xml:space="preserve">
<style type="text/css">
	.st0{opacity:0.75;fill:#426483;enable-background:new    ;}
	.st1{display:none;fill:#FFFFFF;}
	.st2{display:none;}
	.st3{display:inline;fill:#FFFFFF;}
	.st4{display:inline;}
	.st5{fill:none;stroke:#EDEDED;stroke-width:4;}
	.st6{fill:#FFFFFF;}
</style>
<g>
	<g>
		<g>
			<g>
				<g id="Welcome_1_">
					<g id="AUGlogo-gray" transform="translate(-1.000000, 0.000000)">
						<g id="Layer_1_1_">
							<g id="Page-1_3_">
								<path id="Shape_6_" class="st0" d="M102.8,64.2c-6.8,27.8-35,44.6-62.6,37.7C12.4,95-4.4,66.9,2.5,39.2
									c6.8-27.8,35-44.6,62.6-37.7C93,8.1,109.8,36.3,102.8,64.2L102.8,64.2L102.8,64.2L102.8,64.2z"/>
								<path id="XRP" class="st1" d="M75.5,60.7c-2.5-1.3-5.3-2-8-2l0,0c-3.7,0-6.7-2.8-6.7-6.4c0-3.6,2.9-6.4,6.4-6.5l0,0l0,0
									c2.8,0,5.5-0.7,8.1-2.2c7.6-4.3,10.1-13.8,5.6-21.2S66.7,12.7,59.1,17S49,30.8,53.5,38.1c1.8,3.1,0.9,7-2.3,8.8
									c-3.1,1.8-7.1,0.9-9-2.1l0,0l0,0c-1.3-2.3-3.4-4.3-6-5.7c-7.7-4.2-17.4-1.5-21.7,5.9s-1.7,16.8,6,21s17.4,1.5,21.7-5.9
									l0.1-0.1l0,0l0,0c1.8-3,5.9-4,8.9-2.3c3.2,1.7,4.3,5.7,2.5,8.7c-4.3,7.4-1.6,16.8,6.1,21.1c7.7,4.2,17.4,1.5,21.7-5.9
									C85.9,74.3,83.1,64.9,75.5,60.7z"/>
								<g id="Page-1" class="st2">
									<polygon id="Path-12" class="st3" points="8.3,64.6 22.3,64.5 22.4,25.3 52.5,55.6 83.1,25.2 83.2,64.5 97.2,64.5 92.9,74 
										73,74.1 72.9,49 52.6,69.8 32.2,49.3 32.3,74.1 12.8,74.1 									"/>
								</g>
								<g id="Welcome_2_" transform="translate(24.000000, 19.000000)" class="st2">
									<g id="augurSvg_1_" class="st4">
										<path id="Line_9_" class="st5" d="M1.4,48.3c0,0,8.3-5.2,11.8-5.2s5.8,2.5,7.5,3.8c1.6,1.4,4.8,2.4,4.8,2.4"/>
										<path id="Line_8_" class="st5" d="M0.7,49.5c-0.5-0.3-0.6-0.9-0.4-1.4L27.2,0.6c0.8-1.4,2.1-1.4,2.9,0L57,48.1
											c0.3,0.5,0.1,1.1-0.4,1.4L29.5,65.7c-0.5,0.3-1.2,0.3-1.6,0L0.7,49.5L0.7,49.5z"/>
										<path id="Line_7_" class="st5" d="M28.7,0.8c0,0,0.1,10,0,16.6c0,2.8,0,5-0.2,5.7c-0.6,1.9-4.8,4.2-6.3,5.1
											s-3.5,2.6-4.5,4.3s-1,6.7-1,6.7"/>
										<path id="Line_6_" class="st5" d="M39.3,44.1c0,0-0.8,1.6-2.6,2.9c-2.1,1.6-5.4,3.2-5.9,3.6c-1,0.7-1.7,1.7-2,3
											c-0.2,1.3,0,10.8,0,10.8"/>
										<path id="Line_5_" class="st5" d="M32,26.6c0,0,3.3,1,5.9,3.6s2.7,6.5,4.4,10.2c1.6,3.7,14.7,8.3,14.7,8.3"/>
									</g>
								</g>
							</g>
						</g>
					</g>
				</g>
			</g>
		</g>
	</g>
</g>
<path id="face" class="st6" d="M38.8,42.8L37.3,41c-1.8,3.2-2.9,7.1-2.9,11.3c0,11.3,7.7,20.5,17.3,20.5S69,63.7,69,52.3
	c0-4.2-1-8-2.8-11.3l-1.4,1.6c0.5,1,2.9,6.3-1.3,10.7c-2.7,2.8-5.9,1.8-8,0.4l-3.7,4.4l-3.6-4.3c-2.2,1.3-5.2,2.3-7.9-0.5
	C36.1,49.2,38.2,44,38.8,42.8L38.8,42.8z"/>
<path id="top" class="st6" d="M37.6,38.3c3.4-4.7,8.4-7.7,14-7.7c5.7,0,10.7,3,14.1,7.8l-14,16.7L37.6,38.3z M40,38.4L40,38.4
	l11.8,14.1l11.7-14c-2.8-4-7-6.5-11.8-6.5C47,32,42.8,34.5,40,38.4z"/>
<path id="eye" class="st6" d="M41.2,45.6l-0.4-0.4c0,0-1.7,3.3,0.1,5.6s3.9,1,4.7,0.5c0.1-0.1,0.2-0.1,0.2-0.2L41.2,45.6z"/>
<path id="eye_1_" class="st6" d="M62.3,45.6l0.4-0.4c0,0,1.7,3.3-0.1,5.6c-1.8,2.3-3.9,1-4.7,0.5c-0.1-0.1-0.2-0.1-0.2-0.2
	L62.3,45.6z"/>
<path id="Path-6" class="st6" d="M6.6,47h25.6c0,0-1.9,10.6,3.8,18.8C36,65.8,11.1,66.5,6.6,47z"/>
<path id="Path-6_1_" class="st6" d="M96.8,47H71.2c0,0,1.9,10.6-3.8,18.8C67.3,65.8,92.3,66.5,96.8,47z"/>
</svg>
