<?xml version="1.0" encoding="UTF-8" standalone="no"?>
<svg width="21px" height="36px" viewBox="0 0 21 36" version="1.1" xmlns="http://www.w3.org/2000/svg" xmlns:xlink="http://www.w3.org/1999/xlink">
    <!-- Generator: Sketch 39 (31667) - http://www.bohemiancoding.com/sketch -->
    <title>help</title>
    <desc>Created with Sketch.</desc>
    <defs></defs>
    <g id="Welcome" stroke="none" stroke-width="1" fill="none" fill-rule="evenodd">
        <g id="Menuv2" transform="translate(-237.000000, -349.000000)" fill="#FFFFFF">
            <g id="help" transform="translate(237.000000, 349.000000)">
                <g id="Welcome">
                    <g>
                        <g>
                            <g id="help">
                                <path d="M14.4015,32.25 C14.4015,34.32 12.7275,36 10.653,36 C8.586,36 6.9045,34.32 6.9045,32.25 C6.9045,30.18 8.586,28.5 10.653,28.5 C12.7275,28.5 14.4015,30.1785 14.4015,32.25 L14.4015,32.25 L14.4015,32.25 Z M10.7715,0 C4.728,0 0.1815,4.0395 0.1815,12 L6.114,12 C6.114,8.544 7.473,5.7165 10.65,5.7165 C12.5205,5.7165 14.505,6.9585 14.676,9.333 C14.8605,11.832 13.5255,13.0995 11.838,14.706 C7.452,18.876 7.614,20.7795 7.614,25.5 L13.5285,25.5 C13.5285,23.322 13.293,21.738 16.2855,18.5115 C18.282,16.3575 20.7645,13.6785 20.817,9.597 C20.8875,3.6525 16.6905,2.66453526e-15 10.7715,2.66453526e-15 L10.7715,0 L10.7715,0 Z" id="Shape"></path>
                            </g>
                        </g>
                    </g>
                </g>
            </g>
        </g>
    </g>
</svg>