<?xml version="1.0" encoding="utf-8"?>
<!-- Generator: Adobe Illustrator 20.1.0, SVG Export Plug-In . SVG Version: 6.00 Build 0)  -->
<svg version="1.1" id="Layer_1" xmlns="http://www.w3.org/2000/svg" xmlns:xlink="http://www.w3.org/1999/xlink" x="0px" y="0px"
	 viewBox="0 0 302.9 103.4" style="enable-background:new 0 0 302.9 103.4;" xml:space="preserve">
<style type="text/css">
	.st0{opacity:0.75;fill:#A4A4A4;enable-background:new    ;}
	.st1{display:none;fill:#FFFFFF;}
	.st2{display:none;}
	.st3{display:inline;fill:#FFFFFF;}
	.st4{display:inline;}
	.st5{fill:none;stroke:#EDEDED;stroke-width:4;}
	.st6{clip-path:url(#SVGID_2_);}
	.st7{clip-path:url(#SVGID_4_);fill:#FFFFFF;}
	.st8{clip-path:url(#SVGID_6_);}
	.st9{clip-path:url(#SVGID_8_);fill:#FFFFFF;}
	.st10{clip-path:url(#SVGID_10_);}
	.st11{clip-path:url(#SVGID_12_);fill:#FFFFFF;}
	.st12{clip-path:url(#SVGID_14_);}
	.st13{clip-path:url(#SVGID_16_);fill:#FFFFFF;}
</style>
<g>
	<g>
		<g>
			<g>
				<g id="Welcome_1_">
					<g id="AUGlogo-gray" transform="translate(-1.000000, 0.000000)">
						<g id="Layer_1_1_">
							<g id="Page-1_3_">
								<path id="Shape_6_" class="st0" d="M102.8,64.2c-6.8,27.8-35,44.6-62.6,37.7C12.4,95-4.4,66.9,2.5,39.2
									c6.8-27.8,35-44.6,62.6-37.7C93,8.1,109.8,36.3,102.8,64.2L102.8,64.2L102.8,64.2L102.8,64.2z"/>
								<path id="XRP" class="st1" d="M75.5,60.7c-2.5-1.3-5.3-2-8-2l0,0c-3.7,0-6.7-2.8-6.7-6.4c0-3.6,2.9-6.4,6.4-6.5l0,0l0,0
									c2.8,0,5.5-0.7,8.1-2.2c7.6-4.3,10.1-13.8,5.6-21.2S66.7,12.7,59.1,17S49,30.8,53.5,38.1c1.8,3.1,0.9,7-2.3,8.8
									c-3.1,1.8-7.1,0.9-9-2.1l0,0l0,0c-1.3-2.3-3.4-4.3-6-5.7c-7.7-4.2-17.4-1.5-21.7,5.9s-1.7,16.8,6,21s17.4,1.5,21.7-5.9
									l0.1-0.1l0,0l0,0c1.8-3,5.9-4,8.9-2.3c3.2,1.7,4.3,5.7,2.5,8.7c-4.3,7.4-1.6,16.8,6.1,21.1c7.7,4.2,17.4,1.5,21.7-5.9
									C85.9,74.3,83.1,64.9,75.5,60.7z"/>
								<g id="Page-1" class="st2">
									<polygon id="Path-12" class="st3" points="8.3,64.6 22.3,64.5 22.4,25.3 52.5,55.6 83.1,25.2 83.2,64.5 97.2,64.5 92.9,74 
										73,74.1 72.9,49 52.6,69.8 32.2,49.3 32.3,74.1 12.8,74.1 									"/>
								</g>
								<g id="Welcome_2_" transform="translate(24.000000, 19.000000)" class="st2">
									<g id="augurSvg_1_" class="st4">
										<path id="Line_9_" class="st5" d="M1.4,48.3c0,0,8.3-5.2,11.8-5.2s5.8,2.5,7.5,3.8c1.6,1.4,4.8,2.4,4.8,2.4"/>
										<path id="Line_8_" class="st5" d="M0.7,49.5c-0.5-0.3-0.6-0.9-0.4-1.4L27.2,0.6c0.8-1.4,2.1-1.4,2.9,0L57,48.1
											c0.3,0.5,0.1,1.1-0.4,1.4L29.5,65.7c-0.5,0.3-1.2,0.3-1.6,0L0.7,49.5L0.7,49.5z"/>
										<path id="Line_7_" class="st5" d="M28.7,0.8c0,0,0.1,10,0,16.6c0,2.8,0,5-0.2,5.7c-0.6,1.9-4.8,4.2-6.3,5.1
											s-3.5,2.6-4.5,4.3s-1,6.7-1,6.7"/>
										<path id="Line_6_" class="st5" d="M39.3,44.1c0,0-0.8,1.6-2.6,2.9c-2.1,1.6-5.4,3.2-5.9,3.6c-1,0.7-1.7,1.7-2,3
											c-0.2,1.3,0,10.8,0,10.8"/>
										<path id="Line_5_" class="st5" d="M32,26.6c0,0,3.3,1,5.9,3.6s2.7,6.5,4.4,10.2c1.6,3.7,14.7,8.3,14.7,8.3"/>
									</g>
								</g>
							</g>
						</g>
					</g>
				</g>
			</g>
		</g>
	</g>
</g>
<g>
	<defs>
		<path id="SVGID_1_" d="M36.7,45.8c0-1.6,1.3-2.9,2.9-2.9h3.7c1.6,0,2.9,1.3,2.9,2.9v29.4c0,1.6-1.3,2.9-2.9,2.9h-3.7
			c-1.6,0-2.9-1.3-2.9-2.9V45.8z"/>
	</defs>
	<clipPath id="SVGID_2_">
		<use xlink:href="#SVGID_1_"  style="overflow:visible;"/>
	</clipPath>
	<g class="st6">
		<defs>
			<rect id="SVGID_3_" x="-235.7" y="-16.9" width="1385" height="267"/>
		</defs>
		<clipPath id="SVGID_4_">
			<use xlink:href="#SVGID_3_"  style="overflow:visible;"/>
		</clipPath>
		<rect x="35.6" y="41.7" class="st7" width="11.7" height="37.5"/>
	</g>
</g>
<g>
	<defs>
		<path id="SVGID_5_" d="M53.3,53.9c0-1.6,1.3-2.9,2.9-2.9h3.7c1.6,0,2.9,1.3,2.9,2.9v21.3c0,1.6-1.3,2.9-2.9,2.9h-3.7
			c-1.6,0-2.9-1.3-2.9-2.9V53.9z"/>
	</defs>
	<clipPath id="SVGID_6_">
		<use xlink:href="#SVGID_5_"  style="overflow:visible;"/>
	</clipPath>
	<g class="st8">
		<defs>
			<rect id="SVGID_7_" x="-235.7" y="-16.9" width="1385" height="267"/>
		</defs>
		<clipPath id="SVGID_8_">
			<use xlink:href="#SVGID_7_"  style="overflow:visible;"/>
		</clipPath>
		<rect x="52.2" y="49.9" class="st9" width="11.7" height="29.4"/>
	</g>
</g>
<g>
	<defs>
		<path id="SVGID_9_" d="M20,62.2c0-1.6,1.3-2.9,2.9-2.9h3.7c1.6,0,2.9,1.3,2.9,2.9v13c0,1.6-1.3,2.9-2.9,2.9h-3.7
			c-1.6,0-2.9-1.3-2.9-2.9V62.2z"/>
	</defs>
	<clipPath id="SVGID_10_">
		<use xlink:href="#SVGID_9_"  style="overflow:visible;"/>
	</clipPath>
	<g class="st10">
		<defs>
			<rect id="SVGID_11_" x="-235.7" y="-16.9" width="1385" height="267"/>
		</defs>
		<clipPath id="SVGID_12_">
			<use xlink:href="#SVGID_11_"  style="overflow:visible;"/>
		</clipPath>
		<rect x="18.9" y="58.2" class="st11" width="11.7" height="21"/>
	</g>
</g>
<g>
	<defs>
		<path id="SVGID_13_" d="M69.8,22.2c0-1.6,1.3-2.9,2.9-2.9h3.7c1.6,0,2.9,1.3,2.9,2.9v53c0,1.6-1.3,2.9-2.9,2.9h-3.7
			c-1.6,0-2.9-1.3-2.9-2.9V22.2z"/>
	</defs>
	<clipPath id="SVGID_14_">
		<use xlink:href="#SVGID_13_"  style="overflow:visible;"/>
	</clipPath>
	<g class="st12">
		<defs>
			<rect id="SVGID_15_" x="-235.7" y="-16.9" width="1385" height="267"/>
		</defs>
		<clipPath id="SVGID_16_">
			<use xlink:href="#SVGID_15_"  style="overflow:visible;"/>
		</clipPath>
		<rect x="68.7" y="18.2" class="st13" width="11.7" height="61.1"/>
	</g>
</g>
</svg>
