<?xml version="1.0" encoding="UTF-8" standalone="no"?>
<svg width="158px" height="139px" viewBox="0 0 158 139" version="1.1" xmlns="http://www.w3.org/2000/svg" xmlns:xlink="http://www.w3.org/1999/xlink" xmlns:sketch="http://www.bohemiancoding.com/sketch/ns">
    <!-- Generator: Sketch 3.5.1 (25234) - http://www.bohemiancoding.com/sketch -->
    <title>icon-warning</title>
    <desc>Created with Sketch.</desc>
    <defs></defs>
    <g id="Page-1" stroke="none" stroke-width="1" fill="none" fill-rule="evenodd" sketch:type="MSPage">
        <g id="Mobile-Portrait" sketch:type="MSArtboardGroup" transform="translate(-17408.000000, -7674.000000)" fill="#E52E4B">
            <g id="icon-warning" sketch:type="MSLayerGroup" transform="translate(17407.000000, 7673.000000)">
                <path d="M86.836,6.047 C82.938,-0.689 76.561,-0.689 72.664,6.047 L2.649,127.066 C-1.248,133.803 1.951,139.315 9.759,139.315 L149.74,139.315 C157.548,139.315 160.747,133.803 156.85,127.066 L86.836,6.047 L86.836,6.047 Z M86.409,122.116 C84.54,124.088 82.293,125.074 79.666,125.074 C77.114,125.074 74.884,124.078 72.979,122.086 C71.073,120.094 70.121,117.731 70.121,114.997 C70.121,112.302 71.064,109.95 72.952,107.936 C74.838,105.925 77.076,104.919 79.666,104.919 C82.331,104.919 84.586,105.896 86.437,107.849 C88.286,109.802 89.212,112.184 89.212,114.997 C89.212,117.771 88.277,120.144 86.409,122.116 L86.409,122.116 Z M90.191,47.376 C90.05,48.605 89.183,55.928 88.265,63.648 L86.107,81.801 C85.19,89.522 82.291,95.838 79.666,95.838 C77.041,95.838 74.165,89.519 73.275,81.795 L71.184,63.654 C70.294,55.93 69.449,48.605 69.307,47.376 C69.307,47.376 69.307,47.376 69.233,46.419 C69.158,45.462 69.122,44.69 69.122,44.104 C69.122,40.667 70.056,37.973 71.924,36.019 C73.792,34.066 76.373,33.09 79.666,33.09 C82.997,33.09 85.613,34.066 87.519,36.019 C89.424,37.973 90.377,40.667 90.377,44.104 C90.377,44.69 90.34,45.462 90.267,46.419 L90.191,47.376 L90.191,47.376 Z" id="path-1" sketch:type="MSShapeGroup"></path>
            </g>
        </g>
    </g>
</svg>