<svg xmlns="http://www.w3.org/2000/svg" width="22" height="19" viewBox="0 0 22 19">
  <defs>
    <style>
      .cls-1 {
        fill: #fff;
        fill-rule: evenodd;
      }
    </style>
  </defs>
  <path class="cls-1" d="M11,7.169a3.452,3.452,0,0,1,3.515,3.385A3.452,3.452,0,0,1,11,13.939a3.452,3.452,0,0,1-3.515-3.385A3.452,3.452,0,0,1,11,7.169ZM7.7-.025L5.692,2.091H2.21a2.164,2.164,0,0,0-2.2,2.116V16.9a2.164,2.164,0,0,0,2.2,2.116H19.784a2.164,2.164,0,0,0,2.2-2.116V4.207a2.164,2.164,0,0,0-2.2-2.116H16.3L14.292-.025H7.7ZM11,15.843a5.4,5.4,0,0,1-5.492-5.289A5.4,5.4,0,0,1,11,5.264a5.4,5.4,0,0,1,5.491,5.289A5.4,5.4,0,0,1,11,15.843Z"/>
</svg>
