<?xml version="1.0" encoding="utf-8"?>
<!-- Generator: Adobe Illustrator 20.0.0, SVG Export Plug-In . SVG Version: 6.00 Build 0)  -->
<svg version="1.1" id="Layer_1" xmlns:sketch="http://www.bohemiancoding.com/sketch/ns"
	 xmlns="http://www.w3.org/2000/svg" xmlns:xlink="http://www.w3.org/1999/xlink" x="0px" y="0px" viewBox="0 0 158 139"
	 style="enable-background:new 0 0 158 139;" xml:space="preserve">
<style type="text/css">
	.st0{fill:#FCFAFA;}
</style>
<title>icon-warning</title>
<desc>Created with Sketch.</desc>
<g id="Page-1" sketch:type="MSPage">
	<g id="Mobile-Portrait" transform="translate(-17408.000000, -7674.000000)" sketch:type="MSArtboardGroup">
		<g id="icon-warning" transform="translate(17407.000000, 7673.000000)" sketch:type="MSLayerGroup">
			<path id="path-1" sketch:type="MSShapeGroup" class="st0" d="M86.8,6c-3.9-6.7-10.3-6.7-14.2,0l-70,121
				c-3.9,6.7-0.7,12.2,7.1,12.2h140c7.8,0,11-5.5,7.1-12.2L86.8,6L86.8,6z M86.4,122.1c-1.9,2-4.1,3-6.7,3c-2.6,0-4.8-1-6.7-3
				c-1.9-2-2.9-4.4-2.9-7.1c0-2.7,0.9-5,2.8-7.1c1.9-2,4.1-3,6.7-3c2.7,0,4.9,1,6.8,2.9c1.8,2,2.8,4.3,2.8,7.1
				C89.2,117.8,88.3,120.1,86.4,122.1L86.4,122.1z M90.2,47.4c-0.1,1.2-1,8.6-1.9,16.3l-2.2,18.2c-0.9,7.7-3.8,14-6.4,14
				s-5.5-6.3-6.4-14l-2.1-18.1c-0.9-7.7-1.7-15-1.9-16.3c0,0,0,0-0.1-1c-0.1-1-0.1-1.7-0.1-2.3c0-3.4,0.9-6.1,2.8-8.1
				c1.9-2,4.4-2.9,7.7-2.9c3.3,0,5.9,1,7.9,2.9c1.9,2,2.9,4.6,2.9,8.1c0,0.6,0,1.4-0.1,2.3L90.2,47.4L90.2,47.4z"/>
		</g>
	</g>
</g>
</svg>
