<svg xmlns="http://www.w3.org/2000/svg" xmlns:xlink="http://www.w3.org/1999/xlink" preserveAspectRatio="xMidYMid" width="24" height="22" viewBox="0 0 158 138">
  <defs>
    <style>

      .cls-2 {
        fill: #f36d21;
      }
    </style>
  </defs>
  <path d="M85.836,5.047 C81.938,-1.689 75.561,-1.689 71.664,5.047 C71.664,5.047 1.649,126.066 1.649,126.066 C-2.248,132.803 0.951,138.315 8.759,138.315 C8.759,138.315 148.740,138.315 148.740,138.315 C156.548,138.315 159.747,132.803 155.850,126.066 C155.850,126.066 85.836,5.047 85.836,5.047 ZM85.409,121.116 C83.540,123.088 81.293,124.074 78.666,124.074 C76.114,124.074 73.884,123.078 71.979,121.086 C70.073,119.094 69.121,116.731 69.121,113.997 C69.121,111.302 70.064,108.950 71.952,106.936 C73.838,104.925 76.076,103.919 78.666,103.919 C81.331,103.919 83.586,104.896 85.437,106.849 C87.286,108.802 88.212,111.184 88.212,113.997 C88.212,116.771 87.277,119.144 85.409,121.116 ZM89.191,46.376 C89.050,47.605 88.183,54.928 87.265,62.648 C87.265,62.648 85.107,80.801 85.107,80.801 C84.190,88.522 81.291,94.838 78.666,94.838 C76.041,94.838 73.165,88.519 72.275,80.795 C72.275,80.795 70.184,62.654 70.184,62.654 C69.294,54.930 68.449,47.605 68.307,46.376 C68.307,46.376 68.307,46.376 68.233,45.419 C68.158,44.462 68.122,43.690 68.122,43.104 C68.122,39.667 69.056,36.973 70.924,35.019 C72.792,33.066 75.373,32.090 78.666,32.090 C81.997,32.090 84.613,33.066 86.519,35.019 C88.424,36.973 89.377,39.667 89.377,43.104 C89.377,43.690 89.340,44.462 89.267,45.419 C89.191,46.376 89.191,46.376 89.191,46.376 Z" id="path-1" class="cls-2" fill-rule="evenodd"/>
</svg>
