<?xml version="1.0" encoding="utf-8"?>
<!-- Generator: Adobe Illustrator 20.1.0, SVG Export Plug-In . SVG Version: 6.00 Build 0)  -->
<svg version="1.1" id="Layer_1" xmlns="http://www.w3.org/2000/svg" xmlns:xlink="http://www.w3.org/1999/xlink" x="0px" y="0px"
	 viewBox="0 0 28 24" style="enable-background:new 0 0 28 24;" xml:space="preserve">
<style type="text/css">
	.st0{fill:#FFFFFF;}
	.st1{fill:none;}
</style>
<circle class="st0" cx="14" cy="12" r="3.2"/>
<path class="st0" d="M11,2L9.2,4H6C4.9,4,4,4.9,4,6v12c0,1.1,0.9,2,2,2h16c1.1,0,2-0.9,2-2V6c0-1.1-0.9-2-2-2h-3.2L17,2H11z M14,17
	c-2.8,0-5-2.2-5-5s2.2-5,5-5s5,2.2,5,5S16.8,17,14,17z"/>
<path class="st1" d="M2,0h24v24H2V0z"/>
</svg>
