<?xml version="1.0" encoding="UTF-8" standalone="no"?>
<svg width="40px" height="40px" viewBox="0 0 40 40" version="1.1" xmlns="http://www.w3.org/2000/svg" xmlns:xlink="http://www.w3.org/1999/xlink">
    <!-- Generator: Sketch 42 (36781) - http://www.bohemiancoding.com/sketch -->
    <title>Group 8</title>
    <desc>Created with Sketch.</desc>
    <defs>
        <polygon id="path-1" points="4.47093885e-06 -5.68434189e-14 40 -3.64770602e-14 40 36.0183147 4.47093885e-06 36.0183147 4.47093885e-06 -2.9688274e-14"></polygon>
    </defs>
    <g id="Page-1" stroke="none" stroke-width="1" fill="none" fill-rule="evenodd">
        <g id="jaxx-new-icons" transform="translate(-1025.000000, -391.000000)">
            <g id="Group-8" transform="translate(1025.000000, 391.000000)">
                <g id="Page-1">
                    <g id="Group-3">
                        <mask id="mask-2" fill="white">
                            <use xlink:href="#path-1"></use>
                        </mask>
                        <g id="Clip-2"></g>
                        <path d="M39.8743562,17.8128756 C39.811152,17.2495262 39.1557571,16.8259094 38.5890358,16.8259094 C36.756532,16.8259094 35.1304218,15.7487292 34.4481416,14.0812383 C33.7520611,12.3737087 34.2011222,10.3830861 35.566383,9.12828422 C35.9965022,8.7345398 36.048842,8.07510931 35.6884545,7.61730584 C34.7504069,6.42435352 33.6845201,5.34642683 32.5204963,4.41242772 C32.0649225,4.04651038 31.395772,4.0974471 31.0004814,4.53563427 C29.8088718,5.85809305 27.6675753,6.3493816 26.0131341,5.65795891 C24.2918674,4.9322898 23.2055633,3.18475125 23.312389,1.30910954 C23.3472623,0.719545365 22.9171282,0.204400758 22.3307645,0.135982531 C21.5867109,0.0496946524 20.8394382,-2.98573974e-06 20.0915991,-2.98573974e-06 L20.0697958,-2.98573974e-06 C19.3233875,-2.98573974e-06 18.5764277,0.0413644385 17.8316885,0.124144073 C17.2525827,0.188352406 16.8224486,0.689792469 16.8420462,1.27204158 C16.9067407,3.1294852 15.8080969,4.84719621 14.1035365,5.54662068 C12.4687079,6.21551595 10.3426721,5.72819844 9.15325335,4.41735419 C8.76016841,3.98578044 8.10258271,3.93282834 7.64413264,4.29087825 C6.44595082,5.23272986 5.35605514,6.3114627 4.40931893,7.49495022 C4.04019821,7.95494822 4.09469896,8.62167883 4.52848435,9.01687135 C5.92064531,10.27969 6.3696617,12.2878239 5.64671088,14.0149698 C4.95644262,15.6621129 3.2496617,16.7225581 1.29589121,16.7225581 C0.661554396,16.7021655 0.206889717,17.1286784 0.137157973,17.7066131 C0.0495722802,18.4562726 4.47093885e-06,19.2130681 4.47093885e-06,19.9714758 L4.47093885e-06,19.9894649 C4.47093885e-06,20.747171 0.044147541,21.5062954 0.128454545,22.2614337 C0.191643815,22.8269478 0.868365127,23.2469219 1.44165872,23.2469219 C3.18329806,23.202524 4.85529508,24.2819137 5.55717288,25.991608 C6.25620417,27.6990928 5.8068301,29.6890137 4.43939344,30.9452637 C4.01146498,31.3390679 3.95718778,31.9969906 4.31829061,32.4540924 C5.24687481,33.6397296 6.31361103,34.7184028 7.48125633,35.6602096 C7.93972131,36.0299487 8.60608495,35.9782804 9.00350671,35.5394364 C10.200228,34.2139919 12.3377988,33.7234348 13.9856826,34.4163355 C14.5796319,34.6652267 15.0968748,35.0355928 15.5141624,35.4904404 L15.5141624,29.3956797 C12.0417332,27.7212172 9.63949776,24.1599611 9.63949776,20.036759 C9.63949776,14.3047508 14.279766,9.65804403 20.0019419,9.65804403 C25.7241475,9.65804403 30.3666215,14.3047508 30.3666215,20.036759 C30.3666215,24.1626782 27.9582757,27.7258749 24.4858465,29.3989491 L24.4858465,35.4719587 C24.8733279,35.0732878 25.3632981,34.7490812 25.9035067,34.5275393 C27.5492444,33.8544342 29.6643264,34.3472156 30.8545052,35.6558504 C31.2497511,36.0867374 31.9022101,36.1391521 32.3628659,35.7825055 C33.558842,34.8428484 34.6461595,33.7649217 35.5972623,32.578538 C35.9663681,32.1192865 35.9138793,31.4518393 35.4779329,31.0558854 C34.0857869,29.7938132 33.6344754,27.7850075 34.3574113,26.0592648 C35.0367854,24.4347388 36.6803174,23.3437196 38.448082,23.3437196 L38.6951311,23.3502733 C39.2691103,23.3968508 39.7966066,22.9543344 39.8656528,22.3676813 C40.042225,20.8617787 40.0443711,19.329706 39.8743562,17.8128756" id="Fill-1" fill="#E1E1E1" mask="url(#mask-2)"></path>
                    </g>
                    <path d="M20,13.243913 L12.6194486,23.169333 L16.6915052,23.169333 L16.6915052,38.3483711 C16.6915052,38.935681 17.1631744,39.4117572 17.7494635,39.4117572 L22.2292996,39.4117572 C22.8155887,39.4117572 23.2935917,38.935681 23.2935917,38.3483711 L23.2935917,23.169333 L27.3805514,23.169333 L20,13.243913 Z" id="Fill-4" fill="#E1E1E1"></path>
                </g>
            </g>
        </g>
    </g>
</svg>