<?xml version="1.0" encoding="utf-8"?>
<!-- Generator: Adobe Illustrator 19.1.0, SVG Export Plug-In . SVG Version: 6.00 Build 0)  -->
<svg version="1.1" id="Layer_1" xmlns="http://www.w3.org/2000/svg" xmlns:xlink="http://www.w3.org/1999/xlink" x="0px" y="0px"
	 viewBox="-23 50 80 30" style="enable-background:new -23 50 80 30;" xml:space="preserve">
<style type="text/css">
	.st0{fill:#F27221;}
	.st1{fill:#FFFFFF;}
	.st2{font-family:'AvenirNext-Regular';}
	.st3{font-size:4.3886px;}
	.st4{font-size:7.6657px;}
</style>
<g>
	<polygon class="st0" points="32,55.8 28.8,53.4 24.3,59.1 19.9,53.4 16.7,55.8 21.8,62.4 17,68.7 20.2,71.1 24.3,65.7 28.5,71.1 
		31.7,68.7 26.9,62.4 	"/>
	<polygon class="st0" points="48.8,55.8 45.6,53.4 41.2,59.1 36.7,53.4 33.6,55.8 38.6,62.4 33.8,68.7 37,71.1 41.2,65.7 45.3,71.1 
		48.5,68.7 43.7,62.4 	"/>
	<path class="st0" d="M-6.1,50H-10v15.9l0,0c0,0.3,0,4.6-5,5v3.9c0,0,8.9-0.5,8.8-8.8l0,0L-6.1,50L-6.1,50z"/>
	<path class="st0" d="M5.6,53.4L5.6,53.4c-4.9,0-8.8,4-8.8,8.8l0,0c0,4.9,4,8.8,8.8,8.8l0,0c0.9,0,1.7-0.1,2.5-0.4v-4.2
		c-0.7,0.4-1.6,0.7-2.5,0.7l0,0c-2.7,0-5-2.2-5-5l0,0c0-2.7,2.2-5,5-5l0,0c2.7,0,4.9,2.2,5,4.9l0,0v8.8h3.9v-8.5c0-0.1,0-0.1,0-0.2
		l0,0C14.4,57.4,10.5,53.4,5.6,53.4z"/>
</g>
<g transform="matrix( 1, 0, 0, 1, 699.35,1342.25) ">
	<g transform="matrix( 1.75, 0, 0, 1.75, 426.2,7.7) ">
		<g>
			<defs>
				<rect id="SVGID_1_" x="-617.3" y="-732.2" width="3.4" height="6.7"/>
			</defs>
			<clipPath id="SVGID_2_">
				<use xlink:href="#SVGID_1_"  style="overflow:visible;"/>
			</clipPath>
			<text transform="matrix(0.5714 0 0 0.5714 -616.3339 -728.0901)" class="st1 st2 st3">®</text>
		</g>
	</g>
	<g transform="matrix( 1.0189208984375, 0, 0, 1.0189208984375, 2.05,2.05) ">
		<g>
			<defs>
				<rect id="SVGID_3_" x="-686.4" y="-1250.1" width="44.9" height="10.9"/>
			</defs>
			<clipPath id="SVGID_4_">
				<use xlink:href="#SVGID_3_"  style="overflow:visible;"/>
			</clipPath>
			<text transform="matrix(0.9814 0 0 0.9814 -685.78 -1242.3153)" class="st1 st2 st4">by Decentral</text>
		</g>
	</g>
</g>
</svg>
