<?xml version="1.0" encoding="utf-8"?>
<!-- Generator: Adobe Illustrator 21.0.0, SVG Export Plug-In . SVG Version: 6.00 Build 0)  -->
<svg version="1.1" id="Layer_1" xmlns="http://www.w3.org/2000/svg" xmlns:xlink="http://www.w3.org/1999/xlink" x="0px" y="0px"
	 viewBox="0 0 1050 730" style="enable-background:new 0 0 1050 730;" xml:space="preserve">
<style type="text/css">
	.st0{fill:#FFFFFF;}
	.st1{fill:#F17221;}
	.st2{fill:none;stroke:#979797;stroke-width:0.4306;}
	.st3{enable-background:new    ;}
	.st4{fill:none;stroke:url(#Combined-Shape-Copy_1_);stroke-width:2;}
	.st5{fill:url(#Shape_9_);}
	.st6{fill:url(#Shape_10_);}
	.st7{fill:url(#Shape_11_);}
	.st8{fill:url(#Shape_12_);}
	.st9{fill:url(#Shape_13_);}
	.st10{fill:url(#Shape_14_);}
	.st11{fill:url(#Shape_15_);}
	.st12{fill:url(#Shape_16_);}
	.st13{fill:#171A20;}
</style>
<g>
	<polygon id="path-11" class="st0" points="439,251.3 461.5,251.3 461.5,188.2 439,188.2 	"/>
</g>
<title>newest desktop splash copy 2</title>
<desc>Created with Sketch.</desc>
<g id="Page-1_1_">
	<g id="newest-desktop-splash-copy-2">
		<g id="Rectangle-2-Copy">
			<g>
				<rect id="path-1" x="-1" class="st1" width="1051" height="730"/>
			</g>
			<rect x="-0.7" y="0.2" class="st2" width="1050.5" height="729.6"/>
		</g>
		<g class="st3">
			<path class="st0" d="M453.6,604.5l0.8-1c0.7,0.8,1.8,1.5,3.3,1.5c1.9,0,2.5-1,2.5-1.9c0-2.8-6.3-1.2-6.3-5c0-1.8,1.6-3,3.7-3
				c1.6,0,2.9,0.6,3.8,1.5l-0.8,1c-0.8-0.9-1.9-1.3-3.1-1.3c-1.3,0-2.2,0.7-2.2,1.7c0,2.4,6.3,1,6.3,5c0,1.5-1.1,3.1-3.9,3.1
				C455.9,606.2,454.5,605.5,453.6,604.5z"/>
			<path class="st0" d="M468.8,606v-5.1c0-1.4-0.7-1.8-1.7-1.8c-0.9,0-1.8,0.6-2.3,1.2v5.7h-1.2v-10.7h1.2v4.1
				c0.5-0.7,1.6-1.3,2.8-1.3c1.6,0,2.5,0.8,2.5,2.5v5.5H468.8z"/>
			<path class="st0" d="M477.2,606v-0.9c-0.6,0.7-1.5,1.1-2.6,1.1c-1.3,0-2.7-0.9-2.7-2.6c0-1.7,1.4-2.5,2.7-2.5
				c1.1,0,1.9,0.3,2.6,1v-1.4c0-1-0.8-1.6-2-1.6c-0.9,0-1.7,0.3-2.4,1.1l-0.6-0.8c0.8-0.9,1.8-1.3,3.1-1.3c1.6,0,3,0.7,3,2.6v5.3
				H477.2z M477.2,604.4v-1.5c-0.5-0.6-1.3-0.9-2.1-0.9c-1.1,0-1.9,0.7-1.9,1.7c0,1,0.8,1.7,1.9,1.7
				C476,605.3,476.8,605,477.2,604.4z"/>
			<path class="st0" d="M482.1,604.8v4.1h-1.2v-10.7h1.2v1.2c0.6-0.8,1.5-1.3,2.6-1.3c2,0,3.4,1.5,3.4,4c0,2.5-1.4,4.1-3.4,4.1
				C483.6,606.2,482.7,605.7,482.1,604.8z M486.8,602.1c0-1.7-0.9-3-2.5-3c-0.9,0-1.9,0.6-2.3,1.2v3.5c0.4,0.7,1.4,1.2,2.3,1.2
				C485.9,605.1,486.8,603.8,486.8,602.1z"/>
			<path class="st0" d="M489.6,602.1c0-2.2,1.6-4,3.8-4c2.3,0,3.7,1.8,3.7,4.1v0.3h-6.2c0.1,1.5,1.1,2.7,2.8,2.7
				c0.9,0,1.8-0.4,2.4-1l0.6,0.8c-0.8,0.8-1.8,1.2-3.1,1.2C491.2,606.2,489.6,604.5,489.6,602.1z M493.4,599.1
				c-1.6,0-2.5,1.4-2.5,2.6h5.1C495.9,600.5,495.1,599.1,493.4,599.1z"/>
			<path class="st0" d="M498.4,604.5l0.8-1c0.7,0.8,1.8,1.5,3.3,1.5c1.9,0,2.5-1,2.5-1.9c0-2.8-6.3-1.2-6.3-5c0-1.8,1.6-3,3.7-3
				c1.6,0,2.9,0.6,3.8,1.5l-0.8,1c-0.8-0.9-1.9-1.3-3.1-1.3c-1.3,0-2.2,0.7-2.2,1.7c0,2.4,6.3,1,6.3,5c0,1.5-1.1,3.1-3.9,3.1
				C500.7,606.2,499.3,605.5,498.4,604.5z"/>
			<path class="st0" d="M513.6,606v-5.1c0-1.4-0.7-1.8-1.7-1.8c-0.9,0-1.8,0.6-2.3,1.2v5.7h-1.2v-10.7h1.2v4.1
				c0.5-0.7,1.6-1.3,2.8-1.3c1.6,0,2.5,0.8,2.5,2.5v5.5H513.6z"/>
			<path class="st0" d="M517,596.4c0-0.4,0.4-0.8,0.8-0.8s0.8,0.4,0.8,0.8s-0.4,0.8-0.8,0.8S517,596.8,517,596.4z M517.2,606v-7.7
				h1.2v7.7H517.2z"/>
			<path class="st0" d="M521.2,606v-6.7h-1.3v-1.1h1.3v-0.6c0-1.6,0.9-2.5,2.2-2.5c0.6,0,1.2,0.1,1.6,0.6l-0.5,0.8
				c-0.3-0.2-0.6-0.4-0.9-0.4c-0.8,0-1.2,0.5-1.2,1.5v0.6h1.6v1.1h-1.6v6.7H521.2z"/>
			<path class="st0" d="M525.6,604.4v-5.1h-1.3v-1.1h1.3v-2.1h1.2v2.1h1.6v1.1h-1.6v4.8c0,0.6,0.3,1,0.8,1c0.4,0,0.7-0.2,0.8-0.3
				l0.4,0.9c-0.3,0.3-0.7,0.5-1.4,0.5C526.2,606.2,525.6,605.5,525.6,604.4z"/>
			<path class="st0" d="M533.8,600.7c0-3.2,2.1-5.5,5.3-5.5c3.2,0,5.3,2.4,5.3,5.5s-2.2,5.5-5.3,5.5
				C536,606.2,533.8,603.8,533.8,600.7z M543.1,600.7c0-2.5-1.6-4.3-3.9-4.3c-2.4,0-3.9,1.8-3.9,4.3c0,2.5,1.5,4.3,3.9,4.3
				C541.5,605,543.1,603.2,543.1,600.7z"/>
			<path class="st0" d="M551.7,606v-5.1c0-1.4-0.7-1.8-1.7-1.8c-0.9,0-1.8,0.6-2.3,1.2v5.7h-1.2v-7.7h1.2v1.1
				c0.5-0.7,1.6-1.3,2.8-1.3c1.6,0,2.4,0.8,2.4,2.5v5.4H551.7z"/>
			<path class="st0" d="M555.3,606v-10.7h1.2v4.1c0.6-0.8,1.6-1.4,2.6-1.4c2,0,3.4,1.6,3.4,4.1c0,2.5-1.4,4-3.4,4
				c-1.1,0-2-0.6-2.6-1.3v1.2H555.3z M558.8,605.1c1.6,0,2.5-1.3,2.5-3s-0.9-3-2.5-3c-1,0-1.9,0.6-2.3,1.2v3.5
				C556.9,604.6,557.8,605.1,558.8,605.1z"/>
			<path class="st0" d="M564,602.1c0-2.2,1.5-4,3.8-4c2.4,0,3.8,1.8,3.8,4c0,2.2-1.5,4.1-3.8,4.1C565.5,606.2,564,604.4,564,602.1z
				 M570.4,602.1c0-1.6-0.9-3-2.6-3c-1.6,0-2.6,1.4-2.6,3c0,1.6,0.9,3,2.6,3C569.5,605.1,570.4,603.7,570.4,602.1z"/>
			<path class="st0" d="M578.5,606v-0.9c-0.6,0.7-1.5,1.1-2.6,1.1c-1.3,0-2.7-0.9-2.7-2.6c0-1.7,1.4-2.5,2.7-2.5
				c1.1,0,1.9,0.3,2.6,1v-1.4c0-1-0.8-1.6-2-1.6c-0.9,0-1.7,0.3-2.4,1.1l-0.6-0.8c0.8-0.9,1.8-1.3,3.1-1.3c1.6,0,3,0.7,3,2.6v5.3
				H578.5z M578.5,604.4v-1.5c-0.5-0.6-1.3-0.9-2.1-0.9c-1.1,0-1.9,0.7-1.9,1.7c0,1,0.8,1.7,1.9,1.7
				C577.2,605.3,578,605,578.5,604.4z"/>
			<path class="st0" d="M582.1,606v-7.7h1.2v1.2c0.6-0.8,1.5-1.4,2.6-1.4v1.2c-0.1,0-0.3,0-0.5,0c-0.8,0-1.8,0.6-2.1,1.2v5.5H582.1z
				"/>
			<path class="st0" d="M593,606v-1.2c-0.6,0.8-1.5,1.3-2.6,1.3c-2,0-3.4-1.5-3.4-4c0-2.5,1.4-4.1,3.4-4.1c1,0,2,0.5,2.6,1.4v-4.1
				h1.2V606H593z M593,603.9v-3.5c-0.4-0.7-1.4-1.2-2.3-1.2c-1.6,0-2.5,1.3-2.5,3s0.9,3,2.5,3C591.6,605.1,592.6,604.6,593,603.9z"
				/>
		</g>
		
			<radialGradient id="Combined-Shape-Copy_1_" cx="-313.3282" cy="0.3356" r="0.3714" gradientTransform="matrix(1239.6448 849.5208 -849.5206 1239.6449 389231.7812 266095.3438)" gradientUnits="userSpaceOnUse">
			<stop  offset="0" style="stop-color:#FFFFFF;stop-opacity:0"/>
			<stop  offset="0.6883" style="stop-color:#FFFFFF;stop-opacity:0.6962"/>
			<stop  offset="1" style="stop-color:#FFFFFF;stop-opacity:0"/>
		</radialGradient>
		<path id="Combined-Shape-Copy" class="st4" d="M182.4,137.4c-4.7-4.7-4.7-12.3,0-17.1L218,84.7l48.2-48.2c4.7-4.7,12.4-4.7,17.1,0
			l84.1,84.1c4.7,4.7,4.7,12.3,0,17.1l-83.7,83.7c-4.7,4.7-12.3,4.7-17.1,0L182.4,137.4z M304.2,256.8c-4.7-4.7-4.7-12.3,0-17.1
			l83.7-83.7c4.7-4.7,12.3-4.7,17.1,0l84.1,84.1c4.7,4.7,4.7,12.3,0,17.1l-83.7,83.7c-4.7,4.7-12.3,4.7-17.1,0L304.2,256.8z
			 M425.1,376.3c-4.7-4.7-4.7-12.3,0-17.1l83.7-83.7c4.7-4.7,12.3-4.7,17.1,0l84.1,84.1c4.7,4.7,4.7,12.3,0,17.1l-83.7,83.7
			c-4.7,4.7-12.3,4.7-17.1,0L425.1,376.3z M545.9,495.6c-4.7-4.7-4.7-12.3,0-17.1l83.7-83.7c4.7-4.7,12.3-4.7,17.1,0l84.1,84.1
			c4.7,4.7,4.7,12.3,0,17.1l-83.7,83.7c-4.7,4.7-12.3,4.7-17.1,0L545.9,495.6z M303,17.8c-4.7-4.7-4.7-12.3,0-17.1L386.7-83
			c4.7-4.7,12.3-4.7,17.1,0l84.1,84.1c4.7,4.7,4.7,12.3,0,17.1l-83.7,83.7c-4.7,4.7-12.3,4.7-17.1,0L303,17.8z M249.3,5.1
			c4.7,4.7,4.7,12.3,0,17.1l-83.7,83.7c-4.7,4.7-12.3,4.7-17.1,0L64.4,21.7c-4.7-4.7-4.7-12.3,0-17.1L148.1-79
			c4.7-4.7,12.3-4.7,17.1,0L249.3,5.1z M370.2-116.6c4.7,4.7,4.7,12.3,0,17.1l-83.7,83.7c-4.7,4.7-12.3,4.7-17.1,0l-84.1-84.1
			c-4.7-4.7-4.7-12.3,0-17.1l83.7-83.7c4.7-4.7,12.3-4.7,17.1,0L370.2-116.6z M491.4-240.1c4.7,4.7,4.7,12.3,0,17.1l-83.7,83.7
			c-4.7,4.7-12.3,4.7-17.1,0l-84.1-84.1c-4.7-4.7-4.7-12.3,0-17.1l83.7-83.7c4.7-4.7,12.3-4.7,17.1,0L491.4-240.1z M128.9,120.7
			c4.7,4.7,4.7,12.3,0,17.1l-83.7,83.7c-4.7,4.7-12.3,4.7-17.1,0L-56,137.4c-4.7-4.7-4.7-12.3,0-17.1l83.7-83.7
			c4.7-4.7,12.3-4.7,17.1,0L128.9,120.7z M12.3,241c4.7,4.7,4.7,12.3,0,17.1l-83.7,83.7c-4.7,4.7-12.3,4.7-17.1,0l-84.1-84.1
			c-4.7-4.7-4.7-12.3,0-17.1l83.7-83.7c4.7-4.7,12.3-4.7,17.1,0L12.3,241z M424.1,135.9c-4.7-4.7-4.7-12.3,0-17.1l83.7-83.7
			c4.7-4.7,12.3-4.7,17.1,0l84.1,84.1c4.7,4.7,4.7,12.3,0,17.1L525.2,220c-4.7,4.7-12.3,4.7-17.1,0L424.1,135.9z M545.8,255.6
			c-4.7-4.7-4.7-12.3,0-17.1l83.7-83.7c4.7-4.7,12.3-4.7,17.1,0l84.1,84.1c4.7,4.7,4.7,12.3,0,17.1L647,339.7
			c-4.7,4.7-12.3,4.7-17.1,0L545.8,255.6z M666.6,375.5c-4.7-4.7-4.7-12.3,0-17.1l83.7-83.7c4.7-4.7,12.3-4.7,17.1,0l84.1,84.1
			c4.7,4.7,4.7,12.3,0,17.1l-83.7,83.7c-4.7,4.7-12.3,4.7-17.1,0L666.6,375.5z M424.6-99.9c-4.7-4.7-4.7-12.3,0-17.1l83.7-83.7
			c4.7-4.7,12.3-4.7,17.1,0l84.1,84.1c4.7,4.7,4.7,12.3,0,17.1l-83.7,83.7c-4.7,4.7-12.3,4.7-17.1,0L424.6-99.9z M544.2-218
			c-4.7-4.7-4.7-12.3,0-17.1l83.7-83.7c4.7-4.7,12.3-4.7,17.1,0l84.1,84.1c4.7,4.7,4.7,12.3,0,17.1l-83.7,83.7
			c-4.7,4.7-12.3,4.7-17.1,0L544.2-218z M545.8,732.1c-4.7-4.7-4.7-12.3,0-17.1l83.7-83.7c4.7-4.7,12.3-4.7,17.1,0l84.1,84.1
			c4.7,4.7,4.7,12.3,0,17.1L647,816.2c-4.7,4.7-12.3,4.7-17.1,0L545.8,732.1z M545.9,18.5c-4.7-4.7-4.7-12.3,0-17.1l83.7-83.7
			c4.7-4.7,12.3-4.7,17.1,0l84.1,84.1c4.7,4.7,4.7,12.3,0,17.1l-83.7,83.7c-4.7,4.7-12.3,4.7-17.1,0L545.9,18.5z M666.7,137.7
			c-4.7-4.7-4.7-12.3,0-17.1L750.4,37c4.7-4.7,12.3-4.7,17.1,0l84.1,84.1c4.7,4.7,4.7,12.3,0,17.1l-83.7,83.7
			c-4.7,4.7-12.3,4.7-17.1,0L666.7,137.7z M787.5,257c-4.7-4.7-4.7-12.3,0-17.1l83.7-83.7c4.7-4.7,12.3-4.7,17.1,0l84.1,84.1
			c4.7,4.7,4.7,12.3,0,17.1l-83.7,83.7c-4.7,4.7-12.3,4.7-17.1,0L787.5,257z M666.7,617.1c-4.7-4.7-4.7-12.3,0-17.1l83.7-83.7
			c4.7-4.7,12.3-4.7,17.1,0l84.1,84.1c4.7,4.7,4.7,12.3,0,17.1l-83.7,83.7c-4.7,4.7-12.3,4.7-17.1,0L666.7,617.1z M788.5,736.5
			c-4.7-4.7-4.7-12.3,0-17.1l83.7-83.7c4.7-4.7,12.3-4.7,17.1,0l84.1,84.1c4.7,4.7,4.7,12.3,0,17.1l-83.7,83.7
			c-4.7,4.7-12.3,4.7-17.1,0L788.5,736.5z M909.4,856c-4.7-4.7-4.7-12.3,0-17.1l83.7-83.7c4.7-4.7,12.3-4.7,17.1,0l84.1,84.1
			c4.7,4.7,4.7,12.3,0,17.1l-83.7,83.7c-4.7,4.7-12.3,4.7-17.1,0L909.4,856z M1030.2,975.3c-4.7-4.7-4.7-12.3,0-17.1l83.7-83.7
			c4.7-4.7,12.3-4.7,17.1,0l84.1,84.1c4.7,4.7,4.7,12.3,0,17.1l-83.7,83.7c-4.7,4.7-12.3,4.7-17.1,0L1030.2,975.3z M787.1,497.4
			c-4.7-4.7-4.7-12.3,0-17.1l83.7-83.7c4.7-4.7,12.3-4.7,17.1,0l84.1,84.1c4.7,4.7,4.7,12.3,0,17.1l-83.7,83.7
			c-4.7,4.7-12.3,4.7-17.1,0L787.1,497.4z M908.3,615.6c-4.7-4.7-4.7-12.3,0-17.1l83.7-83.7c4.7-4.7,12.3-4.7,17.1,0l84.1,84.1
			c4.7,4.7,4.7,12.3,0,17.1l-83.7,83.7c-4.7,4.7-12.3,4.7-17.1,0L908.3,615.6z M1030.1,735.3c-4.7-4.7-4.7-12.3,0-17.1l83.7-83.7
			c4.7-4.7,12.3-4.7,17.1,0l84.1,84.1c4.7,4.7,4.7,12.3,0,17.1l-83.7,83.7c-4.7,4.7-12.3,4.7-17.1,0L1030.1,735.3z M1150.9,855.2
			c-4.7-4.7-4.7-12.3,0-17.1l83.7-83.7c4.7-4.7,12.3-4.7,17.1,0l84.1,84.1c4.7,4.7,4.7,12.3,0,17.1l-83.7,83.7
			c-4.7,4.7-12.3,4.7-17.1,0L1150.9,855.2z M909.1,379.5c-4.7-4.7-4.7-12.3,0-17.1l83.7-83.7c4.7-4.7,12.3-4.7,17.1,0l84.1,84.1
			c4.7,4.7,4.7,12.3,0,17.1l-83.7,83.7c-4.7,4.7-12.3,4.7-17.1,0L909.1,379.5z M1030.2,498.2c-4.7-4.7-4.7-12.3,0-17.1l83.7-83.7
			c4.7-4.7,12.3-4.7,17.1,0l84.1,84.1c4.7,4.7,4.7,12.3,0,17.1l-83.7,83.7c-4.7,4.7-12.3,4.7-17.1,0L1030.2,498.2z M1151,617.5
			c-4.7-4.7-4.7-12.3,0-17.1l83.7-83.7c4.7-4.7,12.3-4.7,17.1,0l84.1,84.1c4.7,4.7,4.7,12.3,0,17.1l-83.7,83.7
			c-4.7,4.7-12.3,4.7-17.1,0L1151,617.5z M1271.8,736.7c-4.7-4.7-4.7-12.3,0-17.1l83.7-83.7c4.7-4.7,12.3-4.7,17.1,0l84.1,84.1
			c4.7,4.7,4.7,12.3,0,17.1l-83.7,83.7c-4.7,4.7-12.3,4.7-17.1,0L1271.8,736.7z M666-97.9c-4.7-4.7-4.7-12.3,0-17.1l83.7-83.7
			c4.7-4.7,12.3-4.7,17.1,0l84.1,84.1c4.7,4.7,4.7,12.3,0,17.1l-83.7,83.7c-4.7,4.7-12.3,4.7-17.1,0L666-97.9z M787.8,21.5
			c-4.7-4.7-4.7-12.3,0-17.1l83.7-83.7c4.7-4.7,12.3-4.7,17.1,0l84.1,84.1c4.7,4.7,4.7,12.3,0,17.1L889,105.6
			c-4.7,4.7-12.3,4.7-17.1,0L787.8,21.5z M908.8,141c-4.7-4.7-4.7-12.3,0-17.1l83.7-83.7c4.7-4.7,12.3-4.7,17.1,0l84.1,84.1
			c4.7,4.7,4.7,12.3,0,17.1l-83.7,83.7c-4.7,4.7-12.3,4.7-17.1,0L908.8,141z M1029.6,260.3c-4.7-4.7-4.7-12.3,0-17.1l83.7-83.7
			c4.7-4.7,12.3-4.7,17.1,0l84.1,84.1c4.7,4.7,4.7,12.3,0,17.1l-83.7,83.7c-4.7,4.7-12.3,4.7-17.1,0L1029.6,260.3z M786.4-217.6
			c-4.7-4.7-4.7-12.3,0-17.1l83.7-83.7c4.7-4.7,12.3-4.7,17.1,0l84.1,84.1c4.7,4.7,4.7,12.3,0,17.1l-83.7,83.7
			c-4.7,4.7-12.3,4.7-17.1,0L786.4-217.6z M907.7-99.4c-4.7-4.7-4.7-12.3,0-17.1l83.7-83.7c4.7-4.7,12.3-4.7,17.1,0l84.1,84.1
			c4.7,4.7,4.7,12.3,0,17.1l-83.7,83.7c-4.7,4.7-12.3,4.7-17.1,0L907.7-99.4z M1029.4,20.3c-4.7-4.7-4.7-12.3,0-17.1l83.7-83.7
			c4.7-4.7,12.3-4.7,17.1,0l84.1,84.1c4.7,4.7,4.7,12.3,0,17.1l-83.7,83.7c-4.7,4.7-12.3,4.7-17.1,0L1029.4,20.3z M1150.2,140.2
			c-4.7-4.7-4.7-12.3,0-17.1l83.7-83.7c4.7-4.7,12.3-4.7,17.1,0l84.1,84.1c4.7,4.7,4.7,12.3,0,17.1l-83.7,83.7
			c-4.7,4.7-12.3,4.7-17.1,0L1150.2,140.2z M908.5-335.5c-4.7-4.7-4.7-12.3,0-17.1l83.7-83.7c4.7-4.7,12.3-4.7,17.1,0l84.1,84.1
			c4.7,4.7,4.7,12.3,0,17.1l-83.7,83.7c-4.7,4.7-12.3,4.7-17.1,0L908.5-335.5z M1029.5-216.8c-4.7-4.7-4.7-12.3,0-17.1l83.7-83.7
			c4.7-4.7,12.3-4.7,17.1,0l84.1,84.1c4.7,4.7,4.7,12.3,0,17.1l-83.7,83.7c-4.7,4.7-12.3,4.7-17.1,0L1029.5-216.8z M1150.4-97.6
			c-4.7-4.7-4.7-12.3,0-17.1l83.7-83.7c4.7-4.7,12.3-4.7,17.1,0l84.1,84.1c4.7,4.7,4.7,12.3,0,17.1l-83.7,83.7
			c-4.7,4.7-12.3,4.7-17.1,0L1150.4-97.6z M1271.2,21.7c-4.7-4.7-4.7-12.3,0-17.1l83.7-83.7c4.7-4.7,12.3-4.7,17.1,0L1456,5
			c4.7,4.7,4.7,12.3,0,17.1l-83.7,83.7c-4.7,4.7-12.3,4.7-17.1,0L1271.2,21.7z M612.6,595.2c4.7,4.7,4.7,12.3,0,17.1L528.9,696
			c-4.7,4.7-12.3,4.7-17.1,0l-84.1-84.1c-4.7-4.7-4.7-12.3,0-17.1l83.7-83.7c4.7-4.7,12.3-4.7,17.1,0L612.6,595.2z M490.8,475.8
			c4.7,4.7,4.7,12.3,0,17.1l-83.7,83.7c-4.7,4.7-12.3,4.7-17.1,0l-84.1-84.1c-4.7-4.7-4.7-12.3,0-17.1l83.7-83.7
			c4.7-4.7,12.3-4.7,17.1,0L490.8,475.8z M369.9,356.3c4.7,4.7,4.7,12.3,0,17.1l-83.7,83.7c-4.7,4.7-12.3,4.7-17.1,0L185,373
			c-4.7-4.7-4.7-12.3,0-17.1l83.7-83.7c4.7-4.7,12.3-4.7,17.1,0L369.9,356.3z M249.1,237c4.7,4.7,4.7,12.3,0,17.1l-83.7,83.7
			c-4.7,4.7-12.3,4.7-17.1,0l-84.1-84.1c-4.7-4.7-4.7-12.3,0-17.1l83.7-83.7c4.7-4.7,12.3-4.7,17.1,0L249.1,237z M492.2,714.9
			c4.7,4.7,4.7,12.3,0,17.1l-83.7,83.7c-4.7,4.7-12.3,4.7-17.1,0l-84.1-84.1c-4.7-4.7-4.7-12.3,0-17.1l83.7-83.7
			c4.7-4.7,12.3-4.7,17.1,0L492.2,714.9z M370.9,596.7c4.7,4.7,4.7,12.3,0,17.1l-83.7,83.7c-4.7,4.7-12.3,4.7-17.1,0L186,613.4
			c-4.7-4.7-4.7-12.3,0-17.1l83.7-83.7c4.7-4.7,12.3-4.7,17.1,0L370.9,596.7z M249.2,477c4.7,4.7,4.7,12.3,0,17.1l-83.7,83.7
			c-4.7,4.7-12.3,4.7-17.1,0l-84.1-84.1c-4.7-4.7-4.7-12.3,0-17.1l83.7-83.7c4.7-4.7,12.3-4.7,17.1,0L249.2,477z M128.4,357.1
			c4.7,4.7,4.7,12.3,0,17.1l-83.7,83.7c-4.7,4.7-12.3,4.7-17.1,0l-84.1-84.1c-4.7-4.7-4.7-12.3,0-17.1L27.2,273
			c4.7-4.7,12.3-4.7,17.1,0L128.4,357.1z M370.1,832.9c4.7,4.7,4.7,12.3,0,17.1l-83.7,83.7c-4.7,4.7-12.3,4.7-17.1,0l-84.1-84.1
			c-4.7-4.7-4.7-12.3,0-17.1l83.7-83.7c4.7-4.7,12.3-4.7,17.1,0L370.1,832.9z M249.1,714.1c4.7,4.7,4.7,12.3,0,17.1l-83.7,83.7
			c-4.7,4.7-12.3,4.7-17.1,0l-84.1-84.1c-4.7-4.7-4.7-12.3,0-17.1l83.7-83.7c4.7-4.7,12.3-4.7,17.1,0L249.1,714.1z M128.3,594.9
			c4.7,4.7,4.7,12.3,0,17.1l-83.7,83.7c-4.7,4.7-12.3,4.7-17.1,0l-84.1-84.1c-4.7-4.7-4.7-12.3,0-17.1l83.7-83.7
			c4.7-4.7,12.3-4.7,17.1,0L128.3,594.9z M7.5,475.6c4.7,4.7,4.7,12.3,0,17.1l-83.7,83.7c-4.7,4.7-12.3,4.7-17.1,0l-84.1-84.1
			c-4.7-4.7-4.7-12.3,0-17.1l83.7-83.7c4.7-4.7,12.3-4.7,17.1,0L7.5,475.6z"/>
		<g id="Group-3-Copy-3" transform="translate(392.000000, 260.000000)">
			<g id="Jaxx">
				<g class="st3">
					<path class="st0" d="M6.3,23v-6.5l-6-8.9h2.2l4.8,7.1L12,7.7h2.2l-6,8.9V23H6.3z"/>
					<path class="st0" d="M12.6,17.4c0-3.2,2.1-5.8,5.5-5.8s5.5,2.6,5.5,5.8c0,3.2-2.1,5.8-5.5,5.8S12.6,20.7,12.6,17.4z M21.7,17.4
						c0-2.3-1.3-4.3-3.7-4.3c-2.4,0-3.7,2-3.7,4.3c0,2.3,1.3,4.3,3.7,4.3C20.4,21.7,21.7,19.7,21.7,17.4z"/>
					<path class="st0" d="M33.9,23v-1.6c-0.9,1-2.3,1.8-4,1.8c-2.3,0-3.5-1.2-3.5-3.5v-7.8h1.7v7.3c0,2,1,2.5,2.5,2.5
						c1.3,0,2.6-0.8,3.3-1.7v-8.2h1.7V23H33.9z"/>
					<path class="st0" d="M39,23V11.9h1.7v1.8c0.9-1.1,2.2-2,3.7-2v1.8c-0.2,0-0.4,0-0.7,0c-1.1,0-2.5,0.9-3,1.8V23H39z"/>
					<path class="st0" d="M52.6,23V7.7h6.8c2.7,0,4.3,1.6,4.3,3.9c0,1.9-1.3,3.2-2.7,3.5c1.6,0.3,3,1.9,3,3.8c0,2.5-1.6,4.1-4.4,4.1
						H52.6z M61.8,11.8c0-1.4-0.9-2.5-2.6-2.5h-4.6v4.9h4.6C60.9,14.3,61.8,13.2,61.8,11.8z M62.1,18.7c0-1.4-1-2.6-2.8-2.6h-4.7
						v5.3h4.7C61,21.3,62.1,20.3,62.1,18.7z"/>
					<path class="st0" d="M67,23V7.7h1.7V23H67z"/>
					<path class="st0" d="M71.6,17.4c0-3.2,2.1-5.8,5.5-5.8s5.5,2.6,5.5,5.8c0,3.2-2.1,5.8-5.5,5.8S71.6,20.7,71.6,17.4z M80.7,17.4
						c0-2.3-1.3-4.3-3.7-4.3c-2.4,0-3.7,2-3.7,4.3c0,2.3,1.3,4.3,3.7,4.3C79.4,21.7,80.7,19.7,80.7,17.4z"/>
					<path class="st0" d="M84.7,17.4c0-3.3,2.2-5.8,5.5-5.8c2,0,3.2,0.8,4.1,1.9l-1.1,1c-0.7-1-1.7-1.4-2.8-1.4
						c-2.3,0-3.8,1.8-3.8,4.3c0,2.5,1.5,4.3,3.8,4.3c1.1,0,2.1-0.5,2.8-1.4l1.1,1.1c-0.9,1.1-2,1.9-4.1,1.9
						C87,23.3,84.7,20.7,84.7,17.4z"/>
					<path class="st0" d="M104.3,23l-4-5l-1.9,1.8V23h-1.7V7.7h1.7v10.1l5.8-5.9h2.2l-4.9,5l4.9,6.1H104.3z"/>
					<path class="st0" d="M107.9,17.4c0-3.3,2.2-5.8,5.5-5.8c2,0,3.2,0.8,4.1,1.9l-1.1,1c-0.7-1-1.7-1.4-2.8-1.4
						c-2.3,0-3.8,1.8-3.8,4.3c0,2.5,1.5,4.3,3.8,4.3c1.1,0,2.1-0.5,2.8-1.4l1.1,1.1c-0.9,1.1-2,1.9-4.1,1.9
						C110.1,23.3,107.9,20.7,107.9,17.4z"/>
					<path class="st0" d="M127.5,23v-7.3c0-2-1-2.5-2.5-2.5c-1.3,0-2.6,0.8-3.3,1.7V23H120V7.7h1.7v5.8c0.8-0.9,2.3-1.9,4-1.9
						c2.3,0,3.5,1.1,3.5,3.5V23H127.5z"/>
					<path class="st0" d="M139.6,23v-1.3c-0.9,1-2.2,1.5-3.7,1.5c-1.9,0-3.9-1.3-3.9-3.7c0-2.5,2-3.7,3.9-3.7c1.5,0,2.8,0.5,3.7,1.5
						v-2c0-1.5-1.2-2.3-2.8-2.3c-1.3,0-2.4,0.5-3.4,1.5l-0.8-1.2c1.2-1.2,2.6-1.8,4.4-1.8c2.4,0,4.3,1.1,4.3,3.7V23H139.6z
						 M139.6,20.7v-2.1c-0.7-0.9-1.8-1.4-3-1.4c-1.6,0-2.8,1-2.8,2.4c0,1.4,1.1,2.4,2.8,2.4C137.7,22,138.9,21.6,139.6,20.7z"/>
					<path class="st0" d="M144.5,9.2c0-0.6,0.5-1.2,1.2-1.2c0.6,0,1.1,0.5,1.1,1.2c0,0.6-0.5,1.1-1.1,1.1
						C145,10.3,144.5,9.8,144.5,9.2z M144.8,23V11.9h1.7V23H144.8z"/>
					<path class="st0" d="M157.5,23v-7.3c0-2-1-2.6-2.5-2.6c-1.4,0-2.6,0.8-3.3,1.7V23H150V11.9h1.7v1.6c0.8-0.9,2.3-1.9,4-1.9
						c2.3,0,3.5,1.2,3.5,3.6V23H157.5z"/>
					<path class="st0" d="M168.7,23V7.7h1.9V23H168.7z"/>
					<path class="st0" d="M181.6,23v-7.3c0-2-1-2.6-2.5-2.6c-1.4,0-2.6,0.8-3.3,1.7V23h-1.7V11.9h1.7v1.6c0.8-0.9,2.3-1.9,4-1.9
						c2.3,0,3.5,1.2,3.5,3.6V23H181.6z"/>
					<path class="st0" d="M187.1,20.7v-7.3h-1.8v-1.5h1.8v-3h1.7v3h2.3v1.5h-2.3v6.9c0,0.8,0.4,1.4,1.1,1.4c0.5,0,0.9-0.2,1.2-0.5
						l0.5,1.3c-0.4,0.4-1.1,0.7-2,0.7C188,23.3,187.1,22.3,187.1,20.7z"/>
					<path class="st0" d="M192.9,17.4c0-3.2,2.3-5.8,5.5-5.8c3.4,0,5.3,2.6,5.3,6V18h-9c0.1,2.1,1.6,3.8,4,3.8
						c1.3,0,2.6-0.5,3.4-1.4l0.8,1.1c-1.1,1.1-2.6,1.7-4.4,1.7C195.3,23.3,192.9,20.9,192.9,17.4z M198.4,13c-2.4,0-3.5,2-3.6,3.7
						h7.3C202,15.1,200.9,13,198.4,13z"/>
					<path class="st0" d="M206.5,23V11.9h1.7v1.8c0.9-1.1,2.2-2,3.7-2v1.8c-0.2,0-0.4,0-0.7,0c-1.1,0-2.5,0.9-3,1.8V23H206.5z"/>
					<path class="st0" d="M214.6,23v-9.6h-1.8v-1.5h1.8V11c0-2.3,1.3-3.6,3.2-3.6c0.9,0,1.7,0.2,2.3,0.9l-0.7,1.1
						c-0.4-0.3-0.8-0.5-1.4-0.5c-1.1,0-1.8,0.8-1.8,2.2v0.9h2.3v1.5h-2.3V23H214.6z"/>
					<path class="st0" d="M227.6,23v-1.3c-0.9,1-2.2,1.5-3.7,1.5c-1.9,0-3.9-1.3-3.9-3.7c0-2.5,2-3.7,3.9-3.7c1.5,0,2.8,0.5,3.7,1.5
						v-2c0-1.5-1.2-2.3-2.8-2.3c-1.3,0-2.4,0.5-3.4,1.5l-0.8-1.2c1.2-1.2,2.6-1.8,4.4-1.8c2.4,0,4.3,1.1,4.3,3.7V23H227.6z
						 M227.6,20.7v-2.1c-0.7-0.9-1.8-1.4-3-1.4c-1.6,0-2.8,1-2.8,2.4c0,1.4,1.1,2.4,2.8,2.4C225.7,22,226.9,21.6,227.6,20.7z"/>
					<path class="st0" d="M232.1,17.4c0-3.3,2.2-5.8,5.5-5.8c2,0,3.2,0.8,4.1,1.9l-1.1,1c-0.7-1-1.7-1.4-2.8-1.4
						c-2.3,0-3.8,1.8-3.8,4.3c0,2.5,1.5,4.3,3.8,4.3c1.2,0,2.1-0.5,2.8-1.4l1.1,1.1c-0.9,1.1-2,1.9-4.1,1.9
						C234.4,23.3,232.1,20.7,232.1,17.4z"/>
					<path class="st0" d="M243.5,17.4c0-3.2,2.3-5.8,5.5-5.8c3.4,0,5.3,2.6,5.3,6V18h-9c0.1,2.1,1.6,3.8,4,3.8
						c1.3,0,2.6-0.5,3.4-1.4l0.8,1.1c-1.1,1.1-2.6,1.7-4.4,1.7C245.9,23.3,243.5,20.9,243.5,17.4z M249,13c-2.4,0-3.5,2-3.6,3.7h7.3
						C252.6,15.1,251.5,13,249,13z"/>
				</g>
				<g class="st3">
					<path class="st0" d="M114.4,83l-4.3-10.7h1.5l3.6,9.2l3.6-9.2h1.5L116.1,83H114.4z"/>
					<path class="st0" d="M127.5,83v-8.9l-1.7,1.8l-0.8-0.8l2.7-2.8h1.2V83H127.5z"/>
					<path class="st0" d="M131.1,82.3c0-0.5,0.4-0.9,0.9-0.9c0.5,0,0.9,0.4,0.9,0.9c0,0.5-0.4,0.9-0.9,0.9
						C131.5,83.2,131.1,82.8,131.1,82.3z"/>
					<path class="st0" d="M134.7,83v-1.1c3.8-3,5.9-4.8,5.9-6.6c0-1.4-1.1-2-2.2-2c-1.3,0-2.3,0.5-2.9,1.3l-0.8-0.8
						c0.8-1.1,2.2-1.7,3.7-1.7c1.8,0,3.6,1,3.6,3.1c0,2.2-2.2,4.2-5.2,6.5h5.2V83H134.7z"/>
				</g>
			</g>
		</g>
		<g id="Group" transform="translate(503.000000, 544.000000)">
			
				<linearGradient id="Shape_9_" gradientUnits="userSpaceOnUse" x1="-1309.1566" y1="1.6676" x2="-1310.2006" y2="1.1083" gradientTransform="matrix(31.888 0 0 34.8056 41778.1758 -35.9285)">
				<stop  offset="0" style="stop-color:#54769E"/>
				<stop  offset="0.4802" style="stop-color:#53749C"/>
				<stop  offset="0.6878" style="stop-color:#4F6F95"/>
				<stop  offset="0.8423" style="stop-color:#486588"/>
				<stop  offset="0.9095" style="stop-color:#435F80"/>
			</linearGradient>
			<polygon id="Shape" class="st5" points="31.9,0.1 23.1,4.8 16,6.4 8.8,4.8 0,0.1 3.1,14.3 0.2,22.3 10.3,28.6 15.9,34.8 
				15.9,34.9 15.9,34.9 16,34.9 16,34.8 21.6,28.6 31.7,22.3 28.9,14.3 			"/>
			
				<linearGradient id="Shape_10_" gradientUnits="userSpaceOnUse" x1="-1209.4525" y1="2.1221" x2="-1220.1816" y2="2.1221" gradientTransform="matrix(3.04 0 0 22.1991 3727.6633 -35.9078)">
				<stop  offset="0.2539" style="stop-color:#20344C"/>
				<stop  offset="0.4072" style="stop-color:#273D57"/>
				<stop  offset="0.6733" style="stop-color:#395373"/>
				<stop  offset="1" style="stop-color:#54769E"/>
			</linearGradient>
			<polygon id="Shape_1_" class="st6" points="31.9,0.1 29.4,14.3 31.7,22.3 28.9,14.3 			"/>
			
				<linearGradient id="Shape_11_" gradientUnits="userSpaceOnUse" x1="-1223.2496" y1="2.1228" x2="-1212.1576" y2="2.1228" gradientTransform="matrix(3.04 0 0 22.1991 3698.8159 -35.9244)">
				<stop  offset="0.2539" style="stop-color:#54769E"/>
				<stop  offset="0.4133" style="stop-color:#4D6E93"/>
				<stop  offset="0.6897" style="stop-color:#3C5777"/>
				<stop  offset="1" style="stop-color:#233850"/>
			</linearGradient>
			<polygon id="Shape_2_" class="st7" points="0,0.1 2.5,14.3 0.2,22.3 3.1,14.3 			"/>
			
				<linearGradient id="Shape_12_" gradientUnits="userSpaceOnUse" x1="-1309.6436" y1="3.6208" x2="-1309.6644" y2="8.0677" gradientTransform="matrix(31.888 0 0 6.3032 41778.1758 -35.9106)">
				<stop  offset="6.545247e-03" style="stop-color:#54769E"/>
				<stop  offset="0.1993" style="stop-color:#507198"/>
				<stop  offset="0.4502" style="stop-color:#466488"/>
				<stop  offset="0.7318" style="stop-color:#354F6D"/>
				<stop  offset="1" style="stop-color:#21354D"/>
			</linearGradient>
			<polygon id="Shape_3_" class="st8" points="0,0.1 10.3,4.4 21.6,4.4 31.9,0.1 23.1,4.8 16,6.4 8.8,4.8 			"/>
			
				<linearGradient id="Shape_13_" gradientUnits="userSpaceOnUse" x1="-1288.7349" y1="2.6563" x2="-1291.2894" y2="5.3452" gradientTransform="matrix(10.672 0 0 9.9653 13775.584 -30.236)">
				<stop  offset="0.2539" style="stop-color:#54769E"/>
				<stop  offset="0.4102" style="stop-color:#4D6E93"/>
				<stop  offset="0.6813" style="stop-color:#3C5777"/>
				<stop  offset="1" style="stop-color:#22364E"/>
			</linearGradient>
			<polygon id="Shape_4_" class="st9" points="3.1,14.3 2.5,15.7 13.2,5.8 			"/>
			
				<linearGradient id="Shape_14_" gradientUnits="userSpaceOnUse" x1="-1291.0503" y1="3.0322" x2="-1288.9119" y2="5.1045" gradientTransform="matrix(10.624 0 0 9.9005 13728.416 -30.2391)">
				<stop  offset="0.2539" style="stop-color:#54769E"/>
				<stop  offset="0.4102" style="stop-color:#4D6E93"/>
				<stop  offset="0.6813" style="stop-color:#3C5777"/>
				<stop  offset="1" style="stop-color:#22364E"/>
			</linearGradient>
			<polygon id="Shape_5_" class="st10" points="28.9,14.3 18.7,5.8 29.4,15.7 			"/>
			
				<linearGradient id="Shape_15_" gradientUnits="userSpaceOnUse" x1="-1296.8671" y1="1.7206" x2="-1294.6637" y2="3.5629" gradientTransform="matrix(13.168 0 0 14.2106 17086.4961 -35.8929)">
				<stop  offset="0.4609" style="stop-color:#54769E;stop-opacity:0"/>
				<stop  offset="0.5699" style="stop-color:#52739A;stop-opacity:0.2156"/>
				<stop  offset="0.6764" style="stop-color:#4A698E;stop-opacity:0.4266"/>
				<stop  offset="0.782" style="stop-color:#3D597B;stop-opacity:0.6356"/>
				<stop  offset="0.8863" style="stop-color:#2C435F;stop-opacity:0.8422"/>
				<stop  offset="0.9661" style="stop-color:#1B2E45"/>
			</linearGradient>
			<polygon id="Shape_6_" class="st11" points="28.9,14.3 31.9,0.1 23.1,4.8 18.7,5.8 			"/>
			<polygon id="Shape_7_" class="st0" points="16,34.9 13.2,31.8 16,28.6 18.8,31.8 			"/>
			
				<linearGradient id="Shape_16_" gradientUnits="userSpaceOnUse" x1="-742.2985" y1="4.9451" x2="-742.2985" y2="0.7355" gradientTransform="matrix(0.544 0 0 18.1481 419.7604 -29.6707)">
				<stop  offset="0.2539" style="stop-color:#54769E"/>
				<stop  offset="0.4102" style="stop-color:#4D6E93"/>
				<stop  offset="0.6813" style="stop-color:#3C5777"/>
				<stop  offset="1" style="stop-color:#22364E"/>
			</linearGradient>
			<polygon id="Shape_8_" class="st12" points="15.7,6.3 16,6.4 16.2,6.3 16,24.5 			"/>
		</g>
		<g id="Page-1" transform="translate(439.000000, 188.000000)">
			<polygon id="Fill-1" class="st13" points="119.8,14.9 111.7,8.7 100.4,23.4 89,8.7 80.9,14.9 93.9,31.8 81.6,47.8 89.7,54 
				100.4,40.1 111,54 119.2,47.8 106.8,31.8 			"/>
			<polygon id="Fill-2" class="st13" points="143.4,23.4 132.1,8.7 124,14.9 137,31.8 124.6,47.8 132.7,54 143.4,40.1 154.1,54 
				162.2,47.8 149.9,31.8 162.9,14.9 154.8,8.7 			"/>
			<g id="Group-8" transform="translate(0.000000, 0.065284)">
				<g id="Group-5">
					<g id="Clip-4">
					</g>
					<path id="Fill-3" class="st13" d="M22.5,0.1h-9.9v40.5c0,0.8,0,11.7-12.7,12.7v9.9c0,0,22.7-1.2,22.5-22.6L22.5,0.1L22.5,0.1z"
						/>
				</g>
				<path id="Fill-6" class="st13" d="M52.4,8.6L52.4,8.6C40,8.6,29.8,18.8,29.8,31.2S40,53.7,52.4,53.7c2.2,0,4.3-0.3,6.3-0.9V42.1
					c-1.9,1.1-4.1,1.7-6.4,1.7h-0.1c-7,0-12.7-5.7-12.7-12.7V31c0-7,5.7-12.7,12.7-12.7h0.1c6.9,0,12.6,5.6,12.7,12.5v22.5h10V31.7
					c0-0.2,0-0.4,0-0.6C75,18.8,64.9,8.6,52.4,8.6"/>
			</g>
		</g>
	</g>
</g>
</svg>
