<?xml version="1.0" encoding="UTF-8" standalone="no"?>
<svg width="729px" height="729px" viewBox="0 0 729 729" version="1.1" xmlns="http://www.w3.org/2000/svg" xmlns:xlink="http://www.w3.org/1999/xlink">
    <!-- Generator: Sketch 40.1 (33804) - http://www.bohemiancoding.com/sketch -->
    <title>blue RB Copy</title>
    <desc>Created with Sketch.</desc>
    <defs>
        <rect id="path-1" x="1.53477231e-12" y="354" width="168" height="168" rx="12"></rect>
        <mask id="mask-2" maskContentUnits="userSpaceOnUse" maskUnits="objectBoundingBox" x="0" y="0" width="168" height="168" fill="white">
            <use xlink:href="#path-1"></use>
        </mask>
        <rect id="path-3" x="177" y="354" width="168" height="168" rx="12"></rect>
        <mask id="mask-4" maskContentUnits="userSpaceOnUse" maskUnits="objectBoundingBox" x="0" y="0" width="168" height="168" fill="white">
            <use xlink:href="#path-3"></use>
        </mask>
        <rect id="path-5" x="354" y="5.1159077e-13" width="168" height="168" rx="12"></rect>
        <mask id="mask-6" maskContentUnits="userSpaceOnUse" maskUnits="objectBoundingBox" x="0" y="0" width="168" height="168" fill="white">
            <use xlink:href="#path-5"></use>
        </mask>
        <rect id="path-7" x="178" y="-1.70530257e-13" width="168" height="168" rx="12"></rect>
        <mask id="mask-8" maskContentUnits="userSpaceOnUse" maskUnits="objectBoundingBox" x="0" y="0" width="168" height="168" fill="white">
            <use xlink:href="#path-7"></use>
        </mask>
        <rect id="path-9" x="1" y="-1.98951966e-12" width="168" height="168" rx="12"></rect>
        <mask id="mask-10" maskContentUnits="userSpaceOnUse" maskUnits="objectBoundingBox" x="0" y="0" width="168" height="168" fill="white">
            <use xlink:href="#path-9"></use>
        </mask>
        <rect id="path-11" x="1" y="177" width="168" height="168" rx="12"></rect>
        <mask id="mask-12" maskContentUnits="userSpaceOnUse" maskUnits="objectBoundingBox" x="0" y="0" width="168" height="168" fill="white">
            <use xlink:href="#path-11"></use>
        </mask>
        <rect id="path-13" x="178" y="177" width="168" height="168" rx="12"></rect>
        <mask id="mask-14" maskContentUnits="userSpaceOnUse" maskUnits="objectBoundingBox" x="0" y="0" width="168" height="168" fill="white">
            <use xlink:href="#path-13"></use>
        </mask>
        <rect id="path-15" x="355" y="177" width="168" height="168" rx="12"></rect>
        <mask id="mask-16" maskContentUnits="userSpaceOnUse" maskUnits="objectBoundingBox" x="0" y="0" width="168" height="168" fill="white">
            <use xlink:href="#path-15"></use>
        </mask>
        <rect id="path-17" x="354" y="354" width="168" height="168" rx="12"></rect>
        <mask id="mask-18" maskContentUnits="userSpaceOnUse" maskUnits="objectBoundingBox" x="0" y="0" width="168" height="168" fill="white">
            <use xlink:href="#path-17"></use>
        </mask>
    </defs>
    <g id="Page-1" stroke="none" stroke-width="1" fill="none" fill-rule="evenodd">
        <g id="Artboard-4" transform="translate(-6691.000000, -166.000000)">
            <g id="blue-RB-Copy" transform="translate(6686.000000, 161.000000)">
                <g id="cubes" transform="translate(369.463293, 369.463293) rotate(45.000000) translate(-369.463293, -369.463293) translate(107.963293, 108.463293)" stroke="#E76F22" stroke-width="2">
                    <use id="Rectangle-17" mask="url(#mask-2)" xlink:href="#path-1"></use>
                    <use id="Rectangle-17-Copy" mask="url(#mask-4)" xlink:href="#path-3"></use>
                    <use id="Rectangle-17-Copy" mask="url(#mask-6)" xlink:href="#path-5"></use>
                    <use id="Rectangle-17-Copy" mask="url(#mask-8)" xlink:href="#path-7"></use>
                    <use id="Rectangle-17-Copy" mask="url(#mask-10)" xlink:href="#path-9"></use>
                    <use id="Rectangle-17-Copy" mask="url(#mask-12)" xlink:href="#path-11"></use>
                    <use id="Rectangle-17-Copy-3" mask="url(#mask-14)" xlink:href="#path-13"></use>
                    <use id="Rectangle-17-Copy-4" mask="url(#mask-16)" xlink:href="#path-15"></use>
                    <use id="Rectangle-17-Copy-2" mask="url(#mask-18)" xlink:href="#path-17"></use>
                </g>
                <g id="jaxx-mark" transform="translate(342.000000, 344.000000)" fill="#E76F22">
                    <g id="Layer_1">
                        <polygon id="Shape" points="55.1884921 11.9910256 48.6845238 7 39.6051587 18.8128205 30.5039683 7 24 11.9910256 34.4107143 25.5474359 24.5238095 38.4064103 31.0277778 43.3974359 39.6051587 32.2820513 48.1607143 43.3974359 54.6865079 38.4064103 44.7777778 25.5474359"></polygon>
                        <path d="M18.093254,0 L10.1706349,0 L10.1706349,32.5397436 L10.1706349,32.5397436 C10.1924603,33.15 10.1706349,41.9769231 0,42.7397436 L0,50.6512821 C0,50.6512821 18.1805556,49.6705128 18.0714286,32.5179487 L18.0714286,32.5179487 L18.0714286,0 L18.093254,0 Z" id="Shape"></path>
                    </g>
                </g>
            </g>
        </g>
    </g>
</svg>