<?xml version="1.0" encoding="utf-8"?>
<!-- Generator: Adobe Illustrator 19.1.0, SVG Export Plug-In . SVG Version: 6.00 Build 0)  -->
<svg version="1.1" id="Layer_1" xmlns="http://www.w3.org/2000/svg" xmlns:xlink="http://www.w3.org/1999/xlink" x="0px" y="0px"
	 viewBox="87 13.6 302.9 103.4" style="enable-background:new 87 13.6 302.9 103.4;" xml:space="preserve">
<style type="text/css">
	.st0{fill:#1A6896;}
	.st1{fill:#FFFFFF;}
</style>
<g id="Page-1">
	<g id="Desktop" transform="translate(-51.000000, -282.000000)">
		<g id="bitcoin-here" transform="translate(51.000000, 282.000000)">
			<g id="Group_1_">
				<g id="Bitcoin">
					<g id="Group">
						<path id="Shape" class="st0" d="M126.2,116c-27.8-6.8-44.6-35-37.7-62.6c6.8-27.8,35-44.6,62.6-37.7
							c27.8,6.8,44.7,34.9,37.7,62.6C182,106.1,153.8,122.9,126.2,116z"/>
						<g id="Page-1_1_">
							<g id="Group-9">
								<polygon id="Path-2" class="st1" points="121.5,47.9 137.6,31.9 138.6,31.8 138.7,40.9 140.8,46.4 140.6,48.6 135.1,52.9 
																	"/>
								<polygon id="Path-3" class="st1" points="139.8,33.1 139.7,40.7 141.9,46.2 141.6,49.2 135.9,53.8 136.5,60.7 140.4,72 
									143.1,67.7 142.2,66.4 144.5,60.3 144.6,57.5 148.8,51 146.3,48.6 146.6,44.9 142.9,41.1 								"/>
								<polygon id="Path-4" class="st1" points="150,50.3 154.2,48.6 150.9,45.7 149.7,42.8 142,35.2 143.6,40.3 147.6,44.5 
									147.5,47.8 								"/>
								<polygon id="Path-5" class="st1" points="154.7,49.9 150.2,51.3 145.8,57.2 145.6,60.9 143.7,65.7 143.7,66.9 152.5,67.3 
									153.5,66.2 153.9,55.5 								"/>
								<path id="Path-6" class="st1" d="M143.9,68.3l-5.5,12.8v1.8l1.5-1.6l1,0.6l1-0.9l3-0.5l1.2-1.7l2.4,0.1l0.1-0.9l2.7-0.4
									l0.7-8.7L143.9,68.3z"/>
								<polygon id="Path-7" class="st1" points="125.3,72.4 132.7,68.9 135.7,62.5 139.8,73.5 137.4,80.6 135.7,81.3 134.9,79.5 
									132,78.8 131.8,79.9 130.7,79.5 129.1,80.3 128.7,79 125.4,77.5 								"/>
								<path id="Combined-Shape" class="st1" d="M123.9,75.4l-2.7,1l-1.8,3.3l0.2,7.3l17.6,9.2l2.4,0.3l18-9.9l0.5-5.7l-2.3-4.5
									l-2.9-1.3l-0.1,1.9l0.5,0.5l-7.2,5.7l-2.4,1l-5.1,2.2h-0.9l-4.8-2.1l-9.5-6.4l0.2-0.5L123.9,75.4z M122.5,78.5l-1,2l0.1,5.2
									l16.7,8.7l0.1-2.4l0.6-0.7l-0.9-3.4l-7-3.4l-4.9-2.9L122.5,78.5z M139.4,94.3v-2l0.5-0.9l-0.8-3.9l3.4-1.8l3.9-1l7.9-6.2
									l1.7,2.6l-0.2,4.4L139.4,94.3z"/>
								<path id="Path-11" class="st1" d="M121.1,49.3l13.7,4.9l0.4,6.9l-3.2,6.7l-7.5,3.5l-0.7-1.4v-5.2L121.1,49.3z"/>
							</g>
						</g>
					</g>
				</g>
			</g>
		</g>
	</g>
</g>
</svg>
