<?xml version="1.0" encoding="utf-8"?>
<!-- Generator: Adobe Illustrator 19.1.0, SVG Export Plug-In . SVG Version: 6.00 Build 0)  -->
<svg version="1.1" id="Layer_1" xmlns="http://www.w3.org/2000/svg" xmlns:xlink="http://www.w3.org/1999/xlink" x="0px" y="0px"
	 viewBox="87 13.6 302.9 103.4" style="enable-background:new 87 13.6 302.9 103.4;" xml:space="preserve">
<style type="text/css">
	.st0{opacity:0.75;fill:#A4A4A4;enable-background:new    ;}
	.st1{opacity:0.75;}
	.st2{fill:#FFFFFF;}
</style>
<g id="Page-1_1_">
	<g id="Desktop_1_" transform="translate(-51.000000, -152.000000)">
		<g id="bitcoin-here-gray" transform="translate(51.000000, 152.000000)">
			<g id="Group_2_">
				<g id="Bitcoin_Grayscale">
					<path id="Shape_3_" class="st0" d="M188.8,77.8c-6.8,27.8-35,44.6-62.6,37.7c-27.8-6.8-44.6-34.9-37.7-62.6
						c6.8-27.8,35-44.6,62.6-37.7C179,22,195.8,50.2,188.8,77.8L188.8,77.8L188.8,77.8z"/>
					<g id="Page-1_2_" class="st1">
						<g id="Group-9">
							<polygon id="Path-2" class="st2" points="123.2,50.2 139.3,34.2 140.3,34.1 140.4,43.2 142.5,48.7 142.3,50.9 136.8,55.2 
															"/>
							<polygon id="Path-3" class="st2" points="141.5,35.4 141.4,43 143.6,48.5 143.3,51.5 137.6,56.1 138.2,63 142.1,74.3 
								144.8,70 143.9,68.7 146.2,62.6 146.3,59.8 150.5,53.3 148,50.9 148.3,47.2 144.6,43.4 							"/>
							<polygon id="Path-4" class="st2" points="151.7,52.6 155.9,50.9 152.6,48 151.4,45.1 143.7,37.5 145.3,42.6 149.3,46.8 
								149.2,50.1 							"/>
							<polygon id="Path-5" class="st2" points="156.4,52.2 151.9,53.6 147.5,59.5 147.3,63.2 145.4,68 145.4,69.2 154.2,69.6 
								155.2,68.5 155.6,57.8 							"/>
							<path id="Path-6" class="st2" d="M145.6,70.6l-5.5,12.8v1.8l1.5-1.6l1,0.6l1-0.9l3-0.5l1.2-1.7l2.4,0.1l0.1-0.9l2.7-0.4
								l0.7-8.7L145.6,70.6z"/>
							<polygon id="Path-7" class="st2" points="127,74.7 134.4,71.2 137.4,64.8 141.5,75.8 139.1,82.9 137.4,83.6 136.6,81.8 
								133.7,81.1 133.5,82.2 132.4,81.8 130.8,82.6 130.4,81.3 127.1,79.8 							"/>
							<path id="Combined-Shape" class="st2" d="M125.6,77.7l-2.7,1l-1.8,3.3l0.2,7.3l17.6,9.2l2.4,0.3l18-9.9l0.5-5.7l-2.3-4.5
								l-2.9-1.3l-0.1,1.9l0.5,0.5l-7.2,5.7l-2.4,1l-5.1,2.2h-0.9l-4.8-2.1l-9.5-6.4l0.2-0.5L125.6,77.7z M124.2,80.8l-1,2l0.1,5.2
								l16.7,8.7l0.1-2.4l0.6-0.7l-0.9-3.4l-7-3.4l-4.9-2.9L124.2,80.8z M141.1,96.6v-2l0.5-0.9l-0.8-3.9l3.4-1.8l3.9-1l7.9-6.2
								l1.7,2.6l-0.2,4.4L141.1,96.6z"/>
							<path id="Path-11" class="st2" d="M122.8,51.6l13.7,4.9l0.4,6.9l-3.2,6.7l-7.5,3.5l-0.7-1.4V67L122.8,51.6z"/>
						</g>
					</g>
				</g>
			</g>
		</g>
	</g>
</g>
</svg>
