<?xml version="1.0" encoding="utf-8"?>
<!-- Generator: Adobe Illustrator 19.1.0, SVG Export Plug-In . SVG Version: 6.00 Build 0)  -->
<svg version="1.1" id="Layer_1" xmlns="http://www.w3.org/2000/svg" xmlns:xlink="http://www.w3.org/1999/xlink" x="0px" y="0px"
	 viewBox="87 13.6 302.9 103.4" style="enable-background:new 87 13.6 302.9 103.4;" xml:space="preserve">
<style type="text/css">
	.st0{display:none;}
	.st1{display:inline;}
	.st2{opacity:0.75;fill:#A4A4A4;enable-background:new    ;}
	.st3{opacity:0.75;fill:#FFFFFF;enable-background:new    ;}
	.st4{display:inline;opacity:0.75;fill:#EAEAEA;stroke:#A4A4A4;stroke-miterlimit:10;enable-background:new    ;}
	.st5{display:inline;opacity:0.75;fill:#FFFFFF;stroke:#A4A4A4;stroke-miterlimit:10;enable-background:new    ;}
	.st6{display:inline;opacity:0.75;fill:#EDEDED;stroke:#A4A4A4;stroke-miterlimit:10;enable-background:new    ;}
	.st7{opacity:0.75;}
	.st8{fill:#FFFFFF;}
	.st9{display:none;opacity:0.75;fill:#FFFFFF;enable-background:new    ;}
</style>
<g id="Page-1_1_" class="st0">
	<g id="Desktop_1_" transform="translate(-51.000000, -152.000000)" class="st1">
		<g id="bitcoin-here-gray" transform="translate(51.000000, 152.000000)">
			<g id="Group_2_">
				<g id="Bitcoin_Grayscale">
					<path id="Shape_3_" class="st2" d="M362.8,104.9c-6.8,27.8-35,44.6-62.6,37.7c-27.8-6.8-44.6-34.9-37.7-62.6
						c6.8-27.8,35-44.6,62.6-37.7C353,49.1,369.8,77.3,362.8,104.9L362.8,104.9L362.8,104.9z"/>
					<path id="Shape_2_" class="st3" d="M335.5,85.1c1-6.9-4.2-10.5-11.3-13.1l2.3-9.4l-5.7-1.3l-2.3,9.1c-1.4-0.3-3.1-0.6-4.5-1.1
						l2.3-9.2l-5.7-1.4l-2.3,9.4c-1.3-0.3-2.4-0.5-3.6-0.8l0,0l-7.8-1.9l-1.3,6c0,0,4.2,1,4.1,1c2.3,0.6,2.7,2.1,2.6,3.2l-2.7,10.6
						c0.1,0,0.3,0.1,0.6,0.1c-0.1,0-0.3-0.1-0.6-0.1l-3.7,14.9c-0.3,0.6-1,1.8-2.6,1.3c0,0.1-4.2-1-4.2-1l-2.8,6.5l7.4,1.8
						c1.4,0.3,2.7,0.6,4.1,1l-2.4,9.4l5.7,1.4l2.3-9.4c1.6,0.5,3.1,0.8,4.5,1.1l-2.3,9.2l5.7,1.4l2.4-9.4c9.7,1.8,17,1.1,20.1-7.6
						c2.4-7.1-0.1-11.2-5.2-13.7C331.9,92.6,334.7,90.2,335.5,85.1L335.5,85.1L335.5,85.1z M322.6,103.4c-1.8,7.1-13.6,3.2-17.5,2.3
						l3.1-12.4C312,94.1,324.3,95.9,322.6,103.4L322.6,103.4L322.6,103.4z M324.3,85.1c-1.6,6.5-11.5,3.2-14.7,2.4l2.7-11.3
						C315.6,76.8,326,78.3,324.3,85.1L324.3,85.1z"/>
				</g>
			</g>
		</g>
	</g>
</g>
<g id="Page-1_2_">
	<g id="Desktop_2_" transform="translate(-51.000000, -152.000000)">
		<g id="bitcoin-here-gray_1_" transform="translate(51.000000, 152.000000)">
			<g id="Group_1_">
				<g id="Bitcoin_Grayscale_1_">
					<path id="Shape_16_" class="st2" d="M189.2,77.8c-6.8,27.8-35,44.6-62.6,37.7C98.8,108.6,82,80.5,88.9,52.8
						c6.8-27.8,35-44.6,62.6-37.7C179.4,21.8,196.2,50,189.2,77.8L189.2,77.8L189.2,77.8z"/>
					<g id="logo_2_" class="st0">
						<polygon id="Shape_15_" class="st4" points="138.7,29.8 161.9,66.2 138.7,79.4 						"/>
						<polygon id="Shape_14_" class="st4" points="161.9,70.5 138.7,101.4 138.7,83.3 						"/>
						<polygon id="Shape_13_" class="st5" points="138.7,29.8 115.5,66.2 138.7,79.4 						"/>
						<polygon id="Shape_12_" class="st5" points="115.5,70.5 138.7,101.4 138.7,83.3 						"/>
						<polygon id="Shape_5_" class="st5" points="138.7,79.4 115.5,66.2 138.7,56.6 						"/>
						<polygon id="Shape_4_" class="st6" points="138.7,79.4 161.9,66.2 138.7,56.6 						"/>
					</g>
					<g id="Welcome_1_" class="st7">
						<g id="Jaxx-spinner-icons_1_" transform="translate(-81.000000, -338.000000)">
							<g id="litecoin-wash_1_" transform="translate(39.000000, 301.000000)">
								<path id="Combined-Shape_1_" class="st8" d="M153.7,134.8L153.7,134.8l5.6-21.4l-8,3l2.3-8.4l7.9-2.9l9.3-35.3h20.3
									l-7.2,27.1l9.1-3.4l-1.9,8.1l-9.4,3.5l-4.6,17.2h33.7l-3.4,12.5L153.7,134.8L153.7,134.8z"/>
							</g>
						</g>
					</g>
					<path id="Shape_1_" class="st9" d="M160.4,59.3c1-6.9-4.2-10.5-11.3-13.1l2.3-9.4l-5.7-1.3l-2.3,9.1c-1.4-0.3-3.1-0.6-4.5-1.1
						l2.3-9.2l-5.7-1.4l-2.3,9.4c-1.3-0.3-2.4-0.5-3.6-0.8l0,0l-7.8-1.9l-1.3,6c0,0,4.2,1,4.1,1c2.3,0.6,2.7,2.1,2.6,3.2l-2.7,10.6
						c0.1,0,0.3,0.1,0.6,0.1c-0.1,0-0.3-0.1-0.6-0.1l-3.7,14.9c-0.3,0.6-1,1.8-2.6,1.3c0,0.1-4.2-1-4.2-1l-2.8,6.5l7.4,1.8
						c1.4,0.3,2.7,0.6,4.1,1l-2.4,9.4l5.7,1.4l2.3-9.4c1.6,0.5,3.1,0.8,4.5,1.1l-2.3,9.2l5.7,1.4l2.4-9.4c9.7,1.8,17,1.1,20.1-7.6
						c2.4-7.1-0.1-11.2-5.2-13.7C156.8,66.8,159.6,64.4,160.4,59.3L160.4,59.3L160.4,59.3z M147.5,77.6c-1.8,7.1-13.6,3.2-17.5,2.3
						l3.1-12.4C136.9,68.3,149.2,70.2,147.5,77.6L147.5,77.6L147.5,77.6z M149.2,59.3c-1.6,6.5-11.5,3.2-14.7,2.4l2.7-11.3
						C140.5,51,150.9,52.5,149.2,59.3L149.2,59.3z"/>
				</g>
			</g>
		</g>
	</g>
</g>
</svg>
