<svg xmlns="http://www.w3.org/2000/svg" xmlns:xlink="http://www.w3.org/1999/xlink" preserveAspectRatio="xMidYMid" width="59" height="23" viewBox="0 0 59 23">
  <defs>
    <style>

      .cls-2 {
        fill: #f37321;
      }
    </style>
  </defs>
  <path d="M54.290,11.532 C54.290,11.532 58.763,17.375 58.763,17.375 C58.763,17.375 55.819,19.644 55.819,19.644 C55.819,19.644 51.949,14.589 51.949,14.589 C51.949,14.589 48.080,19.644 48.080,19.644 C48.080,19.644 45.135,17.375 45.135,17.375 C45.135,17.375 49.609,11.532 49.609,11.532 C49.609,11.532 44.899,5.381 44.899,5.381 C44.899,5.381 47.843,3.112 47.843,3.112 C47.843,3.112 51.949,8.475 51.949,8.475 C51.949,8.475 56.055,3.112 56.055,3.112 C56.055,3.112 59.000,5.381 59.000,5.381 C59.000,5.381 54.290,11.532 54.290,11.532 ZM43.167,17.375 C43.167,17.375 40.223,19.644 40.223,19.644 C40.223,19.644 36.353,14.589 36.353,14.589 C36.353,14.589 32.483,19.644 32.483,19.644 C32.483,19.644 29.539,17.375 29.539,17.375 C29.539,17.375 34.012,11.532 34.012,11.532 C34.012,11.532 29.303,5.381 29.303,5.381 C29.303,5.381 32.247,3.112 32.247,3.112 C32.247,3.112 36.353,8.475 36.353,8.475 C36.353,8.475 40.459,3.112 40.459,3.112 C40.459,3.112 43.403,5.381 43.403,5.381 C43.403,5.381 38.694,11.532 38.694,11.532 C38.694,11.532 43.167,17.375 43.167,17.375 ZM27.171,19.448 C27.171,19.448 23.552,19.448 23.552,19.448 C23.552,19.448 23.552,11.242 23.552,11.242 C23.552,11.242 23.551,11.242 23.551,11.242 C23.515,8.729 21.457,6.685 18.944,6.685 C18.944,6.685 18.905,6.685 18.905,6.685 C16.371,6.685 14.297,8.765 14.297,11.308 C14.297,11.308 14.297,11.347 14.297,11.347 C14.297,13.890 16.371,15.970 18.905,15.970 C18.905,15.970 18.944,15.970 18.944,15.970 C19.791,15.970 20.585,15.737 21.268,15.333 C21.268,15.333 21.268,19.235 21.268,19.235 C20.542,19.448 19.776,19.566 18.984,19.566 C18.984,19.566 18.984,19.566 18.984,19.566 C14.478,19.566 10.792,15.867 10.792,11.347 C10.792,11.347 10.792,11.347 10.792,11.347 C10.792,6.827 14.478,3.129 18.984,3.129 C18.984,3.129 18.984,3.129 18.984,3.129 C23.489,3.129 27.176,6.827 27.176,11.347 C27.176,11.347 27.176,11.347 27.176,11.347 C27.176,11.416 27.172,11.484 27.171,11.553 C27.171,11.553 27.171,19.448 27.171,19.448 ZM0.000,23.000 C0.000,23.000 0.000,19.404 0.000,19.404 C4.600,19.051 4.601,15.050 4.596,14.771 C4.596,14.771 4.595,14.771 4.595,14.771 C4.595,14.771 4.595,0.001 4.595,0.001 C4.595,0.001 8.166,0.001 8.166,0.001 C8.166,0.001 8.166,14.771 8.166,14.771 C8.166,14.771 8.166,14.771 8.166,14.771 C8.220,22.556 0.000,23.000 0.000,23.000 Z" id="path-1" class="cls-2" fill-rule="evenodd"/>
</svg>
