<?xml version="1.0" encoding="utf-8"?>
<!-- Generator: Adobe Illustrator 19.1.0, SVG Export Plug-In . SVG Version: 6.00 Build 0)  -->
<svg version="1.1" id="Layer_1" xmlns="http://www.w3.org/2000/svg" xmlns:xlink="http://www.w3.org/1999/xlink" x="0px" y="0px"
	 viewBox="87 13.6 102.7 103.4" style="enable-background:new 87 13.6 102.7 103.4;" xml:space="preserve">
<style type="text/css">
	.st0{fill:#FFFFFF;}
	.st1{display:none;fill:#FFFFFF;}
	.st2{fill:url(#Combined-Shape_1_);}
</style>
<g id="Page-1">
	<g id="Desktop" transform="translate(-51.000000, -282.000000)">
		<g id="bitcoin-here" transform="translate(51.000000, 282.000000)">
			<g id="Group_1_">
				<g id="Bitcoin">
					<g id="Group">
						<path id="Shape" class="st0" d="M126.2,115.4c-27.8-6.8-44.6-35-37.7-62.6c6.8-27.8,35-44.6,62.6-37.7
							c27.8,6.8,44.7,34.9,37.7,62.6C182,105.5,153.8,122.3,126.2,115.4z"/>
						<path id="Shape_1_" class="st1" d="M160,58.4c1-6.9-4.2-10.5-11.3-13.1l2.3-9.4l-5.7-1.3l-2.3,9.1c-1.4-0.3-3.1-0.6-4.5-1.1
							l2.3-9.2l-5.7-1.4l-2.3,9.4c-1.3-0.3-2.4-0.5-3.6-0.8l0,0l-7.8-1.9l-1.4,6.1c0,0,4.2,1,4.1,1c2.3,0.6,2.7,2.1,2.6,3.2
							l-2.6,10.6c0.1,0,0.3,0.1,0.6,0.1c-0.1,0-0.3-0.1-0.6-0.1l-3.8,14.8c-0.3,0.6-1,1.8-2.6,1.3c0,0.1-4.2-1-4.2-1l-2.8,6.5
							l7.4,1.8c1.4,0.3,2.7,0.6,4.1,1l-2.4,9.4l5.7,1.4l2.3-9.4c1.6,0.5,3.1,0.8,4.5,1.1l-2.3,9.2l5.7,1.4l2.4-9.4
							c9.7,1.8,17,1.1,20.1-7.6c2.4-7.1-0.1-11.2-5.2-13.7C156.4,66,159.2,63.5,160,58.4L160,58.4L160,58.4z M147,76.8
							c-1.8,7.1-13.6,3.2-17.5,2.3l3.1-12.4C136.5,67.5,148.8,69.2,147,76.8L147,76.8L147,76.8z M148.8,58.4
							c-1.6,6.5-11.5,3.2-14.7,2.4l2.7-11.3C140.1,50.2,150.4,51.6,148.8,58.4L148.8,58.4z"/>
						<g id="Welcome">
							<g id="Jaxx-spinner-icons" transform="translate(-81.000000, -338.000000)">
								<g id="litecoin-wash" transform="translate(39.000000, 301.000000)">
									
										<linearGradient id="Combined-Shape_1_" gradientUnits="userSpaceOnUse" x1="193.0483" y1="67.95" x2="252.5483" y2="67.95" gradientTransform="matrix(1 0 0 -1 -42 170.2)">
										<stop  offset="0" style="stop-color:#898888"/>
										<stop  offset="1" style="stop-color:#545454"/>
									</linearGradient>
									<path id="Combined-Shape" class="st2" d="M153.4,134.8L153.4,134.8l5.6-21.4l-8,3l2.3-8.4l7.9-2.9l9.3-35.3h20.3l-7.2,27.1
										l9.1-3.4l-1.9,8.1l-9.4,3.5l-4.6,17.2h33.7l-3.4,12.5H153.4L153.4,134.8z"/>
								</g>
							</g>
						</g>
					</g>
				</g>
			</g>
		</g>
	</g>
</g>
</svg>
