<?xml version="1.0" encoding="UTF-8" standalone="no"?>
<svg width="40px" height="40px" viewBox="0 0 40 40" version="1.1" xmlns="http://www.w3.org/2000/svg" xmlns:xlink="http://www.w3.org/1999/xlink">
    <!-- Generator: Sketch 42 (36781) - http://www.bohemiancoding.com/sketch -->
    <title>gift</title>
    <desc>Created with Sketch.</desc>
    <defs></defs>
    <g id="Page-1" stroke="none" stroke-width="1" fill="none" fill-rule="evenodd">
        <g id="jaxx-new-icons" transform="translate(-1031.000000, -442.000000)" fill-rule="nonzero" fill="#E1E1E1">
            <g id="gift" transform="translate(1031.000000, 442.000000)">
                <path d="M37.5406811,8.10024845 L29.9685449,8.10024845 C30.193808,7.94136646 30.4054489,7.76173913 30.5996285,7.55975155 C31.3971517,6.73341615 31.8356656,5.64608696 31.8356656,4.49565217 C31.8356656,2.06708075 29.8673684,0.0910559006 27.4455728,0.0910559006 C26.6170898,0.0910559006 25.9047678,0.359254658 25.5552941,0.519751553 C24.5031579,1.00757764 21.7995046,3.35875776 19.9642105,5.01055901 C18.1289164,3.35875776 15.4252632,1.00757764 14.3785759,0.522111801 C14.0227864,0.360124224 13.3113313,0.0910559006 12.4827245,0.0910559006 C10.060805,0.0910559006 8.09176471,2.06695652 8.09176471,4.49565217 C8.09176471,5.64534161 8.53027864,6.73341615 9.32780186,7.55975155 C9.5228483,7.76099379 9.73448916,7.94136646 9.95888545,8.10024845 L2.38773994,8.10024845 C1.07133127,8.10024845 0,9.17478261 0,10.4952795 L0,16.1118012 C0,17.4322981 1.07133127,18.5069565 2.38773994,18.5069565 L3.65399381,18.5069565 L3.65399381,36.8478261 C3.65399381,38.5643478 5.04681115,39.9614907 6.75801858,39.9614907 L16.1503406,39.9614907 L17.7421672,39.9614907 L22.1856347,39.9614907 L23.7774613,39.9614907 L33.1713932,39.9614907 C34.8826006,39.9614907 36.273808,38.5643478 36.273808,36.8478261 L36.273808,18.5068323 L37.5409288,18.5068323 C38.8573375,18.5068323 39.9285449,17.4321739 39.9285449,16.111677 L39.9285449,10.4952795 C39.9282972,9.17478261 38.8570898,8.10024845 37.5406811,8.10024845 Z M2.38773994,16.9101863 C1.94835913,16.9101863 1.59182663,16.551677 1.59182663,16.1118012 L1.59182663,10.4952795 C1.59182663,10.0554037 1.94835913,9.69689441 2.38773994,9.69689441 L16.1503406,9.69689441 L16.1503406,16.9100621 L3.65399381,16.9100621 L2.38773994,16.9100621 L2.38773994,16.9101863 Z M16.1502167,38.3645963 L6.75876161,38.3645963 C5.92470588,38.3645963 5.24656347,37.6836025 5.24656347,36.8477019 L5.24656347,18.5068323 L16.1510836,18.5068323 L16.1510836,38.3645963 L16.1502167,38.3645963 Z M22.1855108,38.3645963 L17.7420433,38.3645963 L17.7420433,18.5068323 L17.7420433,16.9100621 L17.7420433,9.69689441 L22.1855108,9.69689441 L22.1855108,16.9100621 L22.1855108,18.5068323 L22.1855108,38.3645963 Z M34.6818576,36.8469565 C34.6818576,37.6836025 34.0037152,38.3638509 33.1712693,38.3638509 L23.7773375,38.3638509 L23.7773375,18.5068323 L34.6818576,18.5068323 L34.6818576,36.8469565 L34.6818576,36.8469565 Z M38.3365944,16.1118012 C38.3365944,16.551677 37.979195,16.9101863 37.5406811,16.9101863 L36.2735604,16.9101863 L23.7773375,16.9101863 L23.7773375,9.69689441 L37.5406811,9.69689441 C37.979195,9.69689441 38.3365944,10.0554037 38.3365944,10.4952795 L38.3365944,16.1118012 L38.3365944,16.1118012 Z" id="Shape"></path>
            </g>
        </g>
    </g>
</svg>