<?xml version="1.0" encoding="UTF-8" standalone="no"?>
<svg width="30px" height="36px" viewBox="0 0 30 36" version="1.1" xmlns="http://www.w3.org/2000/svg" xmlns:xlink="http://www.w3.org/1999/xlink">
    <!-- Generator: Sketch 39 (31667) - http://www.bohemiancoding.com/sketch -->
    <title>news</title>
    <desc>Created with Sketch.</desc>
    <defs></defs>
    <g id="Welcome" stroke="none" stroke-width="1" fill="none" fill-rule="evenodd">
        <g id="Menuv2" transform="translate(-230.000000, -454.000000)" fill="#FFFFFF">
            <g id="bulletin" transform="translate(230.000000, 454.000000)">
                <g id="news">
                    <g id="Layer_1">
                        <path d="M24,10.5 L6,10.5 L6,12 L24,12 L24,10.5 L24,10.5 Z M10.5,13.5 L6,13.5 L6,15 L10.5,15 L10.5,13.5 L10.5,13.5 Z M10.5,16.5 L6,16.5 L6,18 L10.5,18 L10.5,16.5 L10.5,16.5 Z M24,13.5 L19.5,13.5 L19.5,15 L24,15 L24,13.5 L24,13.5 Z M24,16.5 L19.5,16.5 L19.5,18 L24,18 L24,16.5 L24,16.5 Z M24,19.5 L6,19.5 L6,21 L24,21 L24,19.5 L24,19.5 Z M15,22.5 L6,22.5 L6,24 L15,24 L15,22.5 L15,22.5 Z M15,25.5 L6,25.5 L6,27 L15,27 L15,25.5 L15,25.5 Z M15,28.5 L6,28.5 L6,30 L15,30 L15,28.5 L15,28.5 Z M18,13.5 L12,13.5 L12,18 L18,18 L18,13.5 L18,13.5 Z M15.3,9 L14.55,6.15 L15.3,6.15 L15.6,8.1 L16.05,6.15 L16.8,6.15 L17.1,8.1 L17.4,6.15 L18.15,6.15 L17.4,9 L16.65,9 L16.35,7.05 L15.9,9 L15.3,9 L15.3,9 Z M14.4,8.4 L13.2,8.4 L13.2,7.8 L14.25,7.8 L14.25,7.2 L13.2,7.2 L13.2,6.75 L14.25,6.75 L14.25,6 L12.45,6 L12.45,9 L14.4,9 L14.4,8.4 L14.4,8.4 Z M19.2,8.4 C19.05,8.4 18.75,8.4 18.45,8.25 L18.45,8.25 L18.3,8.85 L18.3,8.85 C18.45,9 18.75,9 19.05,9 C19.95,9 20.25,8.55 20.25,8.1 C20.25,7.65 19.95,7.35 19.5,7.2 C19.05,7.05 19.05,7.05 19.05,6.9 C19.05,6.75 19.2,6.6 19.5,6.6 C19.65,6.6 19.95,6.6 20.1,6.75 L20.1,6.75 L20.25,6.15 L20.25,6.15 C20.1,6 19.8,6 19.5,6 C18.9,6 18.45,6.3 18.45,6.9 C18.45,7.35 18.75,7.65 19.2,7.8 C19.5,7.95 19.65,7.95 19.65,8.1 C19.65,8.25 19.5,8.4 19.2,8.4 L19.2,8.4 Z M10.2,6.9 L11.25,8.85 L12,8.85 L12,6 L11.4,6 L11.4,7.8 L10.5,6 L9.75,6 L9.75,9 L10.35,9 C10.2,9 10.2,6.9 10.2,6.9 L10.2,6.9 Z M3,33 L3,3 L27,3 L27,20.25 C27,26.4 18,24 18,24 C18,24 20.25,33 14.1,33 L3,33 L3,33 Z M30,21.6 L30,0 L0,0 L0,36 L15.3,36 C20.1,36 30,25.2 30,21.6 L30,21.6 Z" id="Shape"></path>
                    </g>
                </g>
            </g>
        </g>
    </g>
</svg>