<?xml version="1.0" encoding="utf-8"?>
<!-- Generator: Adobe Illustrator 18.1.1, SVG Export Plug-In . SVG Version: 6.00 Build 0)  -->
<!DOCTYPE svg PUBLIC "-//W3C//DTD SVG 1.1//EN" "http://www.w3.org/Graphics/SVG/1.1/DTD/svg11.dtd">
<svg version="1.1" id="Layer_1" xmlns:ev="http://www.w3.org/2001/xml-events"
	 xmlns="http://www.w3.org/2000/svg" xmlns:xlink="http://www.w3.org/1999/xlink" x="0px" y="0px" viewBox="-151 152 297 297"
	 enable-background="new -151 152 297 297" xml:space="preserve">
<desc></desc>
<g>
	<g>
		<rect id="p" x="-115" y="188" fill="#5b5b5b" width="9" height="9"/>
	</g>
	<g>
		<rect id="p_1_" x="-115" y="197" fill="#5b5b5b" width="9" height="9"/>
	</g>
	<g>
		<rect id="p_2_" x="-115" y="206" fill="#5b5b5b" width="9" height="9"/>
	</g>
	<g>
		<rect id="p_3_" x="-115" y="215" fill="#5b5b5b" width="9" height="9"/>
	</g>
	<g>
		<rect id="p_4_" x="-115" y="224" fill="#5b5b5b" width="9" height="9"/>
	</g>
	<g>
		<rect id="p_5_" x="-115" y="233" fill="#5b5b5b" width="9" height="9"/>
	</g>
	<g>
		<rect id="p_6_" x="-115" y="242" fill="#5b5b5b" width="9" height="9"/>
	</g>
	<g>
		<rect id="p_7_" x="-115" y="260" fill="#5b5b5b" width="9" height="9"/>
	</g>
	<g>
		<rect id="p_8_" x="-115" y="269" fill="#5b5b5b" width="9" height="9"/>
	</g>
	<g>
		<rect id="p_9_" x="-115" y="287" fill="#5b5b5b" width="9" height="9"/>
	</g>
	<g>
		<rect id="p_10_" x="-115" y="305" fill="#5b5b5b" width="9" height="9"/>
	</g>
	<g>
		<rect id="p_11_" x="-115" y="323" fill="#5b5b5b" width="9" height="9"/>
	</g>
	<g>
		<rect id="p_12_" x="-115" y="350" fill="#5b5b5b" width="9" height="9"/>
	</g>
	<g>
		<rect id="p_13_" x="-115" y="359" fill="#5b5b5b" width="9" height="9"/>
	</g>
	<g>
		<rect id="p_14_" x="-115" y="368" fill="#5b5b5b" width="9" height="9"/>
	</g>
	<g>
		<rect id="p_15_" x="-115" y="377" fill="#5b5b5b" width="9" height="9"/>
	</g>
	<g>
		<rect id="p_16_" x="-115" y="386" fill="#5b5b5b" width="9" height="9"/>
	</g>
	<g>
		<rect id="p_17_" x="-115" y="395" fill="#5b5b5b" width="9" height="9"/>
	</g>
	<g>
		<rect id="p_18_" x="-115" y="404" fill="#5b5b5b" width="9" height="9"/>
	</g>
	<g>
		<rect id="p_19_" x="-106" y="188" fill="#5b5b5b" width="9" height="9"/>
	</g>
	<g>
		<rect id="p_20_" x="-106" y="242" fill="#5b5b5b" width="9" height="9"/>
	</g>
	<g>
		<rect id="p_21_" x="-106" y="269" fill="#5b5b5b" width="9" height="9"/>
	</g>
	<g>
		<rect id="p_22_" x="-106" y="287" fill="#5b5b5b" width="9" height="9"/>
	</g>
	<g>
		<rect id="p_23_" x="-106" y="296" fill="#5b5b5b" width="9" height="9"/>
	</g>
	<g>
		<rect id="p_24_" x="-106" y="314" fill="#5b5b5b" width="9" height="9"/>
	</g>
	<g>
		<rect id="p_25_" x="-106" y="332" fill="#5b5b5b" width="9" height="9"/>
	</g>
	<g>
		<rect id="p_26_" x="-106" y="350" fill="#5b5b5b" width="9" height="9"/>
	</g>
	<g>
		<rect id="p_27_" x="-106" y="404" fill="#5b5b5b" width="9" height="9"/>
	</g>
	<g>
		<rect id="p_28_" x="-97" y="188" fill="#5b5b5b" width="9" height="9"/>
	</g>
	<g>
		<rect id="p_29_" x="-97" y="206" fill="#5b5b5b" width="9" height="9"/>
	</g>
	<g>
		<rect id="p_30_" x="-97" y="215" fill="#5b5b5b" width="9" height="9"/>
	</g>
	<g>
		<rect id="p_31_" x="-97" y="224" fill="#5b5b5b" width="9" height="9"/>
	</g>
	<g>
		<rect id="p_32_" x="-97" y="242" fill="#5b5b5b" width="9" height="9"/>
	</g>
	<g>
		<rect id="p_33_" x="-97" y="260" fill="#5b5b5b" width="9" height="9"/>
	</g>
	<g>
		<rect id="p_34_" x="-97" y="269" fill="#5b5b5b" width="9" height="9"/>
	</g>
	<g>
		<rect id="p_35_" x="-97" y="323" fill="#5b5b5b" width="9" height="9"/>
	</g>
	<g>
		<rect id="p_36_" x="-97" y="332" fill="#5b5b5b" width="9" height="9"/>
	</g>
	<g>
		<rect id="p_37_" x="-97" y="350" fill="#5b5b5b" width="9" height="9"/>
	</g>
	<g>
		<rect id="p_38_" x="-97" y="368" fill="#5b5b5b" width="9" height="9"/>
	</g>
	<g>
		<rect id="p_39_" x="-97" y="377" fill="#5b5b5b" width="9" height="9"/>
	</g>
	<g>
		<rect id="p_40_" x="-97" y="386" fill="#5b5b5b" width="9" height="9"/>
	</g>
	<g>
		<rect id="p_41_" x="-97" y="404" fill="#5b5b5b" width="9" height="9"/>
	</g>
	<g>
		<rect id="p_42_" x="-88" y="188" fill="#5b5b5b" width="9" height="9"/>
	</g>
	<g>
		<rect id="p_43_" x="-88" y="206" fill="#5b5b5b" width="9" height="9"/>
	</g>
	<g>
		<rect id="p_44_" x="-88" y="215" fill="#5b5b5b" width="9" height="9"/>
	</g>
	<g>
		<rect id="p_45_" x="-88" y="224" fill="#5b5b5b" width="9" height="9"/>
	</g>
	<g>
		<rect id="p_46_" x="-88" y="242" fill="#5b5b5b" width="9" height="9"/>
	</g>
	<g>
		<rect id="p_47_" x="-88" y="278" fill="#5b5b5b" width="9" height="9"/>
	</g>
	<g>
		<rect id="p_48_" x="-88" y="287" fill="#5b5b5b" width="9" height="9"/>
	</g>
	<g>
		<rect id="p_49_" x="-88" y="296" fill="#5b5b5b" width="9" height="9"/>
	</g>
	<g>
		<rect id="p_50_" x="-88" y="323" fill="#5b5b5b" width="9" height="9"/>
	</g>
	<g>
		<rect id="p_51_" x="-88" y="350" fill="#5b5b5b" width="9" height="9"/>
	</g>
	<g>
		<rect id="p_52_" x="-88" y="368" fill="#5b5b5b" width="9" height="9"/>
	</g>
	<g>
		<rect id="p_53_" x="-88" y="377" fill="#5b5b5b" width="9" height="9"/>
	</g>
	<g>
		<rect id="p_54_" x="-88" y="386" fill="#5b5b5b" width="9" height="9"/>
	</g>
	<g>
		<rect id="p_55_" x="-88" y="404" fill="#5b5b5b" width="9" height="9"/>
	</g>
	<g>
		<rect id="p_56_" x="-79" y="188" fill="#5b5b5b" width="9" height="9"/>
	</g>
	<g>
		<rect id="p_57_" x="-79" y="206" fill="#5b5b5b" width="9" height="9"/>
	</g>
	<g>
		<rect id="p_58_" x="-79" y="215" fill="#5b5b5b" width="9" height="9"/>
	</g>
	<g>
		<rect id="p_59_" x="-79" y="224" fill="#5b5b5b" width="9" height="9"/>
	</g>
	<g>
		<rect id="p_60_" x="-79" y="242" fill="#5b5b5b" width="9" height="9"/>
	</g>
	<g>
		<rect id="p_61_" x="-79" y="260" fill="#5b5b5b" width="9" height="9"/>
	</g>
	<g>
		<rect id="p_62_" x="-79" y="296" fill="#5b5b5b" width="9" height="9"/>
	</g>
	<g>
		<rect id="p_63_" x="-79" y="305" fill="#5b5b5b" width="9" height="9"/>
	</g>
	<g>
		<rect id="p_64_" x="-79" y="323" fill="#5b5b5b" width="9" height="9"/>
	</g>
	<g>
		<rect id="p_65_" x="-79" y="332" fill="#5b5b5b" width="9" height="9"/>
	</g>
	<g>
		<rect id="p_66_" x="-79" y="350" fill="#5b5b5b" width="9" height="9"/>
	</g>
	<g>
		<rect id="p_67_" x="-79" y="368" fill="#5b5b5b" width="9" height="9"/>
	</g>
	<g>
		<rect id="p_68_" x="-79" y="377" fill="#5b5b5b" width="9" height="9"/>
	</g>
	<g>
		<rect id="p_69_" x="-79" y="386" fill="#5b5b5b" width="9" height="9"/>
	</g>
	<g>
		<rect id="p_70_" x="-79" y="404" fill="#5b5b5b" width="9" height="9"/>
	</g>
	<g>
		<rect id="p_71_" x="-70" y="188" fill="#5b5b5b" width="9" height="9"/>
	</g>
	<g>
		<rect id="p_72_" x="-70" y="242" fill="#5b5b5b" width="9" height="9"/>
	</g>
	<g>
		<rect id="p_73_" x="-70" y="278" fill="#5b5b5b" width="9" height="9"/>
	</g>
	<g>
		<rect id="p_74_" x="-70" y="287" fill="#5b5b5b" width="9" height="9"/>
	</g>
	<g>
		<rect id="p_75_" x="-70" y="296" fill="#5b5b5b" width="9" height="9"/>
	</g>
	<g>
		<rect id="p_76_" x="-70" y="314" fill="#5b5b5b" width="9" height="9"/>
	</g>
	<g>
		<rect id="p_77_" x="-70" y="323" fill="#5b5b5b" width="9" height="9"/>
	</g>
	<g>
		<rect id="p_78_" x="-70" y="350" fill="#5b5b5b" width="9" height="9"/>
	</g>
	<g>
		<rect id="p_79_" x="-70" y="404" fill="#5b5b5b" width="9" height="9"/>
	</g>
	<g>
		<rect id="p_80_" x="-61" y="188" fill="#5b5b5b" width="9" height="9"/>
	</g>
	<g>
		<rect id="p_81_" x="-61" y="197" fill="#5b5b5b" width="9" height="9"/>
	</g>
	<g>
		<rect id="p_82_" x="-61" y="206" fill="#5b5b5b" width="9" height="9"/>
	</g>
	<g>
		<rect id="p_83_" x="-61" y="215" fill="#5b5b5b" width="9" height="9"/>
	</g>
	<g>
		<rect id="p_84_" x="-61" y="224" fill="#5b5b5b" width="9" height="9"/>
	</g>
	<g>
		<rect id="p_85_" x="-61" y="233" fill="#5b5b5b" width="9" height="9"/>
	</g>
	<g>
		<rect id="p_86_" x="-61" y="242" fill="#5b5b5b" width="9" height="9"/>
	</g>
	<g>
		<rect id="p_87_" x="-61" y="260" fill="#5b5b5b" width="9" height="9"/>
	</g>
	<g>
		<rect id="p_88_" x="-61" y="278" fill="#5b5b5b" width="9" height="9"/>
	</g>
	<g>
		<rect id="p_89_" x="-61" y="296" fill="#5b5b5b" width="9" height="9"/>
	</g>
	<g>
		<rect id="p_90_" x="-61" y="314" fill="#5b5b5b" width="9" height="9"/>
	</g>
	<g>
		<rect id="p_91_" x="-61" y="332" fill="#5b5b5b" width="9" height="9"/>
	</g>
	<g>
		<rect id="p_92_" x="-61" y="350" fill="#5b5b5b" width="9" height="9"/>
	</g>
	<g>
		<rect id="p_93_" x="-61" y="359" fill="#5b5b5b" width="9" height="9"/>
	</g>
	<g>
		<rect id="p_94_" x="-61" y="368" fill="#5b5b5b" width="9" height="9"/>
	</g>
	<g>
		<rect id="p_95_" x="-61" y="377" fill="#5b5b5b" width="9" height="9"/>
	</g>
	<g>
		<rect id="p_96_" x="-61" y="386" fill="#5b5b5b" width="9" height="9"/>
	</g>
	<g>
		<rect id="p_97_" x="-61" y="395" fill="#5b5b5b" width="9" height="9"/>
	</g>
	<g>
		<rect id="p_98_" x="-61" y="404" fill="#5b5b5b" width="9" height="9"/>
	</g>
	<g>
		<rect id="p_99_" x="-52" y="269" fill="#5b5b5b" width="9" height="9"/>
	</g>
	<g>
		<rect id="p_100_" x="-52" y="278" fill="#5b5b5b" width="9" height="9"/>
	</g>
	<g>
		<rect id="p_101_" x="-52" y="287" fill="#5b5b5b" width="9" height="9"/>
	</g>
	<g>
		<rect id="p_102_" x="-52" y="296" fill="#5b5b5b" width="9" height="9"/>
	</g>
	<g>
		<rect id="p_103_" x="-52" y="305" fill="#5b5b5b" width="9" height="9"/>
	</g>
	<g>
		<rect id="p_104_" x="-52" y="323" fill="#5b5b5b" width="9" height="9"/>
	</g>
	<g>
		<rect id="p_105_" x="-52" y="332" fill="#5b5b5b" width="9" height="9"/>
	</g>
	<g>
		<rect id="p_106_" x="-43" y="197" fill="#5b5b5b" width="9" height="9"/>
	</g>
	<g>
		<rect id="p_107_" x="-43" y="224" fill="#5b5b5b" width="9" height="9"/>
	</g>
	<g>
		<rect id="p_108_" x="-43" y="242" fill="#5b5b5b" width="9" height="9"/>
	</g>
	<g>
		<rect id="p_109_" x="-43" y="269" fill="#5b5b5b" width="9" height="9"/>
	</g>
	<g>
		<rect id="p_110_" x="-43" y="278" fill="#5b5b5b" width="9" height="9"/>
	</g>
	<g>
		<rect id="p_111_" x="-43" y="287" fill="#5b5b5b" width="9" height="9"/>
	</g>
	<g>
		<rect id="p_112_" x="-43" y="296" fill="#5b5b5b" width="9" height="9"/>
	</g>
	<g>
		<rect id="p_113_" x="-43" y="314" fill="#5b5b5b" width="9" height="9"/>
	</g>
	<g>
		<rect id="p_114_" x="-43" y="341" fill="#5b5b5b" width="9" height="9"/>
	</g>
	<g>
		<rect id="p_115_" x="-43" y="368" fill="#5b5b5b" width="9" height="9"/>
	</g>
	<g>
		<rect id="p_116_" x="-43" y="386" fill="#5b5b5b" width="9" height="9"/>
	</g>
	<g>
		<rect id="p_117_" x="-43" y="404" fill="#5b5b5b" width="9" height="9"/>
	</g>
	<g>
		<rect id="p_118_" x="-34" y="188" fill="#5b5b5b" width="9" height="9"/>
	</g>
	<g>
		<rect id="p_119_" x="-34" y="197" fill="#5b5b5b" width="9" height="9"/>
	</g>
	<g>
		<rect id="p_120_" x="-34" y="224" fill="#5b5b5b" width="9" height="9"/>
	</g>
	<g>
		<rect id="p_121_" x="-34" y="233" fill="#5b5b5b" width="9" height="9"/>
	</g>
	<g>
		<rect id="p_122_" x="-34" y="251" fill="#5b5b5b" width="9" height="9"/>
	</g>
	<g>
		<rect id="p_123_" x="-34" y="260" fill="#5b5b5b" width="9" height="9"/>
	</g>
	<g>
		<rect id="p_124_" x="-34" y="269" fill="#5b5b5b" width="9" height="9"/>
	</g>
	<g>
		<rect id="p_125_" x="-34" y="305" fill="#5b5b5b" width="9" height="9"/>
	</g>
	<g>
		<rect id="p_126_" x="-34" y="332" fill="#5b5b5b" width="9" height="9"/>
	</g>
	<g>
		<rect id="p_127_" x="-34" y="341" fill="#5b5b5b" width="9" height="9"/>
	</g>
	<g>
		<rect id="p_128_" x="-34" y="359" fill="#5b5b5b" width="9" height="9"/>
	</g>
	<g>
		<rect id="p_129_" x="-34" y="368" fill="#5b5b5b" width="9" height="9"/>
	</g>
	<g>
		<rect id="p_130_" x="-25" y="188" fill="#5b5b5b" width="9" height="9"/>
	</g>
	<g>
		<rect id="p_131_" x="-25" y="215" fill="#5b5b5b" width="9" height="9"/>
	</g>
	<g>
		<rect id="p_132_" x="-25" y="233" fill="#5b5b5b" width="9" height="9"/>
	</g>
	<g>
		<rect id="p_133_" x="-25" y="242" fill="#5b5b5b" width="9" height="9"/>
	</g>
	<g>
		<rect id="p_134_" x="-25" y="251" fill="#5b5b5b" width="9" height="9"/>
	</g>
	<g>
		<rect id="p_135_" x="-25" y="260" fill="#5b5b5b" width="9" height="9"/>
	</g>
	<g>
		<rect id="p_136_" x="-25" y="341" fill="#5b5b5b" width="9" height="9"/>
	</g>
	<g>
		<rect id="p_137_" x="-25" y="350" fill="#5b5b5b" width="9" height="9"/>
	</g>
	<g>
		<rect id="p_138_" x="-25" y="359" fill="#5b5b5b" width="9" height="9"/>
	</g>
	<g>
		<rect id="p_139_" x="-25" y="368" fill="#5b5b5b" width="9" height="9"/>
	</g>
	<g>
		<rect id="p_140_" x="-25" y="377" fill="#5b5b5b" width="9" height="9"/>
	</g>
	<g>
		<rect id="p_141_" x="-25" y="386" fill="#5b5b5b" width="9" height="9"/>
	</g>
	<g>
		<rect id="p_142_" x="-16" y="197" fill="#5b5b5b" width="9" height="9"/>
	</g>
	<g>
		<rect id="p_143_" x="-16" y="206" fill="#5b5b5b" width="9" height="9"/>
	</g>
	<g>
		<rect id="p_144_" x="-16" y="224" fill="#5b5b5b" width="9" height="9"/>
	</g>
	<g>
		<rect id="p_145_" x="-16" y="269" fill="#5b5b5b" width="9" height="9"/>
	</g>
	<g>
		<rect id="p_146_" x="-16" y="296" fill="#5b5b5b" width="9" height="9"/>
	</g>
	<g>
		<rect id="p_147_" x="-16" y="305" fill="#5b5b5b" width="9" height="9"/>
	</g>
	<g>
		<rect id="p_148_" x="-16" y="323" fill="#5b5b5b" width="9" height="9"/>
	</g>
	<g>
		<rect id="p_149_" x="-16" y="341" fill="#5b5b5b" width="9" height="9"/>
	</g>
	<g>
		<rect id="p_150_" x="-16" y="350" fill="#5b5b5b" width="9" height="9"/>
	</g>
	<g>
		<rect id="p_151_" x="-16" y="368" fill="#5b5b5b" width="9" height="9"/>
	</g>
	<g>
		<rect id="p_152_" x="-16" y="377" fill="#5b5b5b" width="9" height="9"/>
	</g>
	<g>
		<rect id="p_153_" x="-16" y="395" fill="#5b5b5b" width="9" height="9"/>
	</g>
	<g>
		<rect id="p_154_" x="-16" y="404" fill="#5b5b5b" width="9" height="9"/>
	</g>
	<g>
		<rect id="p_155_" x="-7" y="188" fill="#5b5b5b" width="9" height="9"/>
	</g>
	<g>
		<rect id="p_156_" x="-7" y="215" fill="#5b5b5b" width="9" height="9"/>
	</g>
	<g>
		<rect id="p_157_" x="-7" y="233" fill="#5b5b5b" width="9" height="9"/>
	</g>
	<g>
		<rect id="p_158_" x="-7" y="242" fill="#5b5b5b" width="9" height="9"/>
	</g>
	<g>
		<rect id="p_159_" x="-7" y="332" fill="#5b5b5b" width="9" height="9"/>
	</g>
	<g>
		<rect id="p_160_" x="-7" y="341" fill="#5b5b5b" width="9" height="9"/>
	</g>
	<g>
		<rect id="p_161_" x="-7" y="350" fill="#5b5b5b" width="9" height="9"/>
	</g>
	<g>
		<rect id="p_162_" x="-7" y="359" fill="#5b5b5b" width="9" height="9"/>
	</g>
	<g>
		<rect id="p_163_" x="-7" y="368" fill="#5b5b5b" width="9" height="9"/>
	</g>
	<g>
		<rect id="p_164_" x="-7" y="395" fill="#5b5b5b" width="9" height="9"/>
	</g>
	<g>
		<rect id="p_165_" x="-7" y="404" fill="#5b5b5b" width="9" height="9"/>
	</g>
	<g>
		<rect id="p_166_" x="2" y="197" fill="#5b5b5b" width="9" height="9"/>
	</g>
	<g>
		<rect id="p_167_" x="2" y="233" fill="#5b5b5b" width="9" height="9"/>
	</g>
	<g>
		<rect id="p_168_" x="2" y="251" fill="#5b5b5b" width="9" height="9"/>
	</g>
	<g>
		<rect id="p_169_" x="2" y="260" fill="#5b5b5b" width="9" height="9"/>
	</g>
	<g>
		<rect id="p_170_" x="2" y="269" fill="#5b5b5b" width="9" height="9"/>
	</g>
	<g>
		<rect id="p_171_" x="2" y="278" fill="#5b5b5b" width="9" height="9"/>
	</g>
	<g>
		<rect id="p_172_" x="2" y="287" fill="#5b5b5b" width="9" height="9"/>
	</g>
	<g>
		<rect id="p_173_" x="2" y="296" fill="#5b5b5b" width="9" height="9"/>
	</g>
	<g>
		<rect id="p_174_" x="2" y="314" fill="#5b5b5b" width="9" height="9"/>
	</g>
	<g>
		<rect id="p_175_" x="2" y="323" fill="#5b5b5b" width="9" height="9"/>
	</g>
	<g>
		<rect id="p_176_" x="2" y="332" fill="#5b5b5b" width="9" height="9"/>
	</g>
	<g>
		<rect id="p_177_" x="2" y="341" fill="#5b5b5b" width="9" height="9"/>
	</g>
	<g>
		<rect id="p_178_" x="2" y="350" fill="#5b5b5b" width="9" height="9"/>
	</g>
	<g>
		<rect id="p_179_" x="2" y="359" fill="#5b5b5b" width="9" height="9"/>
	</g>
	<g>
		<rect id="p_180_" x="2" y="368" fill="#5b5b5b" width="9" height="9"/>
	</g>
	<g>
		<rect id="p_181_" x="2" y="386" fill="#5b5b5b" width="9" height="9"/>
	</g>
	<g>
		<rect id="p_182_" x="2" y="395" fill="#5b5b5b" width="9" height="9"/>
	</g>
	<g>
		<rect id="p_183_" x="2" y="404" fill="#5b5b5b" width="9" height="9"/>
	</g>
	<g>
		<rect id="p_184_" x="11" y="188" fill="#5b5b5b" width="9" height="9"/>
	</g>
	<g>
		<rect id="p_185_" x="11" y="197" fill="#5b5b5b" width="9" height="9"/>
	</g>
	<g>
		<rect id="p_186_" x="11" y="206" fill="#5b5b5b" width="9" height="9"/>
	</g>
	<g>
		<rect id="p_187_" x="11" y="215" fill="#5b5b5b" width="9" height="9"/>
	</g>
	<g>
		<rect id="p_188_" x="11" y="224" fill="#5b5b5b" width="9" height="9"/>
	</g>
	<g>
		<rect id="p_189_" x="11" y="242" fill="#5b5b5b" width="9" height="9"/>
	</g>
	<g>
		<rect id="p_190_" x="11" y="251" fill="#5b5b5b" width="9" height="9"/>
	</g>
	<g>
		<rect id="p_191_" x="11" y="278" fill="#5b5b5b" width="9" height="9"/>
	</g>
	<g>
		<rect id="p_192_" x="11" y="296" fill="#5b5b5b" width="9" height="9"/>
	</g>
	<g>
		<rect id="p_193_" x="11" y="350" fill="#5b5b5b" width="9" height="9"/>
	</g>
	<g>
		<rect id="p_194_" x="11" y="359" fill="#5b5b5b" width="9" height="9"/>
	</g>
	<g>
		<rect id="p_195_" x="11" y="395" fill="#5b5b5b" width="9" height="9"/>
	</g>
	<g>
		<rect id="p_196_" x="20" y="188" fill="#5b5b5b" width="9" height="9"/>
	</g>
	<g>
		<rect id="p_197_" x="20" y="197" fill="#5b5b5b" width="9" height="9"/>
	</g>
	<g>
		<rect id="p_198_" x="20" y="206" fill="#5b5b5b" width="9" height="9"/>
	</g>
	<g>
		<rect id="p_199_" x="20" y="215" fill="#5b5b5b" width="9" height="9"/>
	</g>
	<g>
		<rect id="p_200_" x="20" y="224" fill="#5b5b5b" width="9" height="9"/>
	</g>
	<g>
		<rect id="p_201_" x="20" y="233" fill="#5b5b5b" width="9" height="9"/>
	</g>
	<g>
		<rect id="p_202_" x="20" y="251" fill="#5b5b5b" width="9" height="9"/>
	</g>
	<g>
		<rect id="p_203_" x="20" y="287" fill="#5b5b5b" width="9" height="9"/>
	</g>
	<g>
		<rect id="p_204_" x="20" y="323" fill="#5b5b5b" width="9" height="9"/>
	</g>
	<g>
		<rect id="p_205_" x="20" y="341" fill="#5b5b5b" width="9" height="9"/>
	</g>
	<g>
		<rect id="p_206_" x="20" y="350" fill="#5b5b5b" width="9" height="9"/>
	</g>
	<g>
		<rect id="p_207_" x="20" y="386" fill="#5b5b5b" width="9" height="9"/>
	</g>
	<g>
		<rect id="p_208_" x="20" y="395" fill="#5b5b5b" width="9" height="9"/>
	</g>
	<g>
		<rect id="p_209_" x="20" y="404" fill="#5b5b5b" width="9" height="9"/>
	</g>
	<g>
		<rect id="p_210_" x="29" y="197" fill="#5b5b5b" width="9" height="9"/>
	</g>
	<g>
		<rect id="p_211_" x="29" y="206" fill="#5b5b5b" width="9" height="9"/>
	</g>
	<g>
		<rect id="p_212_" x="29" y="215" fill="#5b5b5b" width="9" height="9"/>
	</g>
	<g>
		<rect id="p_213_" x="29" y="233" fill="#5b5b5b" width="9" height="9"/>
	</g>
	<g>
		<rect id="p_214_" x="29" y="242" fill="#5b5b5b" width="9" height="9"/>
	</g>
	<g>
		<rect id="p_215_" x="29" y="260" fill="#5b5b5b" width="9" height="9"/>
	</g>
	<g>
		<rect id="p_216_" x="29" y="269" fill="#5b5b5b" width="9" height="9"/>
	</g>
	<g>
		<rect id="p_217_" x="29" y="278" fill="#5b5b5b" width="9" height="9"/>
	</g>
	<g>
		<rect id="p_218_" x="29" y="287" fill="#5b5b5b" width="9" height="9"/>
	</g>
	<g>
		<rect id="p_219_" x="29" y="296" fill="#5b5b5b" width="9" height="9"/>
	</g>
	<g>
		<rect id="p_220_" x="29" y="305" fill="#5b5b5b" width="9" height="9"/>
	</g>
	<g>
		<rect id="p_221_" x="29" y="332" fill="#5b5b5b" width="9" height="9"/>
	</g>
	<g>
		<rect id="p_222_" x="29" y="341" fill="#5b5b5b" width="9" height="9"/>
	</g>
	<g>
		<rect id="p_223_" x="29" y="350" fill="#5b5b5b" width="9" height="9"/>
	</g>
	<g>
		<rect id="p_224_" x="29" y="359" fill="#5b5b5b" width="9" height="9"/>
	</g>
	<g>
		<rect id="p_225_" x="29" y="368" fill="#5b5b5b" width="9" height="9"/>
	</g>
	<g>
		<rect id="p_226_" x="29" y="377" fill="#5b5b5b" width="9" height="9"/>
	</g>
	<g>
		<rect id="p_227_" x="29" y="395" fill="#5b5b5b" width="9" height="9"/>
	</g>
	<g>
		<rect id="p_228_" x="29" y="404" fill="#5b5b5b" width="9" height="9"/>
	</g>
	<g>
		<rect id="p_229_" x="38" y="269" fill="#5b5b5b" width="9" height="9"/>
	</g>
	<g>
		<rect id="p_230_" x="38" y="296" fill="#5b5b5b" width="9" height="9"/>
	</g>
	<g>
		<rect id="p_231_" x="38" y="305" fill="#5b5b5b" width="9" height="9"/>
	</g>
	<g>
		<rect id="p_232_" x="38" y="323" fill="#5b5b5b" width="9" height="9"/>
	</g>
	<g>
		<rect id="p_233_" x="38" y="332" fill="#5b5b5b" width="9" height="9"/>
	</g>
	<g>
		<rect id="p_234_" x="38" y="368" fill="#5b5b5b" width="9" height="9"/>
	</g>
	<g>
		<rect id="p_235_" x="38" y="395" fill="#5b5b5b" width="9" height="9"/>
	</g>
	<g>
		<rect id="p_236_" x="47" y="188" fill="#5b5b5b" width="9" height="9"/>
	</g>
	<g>
		<rect id="p_237_" x="47" y="197" fill="#5b5b5b" width="9" height="9"/>
	</g>
	<g>
		<rect id="p_238_" x="47" y="206" fill="#5b5b5b" width="9" height="9"/>
	</g>
	<g>
		<rect id="p_239_" x="47" y="215" fill="#5b5b5b" width="9" height="9"/>
	</g>
	<g>
		<rect id="p_240_" x="47" y="224" fill="#5b5b5b" width="9" height="9"/>
	</g>
	<g>
		<rect id="p_241_" x="47" y="233" fill="#5b5b5b" width="9" height="9"/>
	</g>
	<g>
		<rect id="p_242_" x="47" y="242" fill="#5b5b5b" width="9" height="9"/>
	</g>
	<g>
		<rect id="p_243_" x="47" y="269" fill="#5b5b5b" width="9" height="9"/>
	</g>
	<g>
		<rect id="p_244_" x="47" y="278" fill="#5b5b5b" width="9" height="9"/>
	</g>
	<g>
		<rect id="p_245_" x="47" y="296" fill="#5b5b5b" width="9" height="9"/>
	</g>
	<g>
		<rect id="p_246_" x="47" y="314" fill="#5b5b5b" width="9" height="9"/>
	</g>
	<g>
		<rect id="p_247_" x="47" y="332" fill="#5b5b5b" width="9" height="9"/>
	</g>
	<g>
		<rect id="p_248_" x="47" y="350" fill="#5b5b5b" width="9" height="9"/>
	</g>
	<g>
		<rect id="p_249_" x="47" y="368" fill="#5b5b5b" width="9" height="9"/>
	</g>
	<g>
		<rect id="p_250_" x="56" y="188" fill="#5b5b5b" width="9" height="9"/>
	</g>
	<g>
		<rect id="p_251_" x="56" y="242" fill="#5b5b5b" width="9" height="9"/>
	</g>
	<g>
		<rect id="p_252_" x="56" y="314" fill="#5b5b5b" width="9" height="9"/>
	</g>
	<g>
		<rect id="p_253_" x="56" y="323" fill="#5b5b5b" width="9" height="9"/>
	</g>
	<g>
		<rect id="p_254_" x="56" y="332" fill="#5b5b5b" width="9" height="9"/>
	</g>
	<g>
		<rect id="p_255_" x="56" y="368" fill="#5b5b5b" width="9" height="9"/>
	</g>
	<g>
		<rect id="p_256_" x="56" y="386" fill="#5b5b5b" width="9" height="9"/>
	</g>
	<g>
		<rect id="p_257_" x="65" y="188" fill="#5b5b5b" width="9" height="9"/>
	</g>
	<g>
		<rect id="p_258_" x="65" y="206" fill="#5b5b5b" width="9" height="9"/>
	</g>
	<g>
		<rect id="p_259_" x="65" y="215" fill="#5b5b5b" width="9" height="9"/>
	</g>
	<g>
		<rect id="p_260_" x="65" y="224" fill="#5b5b5b" width="9" height="9"/>
	</g>
	<g>
		<rect id="p_261_" x="65" y="242" fill="#5b5b5b" width="9" height="9"/>
	</g>
	<g>
		<rect id="p_262_" x="65" y="260" fill="#5b5b5b" width="9" height="9"/>
	</g>
	<g>
		<rect id="p_263_" x="65" y="278" fill="#5b5b5b" width="9" height="9"/>
	</g>
	<g>
		<rect id="p_264_" x="65" y="332" fill="#5b5b5b" width="9" height="9"/>
	</g>
	<g>
		<rect id="p_265_" x="65" y="341" fill="#5b5b5b" width="9" height="9"/>
	</g>
	<g>
		<rect id="p_266_" x="65" y="350" fill="#5b5b5b" width="9" height="9"/>
	</g>
	<g>
		<rect id="p_267_" x="65" y="359" fill="#5b5b5b" width="9" height="9"/>
	</g>
	<g>
		<rect id="p_268_" x="65" y="368" fill="#5b5b5b" width="9" height="9"/>
	</g>
	<g>
		<rect id="p_269_" x="65" y="377" fill="#5b5b5b" width="9" height="9"/>
	</g>
	<g>
		<rect id="p_270_" x="65" y="386" fill="#5b5b5b" width="9" height="9"/>
	</g>
	<g>
		<rect id="p_271_" x="65" y="404" fill="#5b5b5b" width="9" height="9"/>
	</g>
	<g>
		<rect id="p_272_" x="74" y="188" fill="#5b5b5b" width="9" height="9"/>
	</g>
	<g>
		<rect id="p_273_" x="74" y="206" fill="#5b5b5b" width="9" height="9"/>
	</g>
	<g>
		<rect id="p_274_" x="74" y="215" fill="#5b5b5b" width="9" height="9"/>
	</g>
	<g>
		<rect id="p_275_" x="74" y="224" fill="#5b5b5b" width="9" height="9"/>
	</g>
	<g>
		<rect id="p_276_" x="74" y="242" fill="#5b5b5b" width="9" height="9"/>
	</g>
	<g>
		<rect id="p_277_" x="74" y="305" fill="#5b5b5b" width="9" height="9"/>
	</g>
	<g>
		<rect id="p_278_" x="74" y="314" fill="#5b5b5b" width="9" height="9"/>
	</g>
	<g>
		<rect id="p_279_" x="74" y="332" fill="#5b5b5b" width="9" height="9"/>
	</g>
	<g>
		<rect id="p_280_" x="74" y="341" fill="#5b5b5b" width="9" height="9"/>
	</g>
	<g>
		<rect id="p_281_" x="74" y="350" fill="#5b5b5b" width="9" height="9"/>
	</g>
	<g>
		<rect id="p_282_" x="83" y="188" fill="#5b5b5b" width="9" height="9"/>
	</g>
	<g>
		<rect id="p_283_" x="83" y="206" fill="#5b5b5b" width="9" height="9"/>
	</g>
	<g>
		<rect id="p_284_" x="83" y="215" fill="#5b5b5b" width="9" height="9"/>
	</g>
	<g>
		<rect id="p_285_" x="83" y="224" fill="#5b5b5b" width="9" height="9"/>
	</g>
	<g>
		<rect id="p_286_" x="83" y="242" fill="#5b5b5b" width="9" height="9"/>
	</g>
	<g>
		<rect id="p_287_" x="83" y="278" fill="#5b5b5b" width="9" height="9"/>
	</g>
	<g>
		<rect id="p_288_" x="83" y="314" fill="#5b5b5b" width="9" height="9"/>
	</g>
	<g>
		<rect id="p_289_" x="83" y="386" fill="#5b5b5b" width="9" height="9"/>
	</g>
	<g>
		<rect id="p_290_" x="92" y="188" fill="#5b5b5b" width="9" height="9"/>
	</g>
	<g>
		<rect id="p_291_" x="92" y="242" fill="#5b5b5b" width="9" height="9"/>
	</g>
	<g>
		<rect id="p_292_" x="92" y="260" fill="#5b5b5b" width="9" height="9"/>
	</g>
	<g>
		<rect id="p_293_" x="92" y="269" fill="#5b5b5b" width="9" height="9"/>
	</g>
	<g>
		<rect id="p_294_" x="92" y="278" fill="#5b5b5b" width="9" height="9"/>
	</g>
	<g>
		<rect id="p_295_" x="92" y="314" fill="#5b5b5b" width="9" height="9"/>
	</g>
	<g>
		<rect id="p_296_" x="92" y="341" fill="#5b5b5b" width="9" height="9"/>
	</g>
	<g>
		<rect id="p_297_" x="92" y="350" fill="#5b5b5b" width="9" height="9"/>
	</g>
	<g>
		<rect id="p_298_" x="92" y="359" fill="#5b5b5b" width="9" height="9"/>
	</g>
	<g>
		<rect id="p_299_" x="92" y="395" fill="#5b5b5b" width="9" height="9"/>
	</g>
	<g>
		<rect id="p_300_" x="92" y="404" fill="#5b5b5b" width="9" height="9"/>
	</g>
	<g>
		<rect id="p_301_" x="101" y="188" fill="#5b5b5b" width="9" height="9"/>
	</g>
	<g>
		<rect id="p_302_" x="101" y="197" fill="#5b5b5b" width="9" height="9"/>
	</g>
	<g>
		<rect id="p_303_" x="101" y="206" fill="#5b5b5b" width="9" height="9"/>
	</g>
	<g>
		<rect id="p_304_" x="101" y="215" fill="#5b5b5b" width="9" height="9"/>
	</g>
	<g>
		<rect id="p_305_" x="101" y="224" fill="#5b5b5b" width="9" height="9"/>
	</g>
	<g>
		<rect id="p_306_" x="101" y="233" fill="#5b5b5b" width="9" height="9"/>
	</g>
	<g>
		<rect id="p_307_" x="101" y="242" fill="#5b5b5b" width="9" height="9"/>
	</g>
	<g>
		<rect id="p_308_" x="101" y="269" fill="#5b5b5b" width="9" height="9"/>
	</g>
	<g>
		<rect id="p_309_" x="101" y="278" fill="#5b5b5b" width="9" height="9"/>
	</g>
	<g>
		<rect id="p_310_" x="101" y="287" fill="#5b5b5b" width="9" height="9"/>
	</g>
	<g>
		<rect id="p_311_" x="101" y="296" fill="#5b5b5b" width="9" height="9"/>
	</g>
	<g>
		<rect id="p_312_" x="101" y="305" fill="#5b5b5b" width="9" height="9"/>
	</g>
	<g>
		<rect id="p_313_" x="101" y="314" fill="#5b5b5b" width="9" height="9"/>
	</g>
	<g>
		<rect id="p_314_" x="101" y="332" fill="#5b5b5b" width="9" height="9"/>
	</g>
	<g>
		<rect id="p_315_" x="101" y="341" fill="#5b5b5b" width="9" height="9"/>
	</g>
	<g>
		<rect id="p_316_" x="101" y="350" fill="#5b5b5b" width="9" height="9"/>
	</g>
	<g>
		<rect id="p_317_" x="101" y="386" fill="#5b5b5b" width="9" height="9"/>
	</g>
	<g>
		<rect id="p_318_" x="101" y="404" fill="#5b5b5b" width="9" height="9"/>
	</g>
</g>
</svg>
