<?xml version="1.0" encoding="utf-8"?>
<!-- Generator: Adobe Illustrator 18.1.1, SVG Export Plug-In . SVG Version: 6.00 Build 0)  -->
<!DOCTYPE svg PUBLIC "-//W3C//DTD SVG 1.1//EN" "http://www.w3.org/Graphics/SVG/1.1/DTD/svg11.dtd">
<svg version="1.1" id="Layer_1" xmlns="http://www.w3.org/2000/svg" xmlns:xlink="http://www.w3.org/1999/xlink" x="0px" y="0px" fill="#768d97"
	 width="50" height="50"  viewBox="0 0 800 500"  xml:space="preserve">
<style type="text/css">
	.st0{fill:#768d97;stroke:#000000;stroke-width:0.9082;stroke-miterlimit:10;}
</style>
<g>
	<path class="st0" d="M294.3,192.9"/>
	<path d="M294.8,192.9h-28.8c0,0,19.9-47.3,59.7-67.7c0,0,83.6-54.8,168.9,14.3c0,0,40.6,29.9,49.9,89.7h35.8l-47.3,48.5l-48.5-48.1
		h34c0,0-11.3-86.3-106.1-98.6C412.5,131,335.3,120.5,294.8,192.9z"/>
	<path d="M504.9,306.6h28.8c0,0-19.9,47.3-59.7,67.7c0,0-83.6,54.8-168.9-14.3c0,0-40.6-29.9-49.9-89.7h-35.8l47.3-48.5l48.5,48.1
		h-34c0,0,11.3,86.3,106.1,98.6C387.3,368.5,464.5,379,504.9,306.6z"/>
</g>
</svg>
