<?xml version="1.0" encoding="utf-8"?>
<!-- Generator: Adobe Illustrator 21.0.0, SVG Export Plug-In . SVG Version: 6.00 Build 0)  -->
<svg version="1.1" id="Layer_1" xmlns="http://www.w3.org/2000/svg" xmlns:xlink="http://www.w3.org/1999/xlink" x="0px" y="0px"
	 viewBox="0 0 50 50" style="enable-background:new 0 0 50 50;" xml:space="preserve">
<style type="text/css">
	.st0{fill:#455A64;stroke:#000000;stroke-width:2.0104;stroke-miterlimit:10;}
	.st1{fill:#455A64;}
</style>
<g>
	<path class="st0" d="M10.4,17.1"/>
	<path class="st1" d="M10.4,17.1h-4c0,0,2.8-6.5,8.3-9.4c0,0,11.5-7.6,23.4,1.9c0,0,5.6,4.2,6.9,12.4h5l-6.6,6.7l-6.7-6.6h4.7
		c0,0-1.5-11.9-14.7-13.7C26.7,8.6,16,7.1,10.4,17.1z"/>
	<path class="st1" d="M39.5,32.9h4c0,0-2.8,6.5-8.3,9.4c0,0-11.5,7.6-23.4-1.9c0,0-5.6-4.2-6.9-12.4H0l6.5-6.7l6.7,6.6H8.6
		c0,0,1.5,11.9,14.7,13.7C23.3,41.4,34,42.9,39.5,32.9z"/>
</g>
</svg>
