<?xml version="1.0" encoding="utf-8"?>
<!-- Generator: Adobe Illustrator 19.1.0, SVG Export Plug-In . SVG Version: 6.00 Build 0)  -->
<svg version="1.1" id="Layer_1" xmlns="http://www.w3.org/2000/svg" xmlns:xlink="http://www.w3.org/1999/xlink" x="0px" y="0px"
	 viewBox="87 13.6 302.9 103.4" style="enable-background:new 87 13.6 302.9 103.4;" xml:space="preserve">
<style type="text/css">
	.st0{display:none;}
	.st1{display:inline;}
	.st2{opacity:0.75;fill:#A4A4A4;enable-background:new    ;}
	.st3{opacity:0.75;fill:#FFFFFF;enable-background:new    ;}
	.st4{fill:none;stroke:#EDEDED;stroke-width:4;}
</style>
<g id="Page-1_1_" class="st0">
	<g id="Desktop_1_" transform="translate(-51.000000, -152.000000)" class="st1">
		<g id="bitcoin-here-gray" transform="translate(51.000000, 152.000000)">
			<g id="Group_2_">
				<g id="Bitcoin_Grayscale">
					<path id="Shape_3_" class="st2" d="M449.8,118.5c-6.8,27.8-35,44.6-62.6,37.7c-27.8-6.8-44.6-34.9-37.7-62.6
						c6.8-27.8,35-44.6,62.6-37.7C440,62.7,456.8,90.9,449.8,118.5L449.8,118.5L449.8,118.5z"/>
					<path id="Shape_2_" class="st3" d="M422.5,98.7c1-6.9-4.2-10.5-11.3-13.1l2.3-9.4l-5.7-1.3l-2.3,9.1c-1.4-0.3-3.1-0.6-4.5-1.1
						l2.3-9.2l-5.7-1.4l-2.3,9.4c-1.3-0.3-2.4-0.5-3.6-0.8l0,0l-7.8-1.9l-1.3,6c0,0,4.2,1,4.1,1c2.3,0.6,2.7,2.1,2.6,3.2l-2.7,10.6
						c0.1,0,0.3,0.1,0.6,0.1c-0.1,0-0.3-0.1-0.6-0.1l-3.7,14.9c-0.3,0.6-1,1.8-2.6,1.3c0,0.1-4.2-1-4.2-1l-2.8,6.5l7.4,1.8
						c1.4,0.3,2.7,0.6,4.1,1l-2.4,9.4l5.7,1.4l2.3-9.4c1.6,0.5,3.1,0.8,4.5,1.1l-2.3,9.2l5.7,1.4l2.4-9.4c9.7,1.8,17,1.1,20.1-7.6
						c2.4-7.1-0.1-11.2-5.2-13.7C418.9,106.2,421.7,103.8,422.5,98.7L422.5,98.7L422.5,98.7z M409.6,117c-1.8,7.1-13.6,3.2-17.5,2.3
						l3.1-12.4C399,107.7,411.3,109.5,409.6,117L409.6,117L409.6,117z M411.3,98.7c-1.6,6.5-11.5,3.2-14.7,2.4l2.7-11.3
						C402.6,90.4,413,91.9,411.3,98.7L411.3,98.7z"/>
				</g>
			</g>
		</g>
	</g>
</g>
<g id="Welcome_1_">
	<g id="AUGlogo-gray" transform="translate(-1.000000, 0.000000)">
		<g id="Layer_1_1_">
			<g id="Page-1_3_">
				<g id="Desktop_3_">
					<g id="bitcoin-here-gray_2_">
						<g id="Group_3_">
							<g id="Bitcoin_Grayscale_2_">
								<path id="Shape_6_" class="st2" d="M189.8,77.8c-6.8,27.8-35,44.6-62.6,37.7c-27.8-6.8-44.6-34.9-37.7-62.6
									c6.8-27.8,35-44.6,62.6-37.7C180,21.8,196.8,50,189.8,77.8L189.8,77.8L189.8,77.8L189.8,77.8z"/>
								<g id="Welcome_2_" transform="translate(24.000000, 19.000000)">
									<g id="augurSvg_1_">
										<path id="Line_9_" class="st4" d="M88.4,62c0,0,8.3-5.2,11.8-5.2s5.8,2.5,7.5,3.8c1.6,1.4,4.8,2.4,4.8,2.4"/>
										<path id="Line_8_" class="st4" d="M87.7,63.2c-0.5-0.3-0.6-0.9-0.4-1.4l26.9-47.6c0.8-1.4,2.1-1.4,2.9,0L144,61.8
											c0.3,0.5,0.1,1.1-0.4,1.4l-27.1,16.1c-0.5,0.3-1.2,0.3-1.6,0L87.7,63.2L87.7,63.2z"/>
										<path id="Line_7_" class="st4" d="M115.7,14.5c0,0,0.1,10,0,16.6c0,2.8,0,5-0.2,5.7c-0.6,1.9-4.8,4.2-6.3,5.1
											c-1.5,0.9-3.5,2.6-4.5,4.3s-1,6.7-1,6.7"/>
										<path id="Line_6_" class="st4" d="M126.3,57.8c0,0-0.8,1.6-2.6,2.9c-2.1,1.6-5.4,3.2-5.9,3.6c-1,0.7-1.7,1.7-2,3
											c-0.2,1.3,0,10.8,0,10.8"/>
										<path id="Line_5_" class="st4" d="M119,40.3c0,0,3.3,1,5.9,3.6c2.6,2.6,2.7,6.5,4.4,10.2c1.6,3.7,14.7,8.3,14.7,8.3"/>
									</g>
								</g>
							</g>
						</g>
					</g>
				</g>
			</g>
		</g>
	</g>
</g>
</svg>
