<?xml version="1.0" encoding="utf-8"?>
<!-- Generator: Adobe Illustrator 20.1.0, SVG Export Plug-In . SVG Version: 6.00 Build 0)  -->
<svg version="1.1" id="Layer_1" xmlns="http://www.w3.org/2000/svg" xmlns:xlink="http://www.w3.org/1999/xlink" x="0px" y="0px"
	 viewBox="0 0 104.5 103.4" style="enable-background:new 0 0 104.5 103.4;" xml:space="preserve">
<style type="text/css">
	.st0{display:none;}
	.st1{display:inline;}
	.st2{opacity:0.75;fill:#A4A4A4;enable-background:new    ;}
	.st3{opacity:0.75;fill:#FFFFFF;enable-background:new    ;}
	.st4{fill:#019933;}
	.st5{fill:none;stroke:#FFFFFF;stroke-width:3;}
	.st6{display:inline;fill:#FFFFFF;}
	.st7{fill:none;stroke:#FFFFFF;stroke-width:4;}
	.st8{fill:#5F2651;}
	.st9{fill:#FFFFFF;}
</style>
<g id="Page-1_1_" class="st0">
	<g id="Desktop_1_" transform="translate(-51.000000, -152.000000)" class="st1">
		<g id="bitcoin-here-gray" transform="translate(51.000000, 152.000000)">
			<g id="Group_2_">
				<g id="Bitcoin_Grayscale">
					<path id="Shape_3_" class="st2" d="M623.8,145.7c-6.8,27.8-35,44.6-62.6,37.7c-27.8-6.8-44.6-34.9-37.7-62.6
						c6.8-27.8,35-44.6,62.6-37.7C614,89.9,630.8,118.1,623.8,145.7L623.8,145.7L623.8,145.7z"/>
					<path id="Shape_2_" class="st3" d="M596.5,125.9c1-6.9-4.2-10.5-11.3-13.1l2.3-9.4l-5.7-1.3l-2.3,9.1c-1.4-0.3-3.1-0.6-4.5-1.1
						l2.3-9.2l-5.7-1.4l-2.3,9.4c-1.3-0.3-2.4-0.5-3.6-0.8l0,0l-7.8-1.9l-1.3,6c0,0,4.2,1,4.1,1c2.3,0.6,2.7,2.1,2.6,3.2l-2.7,10.6
						c0.1,0,0.3,0.1,0.6,0.1c-0.1,0-0.3-0.1-0.6-0.1l-3.7,14.9c-0.3,0.6-1,1.8-2.6,1.3c0,0.1-4.2-1-4.2-1l-2.8,6.5l7.4,1.8
						c1.4,0.3,2.7,0.6,4.1,1l-2.4,9.4l5.7,1.4l2.3-9.4c1.6,0.5,3.1,0.8,4.5,1.1l-2.3,9.2l5.7,1.4l2.4-9.4c9.7,1.8,17,1.1,20.1-7.6
						c2.4-7.1-0.1-11.2-5.2-13.7C592.9,133.4,595.7,131,596.5,125.9L596.5,125.9L596.5,125.9z M583.6,144.2
						c-1.8,7.1-13.6,3.2-17.5,2.3l3.1-12.4C573,134.9,585.3,136.7,583.6,144.2L583.6,144.2L583.6,144.2z M585.3,125.9
						c-1.6,6.5-11.5,3.2-14.7,2.4l2.7-11.3C576.6,117.6,587,119.1,585.3,125.9L585.3,125.9z"/>
				</g>
			</g>
		</g>
	</g>
</g>
<g id="Welcome_1_">
	<g id="AUGlogo">
		<g id="Layer_1_1_">
			<g id="Page-1_2_">
				<g id="Desktop_2_">
					<g id="bitcoin-here-gray_1_">
						<g id="Group_1_">
							<g id="Bitcoin_Grayscale_1_">
								<path id="Shape_1_" class="st4" d="M102.2,63.9c-6.8,27.8-34.9,44.5-62.5,37.6C11.9,94.6-4.8,66.6,2.1,38.9
									C8.9,11.1,37-5.6,64.6,1.3C92.4,8,109.2,36.2,102.2,63.9L102.2,63.9L102.2,63.9L102.2,63.9z"/>
								<g id="Rootstock">
									<g id="Root" transform="translate(2.000000, 1.000000)">
										<ellipse id="Oval_7_" class="st5" cx="49.2" cy="53.1" rx="3.6" ry="3.5"/>
										<ellipse id="Oval_1_" class="st5" cx="49.2" cy="72" rx="3.6" ry="3.6"/>
										<ellipse id="Oval_2_" class="st5" cx="65.7" cy="62.6" rx="3.6" ry="3.5"/>
										<ellipse id="Oval_3_" class="st5" cx="65.8" cy="81.4" rx="3.6" ry="3.6"/>
										<ellipse id="Oval_4_" class="st5" cx="49.1" cy="90.8" rx="3.6" ry="3.6"/>
										<ellipse id="Oval_5_" class="st5" cx="32.7" cy="81.5" rx="3.6" ry="3.6"/>
										<ellipse id="Oval_6_" class="st5" cx="32.7" cy="62.5" rx="3.6" ry="3.5"/>
										<path id="Path-2" class="st5" d="M49.1,56.3v11.9"/>
										<path id="Path-2_1_" class="st5" d="M32.1,66.3v11.9"/>
										<path id="Path-2-Copy-2" class="st5" d="M49.1,75.3v11.9"/>
										<path id="Path-2-Copy" class="st5" d="M49.5,22.9v26.4"/>
										<path id="Path-3" class="st5" d="M35.8,79.8l10.5-6.2"/>
										<path id="Path-4" class="st5" d="M52.2,70.5l10.1-5.9"/>
										<path id="Path-5" class="st5" d="M36.1,64.4l10.3,6.1"/>
										<path id="Path-6" class="st5" d="M52.6,73.8l9.9,5.8"/>
										<path id="Path-7" class="st5" d="M29.1,4.4"/>
										<path id="Path-8" class="st5" d="M29.1,4.4"/>
										<path id="Path-8-Copy" class="st5" d="M29.1,4.4"/>
										<path id="Path-9" class="st5" d="M36,83.2l9.9,5.7"/>
										<path id="Path-10" class="st5" d="M52.4,89l10.4-5.8"/>
										<path id="Path-11" class="st5" d="M36.3,60.6l9.7-5.7"/>
										<path id="Path-13" class="st5" d="M52.7,55.2l9.6,5.6"/>
										<path id="Path-14" class="st5" d="M49.6,4.9c0,0,9.7,8.2,10.5,14.5c0.7,6.3-1.3,13.8-10.5,19"/>
										<path id="Path-14_1_" class="st5" d="M50.6,4.4c0,0-10.8,8.7-11.5,15s1.3,13.8,10.5,19"/>
										<path id="Path-15" class="st5" d="M68.3,60.5l8.2-7.7"/>
										<path id="Path-16" class="st5" d="M71.3,57.7c0,0-0.9-6.2,1.7-7.9c2.7-1.7,7.6-1.8,8-1.4"/>
										<path id="Path-16_1_" class="st5" d="M80.8,47.8c0,0,1,6.7-1.7,8.4c-2.7,1.7-7.6,1.8-8,1.4"/>
										<path id="Path-2_2_" class="st5" d="M66.1,65.3v11.9"/>
									</g>
								</g>
								<g id="Monero" class="st0">
									<polygon id="Path-12" class="st6" points="7.7,65.3 21.8,65.3 21.8,26 51.9,56.3 82.5,26 82.6,65.3 96.6,65.3 92.3,74.8 
										72.5,74.9 72.3,49.8 52,70.5 31.7,50.1 31.7,74.9 12.3,74.8 									"/>
								</g>
								<g id="Welcome_2_" transform="translate(22.000000, 17.000000)" class="st0">
									<g id="augurSvg_1_" class="st1">
										<path id="Line_9_" class="st7" d="M2.7,49.1c0,0,8.3-5.2,11.8-5.2s5.8,2.5,7.5,3.8c1.6,1.4,4.8,2.4,4.8,2.4"/>
										<path id="Line_8_" class="st7" d="M1.9,50.1c-0.5-0.3-0.6-0.9-0.4-1.4l27-47.6c0.8-1.4,2.1-1.4,2.9,0l26.9,47.6
											c0.3,0.5,0.1,1.1-0.4,1.4L30.8,66.2c-0.5,0.3-1.2,0.3-1.6,0L1.9,50.1L1.9,50.1z"/>
										<path id="Line_7_" class="st7" d="M30,1.5c0,0,0.1,10,0,16.6c0,2.8,0,5-0.2,5.7c-0.6,1.9-4.8,4.2-6.3,5.1S20,31.5,19,33.2
											s-1,6.7-1,6.7"/>
										<path id="Line_6_" class="st7" d="M40.6,44.7c0,0-0.8,1.6-2.6,2.9c-2.1,1.6-5.4,3.2-5.9,3.6c-1,0.7-1.7,1.7-2,3
											c-0.2,1.3,0,10.8,0,10.8"/>
										<path id="Line_5_" class="st7" d="M33.2,27.3c0,0,3.3,1,5.9,3.6s2.7,6.5,4.4,10.2c1.6,3.7,14.7,8.3,14.7,8.3"/>
									</g>
								</g>
							</g>
						</g>
					</g>
				</g>
			</g>
		</g>
	</g>
</g>
<g id="Welcome_3_" class="st0">
	<g id="AUGlogo_1_" class="st1">
		<g id="Layer_1_2_">
			<g id="Page-1_3_">
				<g id="Desktop_3_">
					<g id="bitcoin-here-gray_2_">
						<g id="Group_3_">
							<g id="Bitcoin_Grayscale_2_">
								<path id="Shape_17_" class="st8" d="M292.7,78.4c-6.8,27.8-34.9,44.5-62.5,37.6c-27.8-6.9-44.5-34.9-37.6-62.6
									c6.8-27.8,34.9-44.5,62.5-37.6C282.9,22.5,299.7,50.7,292.7,78.4L292.7,78.4L292.7,78.4L292.7,78.4z"/>
								<g id="Welcome" transform="translate(22.000000, 17.000000)">
									<g id="augurSvg">
										<path id="Line" class="st7" d="M193.2,63.6c0,0,8.3-5.2,11.8-5.2s5.8,2.5,7.5,3.8c1.6,1.4,4.8,2.4,4.8,2.4"/>
										<path id="Line_1_" class="st7" d="M192.4,64.6c-0.5-0.3-0.6-0.9-0.4-1.4l27-47.6c0.8-1.4,2.1-1.4,2.9,0l26.9,47.6
											c0.3,0.5,0.1,1.1-0.4,1.4l-27.1,16.1c-0.5,0.3-1.2,0.3-1.6,0L192.4,64.6L192.4,64.6z"/>
										<path id="Line_2_" class="st7" d="M220.5,16c0,0,0.1,10,0,16.6c0,2.8,0,5-0.2,5.7c-0.6,1.9-4.8,4.2-6.3,5.1
											c-1.5,0.9-3.5,2.6-4.5,4.3s-1,6.7-1,6.7"/>
										<path id="Line_3_" class="st7" d="M231.1,59.2c0,0-0.8,1.6-2.6,2.9c-2.1,1.6-5.4,3.2-5.9,3.6c-1,0.7-1.7,1.7-2,3
											c-0.2,1.3,0,10.8,0,10.8"/>
										<path id="Line_4_" class="st7" d="M223.7,41.8c0,0,3.3,1,5.9,3.6c2.6,2.6,2.7,6.5,4.4,10.2c1.6,3.7,14.7,8.3,14.7,8.3"/>
										<ellipse id="Oval" class="st9" cx="220.5" cy="53.1" rx="14.5" ry="14.5"/>
									</g>
								</g>
							</g>
						</g>
					</g>
				</g>
			</g>
		</g>
	</g>
</g>
</svg>
