<?xml version="1.0" encoding="utf-8"?>
<!-- Generator: Adobe Illustrator 20.1.0, SVG Export Plug-In . SVG Version: 6.00 Build 0)  -->
<svg version="1.1" id="Layer_1" xmlns="http://www.w3.org/2000/svg" xmlns:xlink="http://www.w3.org/1999/xlink" x="0px" y="0px"
	 viewBox="0 0 302.9 103.4" style="enable-background:new 0 0 302.9 103.4;" xml:space="preserve">
<style type="text/css">
	.st0{display:none;}
	.st1{display:inline;}
	.st2{opacity:0.75;fill:#A4A4A4;enable-background:new    ;}
	.st3{opacity:0.75;fill:#FFFFFF;enable-background:new    ;}
	.st4{fill:none;stroke:#FFFFFF;stroke-width:3;}
	.st5{fill:none;stroke:#EDEDED;stroke-width:4;}
</style>
<g id="Page-1_1_" class="st0">
	<g id="Desktop_1_" transform="translate(-51.000000, -152.000000)" class="st1">
		<g id="bitcoin-here-gray" transform="translate(51.000000, 152.000000)">
			<g id="Group_2_">
				<g id="Bitcoin_Grayscale">
					<path id="Shape_3_" class="st2" d="M449.8,118.5c-6.8,27.8-35,44.6-62.6,37.7c-27.8-6.8-44.6-34.9-37.7-62.6
						c6.8-27.8,35-44.6,62.6-37.7C440,62.7,456.8,90.9,449.8,118.5L449.8,118.5L449.8,118.5z"/>
					<path id="Shape_2_" class="st3" d="M422.5,98.7c1-6.9-4.2-10.5-11.3-13.1l2.3-9.4l-5.7-1.3l-2.3,9.1c-1.4-0.3-3.1-0.6-4.5-1.1
						l2.3-9.2l-5.7-1.4l-2.3,9.4c-1.3-0.3-2.4-0.5-3.6-0.8l0,0l-7.8-1.9l-1.3,6c0,0,4.2,1,4.1,1c2.3,0.6,2.7,2.1,2.6,3.2l-2.7,10.6
						c0.1,0,0.3,0.1,0.6,0.1c-0.1,0-0.3-0.1-0.6-0.1l-3.7,14.9c-0.3,0.6-1,1.8-2.6,1.3c0,0.1-4.2-1-4.2-1l-2.8,6.5l7.4,1.8
						c1.4,0.3,2.7,0.6,4.1,1l-2.4,9.4l5.7,1.4l2.3-9.4c1.6,0.5,3.1,0.8,4.5,1.1l-2.3,9.2l5.7,1.4l2.4-9.4c9.7,1.8,17,1.1,20.1-7.6
						c2.4-7.1-0.1-11.2-5.2-13.7C418.9,106.2,421.7,103.8,422.5,98.7L422.5,98.7L422.5,98.7z M409.6,117c-1.8,7.1-13.6,3.2-17.5,2.3
						l3.1-12.4C399,107.7,411.3,109.5,409.6,117L409.6,117L409.6,117z M411.3,98.7c-1.6,6.5-11.5,3.2-14.7,2.4l2.7-11.3
						C402.6,90.4,413,91.9,411.3,98.7L411.3,98.7z"/>
				</g>
			</g>
		</g>
	</g>
</g>
<g id="Welcome_1_">
	<g id="AUGlogo-gray" transform="translate(-1.000000, 0.000000)">
		<g id="Layer_1_1_">
			<g id="Page-1_3_">
				<g id="Desktop_3_">
					<g id="bitcoin-here-gray_2_">
						<g id="Group_3_">
							<g id="Bitcoin_Grayscale_2_">
								<path id="Shape_6_" class="st2" d="M102.8,64.2c-6.8,27.8-35,44.6-62.6,37.7C12.4,95-4.4,66.9,2.5,39.2
									c6.8-27.8,35-44.6,62.6-37.7C93,8.1,109.8,36.3,102.8,64.2L102.8,64.2L102.8,64.2L102.8,64.2z"/>
								<g id="Welcome">
									<g id="Root" transform="translate(2.000000, 1.000000)">
										<ellipse id="Oval" class="st4" cx="49.2" cy="53.1" rx="3.6" ry="3.5"/>
										<ellipse id="Oval_1_" class="st4" cx="49.2" cy="72" rx="3.6" ry="3.6"/>
										<ellipse id="Oval_2_" class="st4" cx="65.6" cy="62.6" rx="3.6" ry="3.5"/>
										<ellipse id="Oval_3_" class="st4" cx="65.7" cy="81.4" rx="3.6" ry="3.6"/>
										<ellipse id="Oval_4_" class="st4" cx="49.1" cy="90.8" rx="3.6" ry="3.6"/>
										<ellipse id="Oval_5_" class="st4" cx="32.7" cy="81.5" rx="3.6" ry="3.6"/>
										<ellipse id="Oval_6_" class="st4" cx="32.7" cy="62.5" rx="3.6" ry="3.5"/>
										<path id="Path-2" class="st4" d="M49.1,56.2v11.9"/>
										<path id="Path-2_1_" class="st4" d="M33.1,66.2v11.9"/>
										<path id="Path-2-Copy-2" class="st4" d="M49.1,75.2v11.9"/>
										<path id="Path-2-Copy" class="st4" d="M49.5,22.8v26.4"/>
										<path id="Path-3" class="st4" d="M35.7,79.7l10.5-6.2"/>
										<path id="Path-4" class="st4" d="M52.2,70.5l10.1-5.9"/>
										<path id="Path-5" class="st4" d="M36,64.3l10.3,6.1"/>
										<path id="Path-6" class="st4" d="M52.5,73.8l9.9,5.8"/>
										<path id="Path-7" class="st4" d="M29.1,4.3"/>
										<path id="Path-8" class="st4" d="M29.1,4.3"/>
										<path id="Path-8-Copy" class="st4" d="M29.1,4.3"/>
										<path id="Path-9" class="st4" d="M36,83.2l9.9,5.7"/>
										<path id="Path-10" class="st4" d="M52.4,89l10.4-5.8"/>
										<path id="Path-11" class="st4" d="M36.3,60.6l9.7-5.7"/>
										<path id="Path-13" class="st4" d="M52.7,55.1l9.6,5.6"/>
										<path id="Path-14" class="st4" d="M49.6,4.8c0,0,9.7,8.2,10.5,14.5s-1.3,13.8-10.5,19"/>
										<path id="Path-14_1_" class="st4" d="M50.6,4.3c0,0-10.8,8.7-11.5,15s1.3,13.8,10.5,19"/>
										<path id="Path-15" class="st4" d="M68.3,60.4l8.2-7.7"/>
										<path id="Path-16" class="st4" d="M71.2,57.7c0,0-0.9-6.2,1.7-7.9c2.7-1.7,7.6-1.8,8-1.4"/>
										<path id="Path-16_1_" class="st4" d="M80.8,47.7c0,0,1,6.7-1.7,8.4s-7.6,1.8-8,1.4"/>
										<path id="Path-2_2_" class="st4" d="M66.1,65.2v11.9"/>
									</g>
								</g>
								<g id="Welcome_2_" transform="translate(24.000000, 19.000000)" class="st0">
									<g id="augurSvg_1_" class="st1">
										<path id="Line_9_" class="st5" d="M1.4,48.3c0,0,8.3-5.2,11.8-5.2s5.8,2.5,7.5,3.8c1.6,1.4,4.8,2.4,4.8,2.4"/>
										<path id="Line_8_" class="st5" d="M0.7,49.5c-0.5-0.3-0.6-0.9-0.4-1.4L27.2,0.6c0.8-1.4,2.1-1.4,2.9,0L57,48.1
											c0.3,0.5,0.1,1.1-0.4,1.4L29.5,65.7c-0.5,0.3-1.2,0.3-1.6,0L0.7,49.5L0.7,49.5z"/>
										<path id="Line_7_" class="st5" d="M28.7,0.8c0,0,0.1,10,0,16.6c0,2.8,0,5-0.2,5.7c-0.6,1.9-4.8,4.2-6.3,5.1
											s-3.5,2.6-4.5,4.3s-1,6.7-1,6.7"/>
										<path id="Line_6_" class="st5" d="M39.3,44.1c0,0-0.8,1.6-2.6,2.9c-2.1,1.6-5.4,3.2-5.9,3.6c-1,0.7-1.7,1.7-2,3
											c-0.2,1.3,0,10.8,0,10.8"/>
										<path id="Line_5_" class="st5" d="M32,26.6c0,0,3.3,1,5.9,3.6s2.7,6.5,4.4,10.2c1.6,3.7,14.7,8.3,14.7,8.3"/>
									</g>
								</g>
							</g>
						</g>
					</g>
				</g>
			</g>
		</g>
	</g>
</g>
</svg>
