<?xml version="1.0" encoding="UTF-8" standalone="no"?>
<svg width="37px" height="36px" viewBox="0 0 37 36" version="1.1" xmlns="http://www.w3.org/2000/svg" xmlns:xlink="http://www.w3.org/1999/xlink">
    <!-- Generator: Sketch 39 (31667) - http://www.bohemiancoding.com/sketch -->
    <title>wrench</title>
    <desc>Created with Sketch.</desc>
    <defs></defs>
    <g id="Welcome" stroke="none" stroke-width="1" fill="none" fill-rule="evenodd">
        <g id="Menuv2" transform="translate(-230.000000, -244.000000)" fill="#FFFFFF">
            <g id="Settings" transform="translate(230.000000, 244.000000)">
                <g id="wrench">
                    <g id="Welcome">
                        <g>
                            <g id="wrench">
                                <path d="M6.84,0.3855 L12.57192,6.042 C13.1936,8.8755 9.03032,13.032 6.12408,12.405 L0.39216,6.75 C0.13072,7.626 0,8.532 0,9.438 C0,11.841 0.92264,14.241 2.7816,16.077 C4.83512,18.1035 7.59088,19.014 10.27672,18.8085 C11.69488,18.7005 13.09176,19.212 14.098,20.205 L28.78424,34.698 C29.6628,35.565 30.81648,36 31.97168,36 C34.4964,36 36.5332,33.954 36.48,31.455 C36.45568,30.3495 36.01488,29.25 35.16064,28.4055 L20.4744,13.911 C19.46816,12.9195 18.95136,11.5395 19.05928,10.14 C19.26752,7.4895 18.34336,4.77 16.29288,2.745 C14.43088,0.909 11.99888,0 9.56232,0 C8.64576,0 7.72768,0.129 6.84,0.3855 L6.84,0.3855 L6.84,0.3855 Z M33.44,31.5 C33.44,32.3295 32.76056,33 31.92,33 C31.07944,33 30.4,32.328 30.4,31.5 C30.4,30.672 31.07944,30 31.92,30 C32.76056,30 33.44,30.6705 33.44,31.5 L33.44,31.5 L33.44,31.5 Z" id="Shape"></path>
                            </g>
                        </g>
                    </g>
                </g>
            </g>
        </g>
    </g>
</svg>