<?xml version="1.0" encoding="utf-8"?>
<!-- Generator: Adobe Illustrator 20.0.0, SVG Export Plug-In . SVG Version: 6.00 Build 0)  -->
<svg version="1.1" id="Layer_1" xmlns="http://www.w3.org/2000/svg" xmlns:xlink="http://www.w3.org/1999/xlink" x="0px" y="0px"
	 viewBox="0 0 302.9 103.4" style="enable-background:new 0 0 302.9 103.4;" xml:space="preserve">
<style type="text/css">
	.st0{opacity:0.75;fill:#A4A4A4;enable-background:new    ;}
	.st1{clip-path:url(#SVGID_2_);}
	.st2{clip-path:url(#SVGID_4_);fill:#FFFFFF;}
	.st3{display:none;}
	.st4{display:inline;fill:#FFFFFF;}
	.st5{display:inline;}
	.st6{fill:none;stroke:#EDEDED;stroke-width:4;}
</style>
<g id="Welcome_1_">
	<g id="AUGlogo-gray" transform="translate(-1.000000, 0.000000)">
		<g id="Layer_1_1_">
			<g id="Page-1_3_">
				<g id="Desktop_3_">
					<g id="bitcoin-here-gray_2_">
						<g id="Group_3_">
							<g id="Bitcoin_Grayscale_2_">
								<path id="Shape_6_" class="st0" d="M102.8,64.2c-6.8,27.8-35,44.6-62.6,37.7C12.4,95-4.4,66.9,2.5,39.2
									c6.8-27.8,35-44.6,62.6-37.7C93,8.1,109.8,36.3,102.8,64.2L102.8,64.2L102.8,64.2L102.8,64.2z"/>
								<g>
									<defs>
										<polygon id="SVGID_1_" points="58.7,22.8 58.7,11.1 45.7,11.1 45.7,22.8 30.5,22.8 30.5,34.6 57.5,34.6 29.8,68.3 
											29.8,80.4 45.7,80.4 45.7,92.3 58.7,92.3 58.7,80.4 75.7,80.4 75.7,68.3 46.8,68.3 75.1,33.9 75.1,22.8 										"/>
									</defs>
									<clipPath id="SVGID_2_">
										<use xlink:href="#SVGID_1_"  style="overflow:visible;"/>
									</clipPath>
									<g class="st1">
										<defs>
											<rect id="SVGID_3_" x="-166.8" y="-732.9" width="832.6" height="966.8"/>
										</defs>
										<clipPath id="SVGID_4_">
											<use xlink:href="#SVGID_3_"  style="overflow:visible;"/>
										</clipPath>
										<rect x="26.7" y="8" class="st2" width="52.1" height="87.4"/>
									</g>
								</g>
								<g id="Page-1" class="st3">
									<polygon id="Path-12" class="st4" points="8.3,64.6 22.3,64.5 22.4,25.3 52.5,55.6 83.1,25.2 83.2,64.5 97.2,64.5 92.9,74 
										73,74.1 72.9,49 52.6,69.8 32.2,49.3 32.3,74.1 12.8,74.1 									"/>
								</g>
								<g id="Welcome_2_" transform="translate(24.000000, 19.000000)" class="st3">
									<g id="augurSvg_1_" class="st5">
										<path id="Line_9_" class="st6" d="M1.4,48.3c0,0,8.3-5.2,11.8-5.2s5.8,2.5,7.5,3.8c1.6,1.4,4.8,2.4,4.8,2.4"/>
										<path id="Line_8_" class="st6" d="M0.7,49.5c-0.5-0.3-0.6-0.9-0.4-1.4L27.2,0.6c0.8-1.4,2.1-1.4,2.9,0L57,48.1
											c0.3,0.5,0.1,1.1-0.4,1.4L29.5,65.7c-0.5,0.3-1.2,0.3-1.6,0L0.7,49.5L0.7,49.5z"/>
										<path id="Line_7_" class="st6" d="M28.7,0.8c0,0,0.1,10,0,16.6c0,2.8,0,5-0.2,5.7c-0.6,1.9-4.8,4.2-6.3,5.1
											s-3.5,2.6-4.5,4.3s-1,6.7-1,6.7"/>
										<path id="Line_6_" class="st6" d="M39.3,44.1c0,0-0.8,1.6-2.6,2.9c-2.1,1.6-5.4,3.2-5.9,3.6c-1,0.7-1.7,1.7-2,3
											c-0.2,1.3,0,10.8,0,10.8"/>
										<path id="Line_5_" class="st6" d="M32,26.6c0,0,3.3,1,5.9,3.6s2.7,6.5,4.4,10.2c1.6,3.7,14.7,8.3,14.7,8.3"/>
									</g>
								</g>
							</g>
						</g>
					</g>
				</g>
			</g>
		</g>
	</g>
</g>
</svg>
