<?xml version="1.0" encoding="utf-8"?>
<!-- Generator: Adobe Illustrator 16.0.0, SVG Export Plug-In . SVG Version: 6.00 Build 0)  -->
<!DOCTYPE svg PUBLIC "-//W3C//DTD SVG 1.1//EN" "http://www.w3.org/Graphics/SVG/1.1/DTD/svg11.dtd">
<svg version="1.1" id="Layer_1" xmlns="http://www.w3.org/2000/svg" xmlns:xlink="http://www.w3.org/1999/xlink" x="0px" y="0px"
	 width="192px" height="192px" viewBox="0 0 192 192" enable-background="new 0 0 192 192" xml:space="preserve">
<g>
	<g id="XMLID_1_">
		<g>
			<path fill="#FFFFFF" d="M69.55,95.31c-0.03-3.7,0.95-4.89,4.6-4.52c3.86,0.38,9.01-1.21,11.34,0.75c2.76,2.32,0.8,7.63,0.9,11.64
				c0.17,7.311,0.05,14.62,0.05,21.931c0.3,0.06,0.61,0.109,0.92,0.159c4.3-10.17,8.73-20.289,12.82-30.549
				c1.24-3.1,2.851-4.2,6.141-3.95c4.04,0.32,8.13,0.08,12.149,0.08c0.84,1.8-0.399,2.98-0.93,4.21
				c-4.64,10.77-9.25,21.55-14.17,32.19c-1.45,3.14-1.28,5.68,0.04,8.74c5.109,11.8,10.02,23.689,14.95,35.56
				c0.55,1.311,1.479,2.57,1.109,4.521c-5.359,0-10.7-0.09-16.04,0.04c-2.59,0.06-2.68-1.92-3.29-3.48
				c-3.689-9.399-7.32-18.82-10.99-28.22c-0.62-1.58-1.38-3.12-2.71-4.48c0,10.7-0.11,21.4,0.06,32.11
				c0.06,3.12-0.71,4.46-4.01,4.07c-4.15-0.48-9.71,1.8-12.12-0.98c-2.05-2.36-0.7-7.75-0.71-11.8
				C69.63,140.65,69.74,117.98,69.55,95.31z"/>
			<path fill="#F29620" d="M62.68,9.31c31.8-20.27,73.07-3.42,84.37,34.07c1.95,6.44,2.96,13.04,2.79,19.77
				c-0.06,2.32,0.21,4.14,2.55,5.19c1.65,0.75,2.16,2.3,2.521,3.96c6.51,30.28,8.859,60.95,8.91,91.851c0,2.39-0.94,2.84-3.08,3.22
				c-11.38,1.99-17.431,8.06-19.24,19.64c-0.47,3.01-1.47,3.66-4.26,3.641c-15.01-0.12-30.021-0.061-45.03-0.061
				c-14.85,0-29.69-0.09-44.54,0.07c-3.26,0.03-4.85-0.48-5.37-4.25c-1.52-11.021-8.1-17.45-19.18-19.04
				c-2.76-0.4-3.44-1.32-3.36-3.93c0.91-29.7,2.61-59.301,8.75-88.48c0.64-3.05,1.15-6.02,4.46-7.59c2.32-1.1,1.25-3.49,1.28-5.31
				C34.68,39.58,43.62,21.47,62.68,9.31z M68.6,53.15c2.7-0.97,3.71-0.51,4.1,2.48c0.79,6.04,2.73,11.76,6.38,16.73
				c7.45,10.12,18.58,10.06,25.92-0.13c3.21-4.44,5.31-9.45,5.91-14.83c0.53-4.78,2.399-5.32,6.5-3.67
				c4.77,1.93,9.78,3.27,15.31,5.07c-0.87-15.26-7.35-26.57-19.89-33.89c-14.36-8.37-29.06-7.98-43.01,1.08
				C58.34,33.44,52.37,44.32,51.7,58.66C57.8,56.69,63.25,55.07,68.6,53.15z M69.66,163.33c0.01,4.05-1.34,9.439,0.71,11.8
				c2.41,2.78,7.97,0.5,12.12,0.98c3.3,0.39,4.07-0.95,4.01-4.07c-0.17-10.71-0.06-21.41-0.06-32.11c1.33,1.36,2.09,2.9,2.71,4.48
				c3.67,9.399,7.3,18.82,10.99,28.22c0.61,1.561,0.7,3.54,3.29,3.48c5.34-0.13,10.681-0.04,16.04-0.04
				c0.37-1.95-0.56-3.21-1.109-4.521c-4.931-11.87-9.841-23.76-14.95-35.56c-1.32-3.061-1.49-5.601-0.04-8.74
				c4.92-10.64,9.53-21.42,14.17-32.19c0.53-1.23,1.77-2.41,0.93-4.21c-4.02,0-8.109,0.24-12.149-0.08
				c-3.29-0.25-4.9,0.85-6.141,3.95c-4.09,10.26-8.52,20.379-12.82,30.549c-0.31-0.05-0.62-0.1-0.92-0.159
				c0-7.311,0.12-14.62-0.05-21.931c-0.1-4.01,1.86-9.32-0.9-11.64c-2.33-1.96-7.48-0.37-11.34-0.75c-3.65-0.37-4.63,0.82-4.6,4.52
				C69.74,117.98,69.63,140.65,69.66,163.33z"/>
		</g>
		<g>
		</g>
	</g>
</g>
</svg>
