<?xml version="1.0" encoding="utf-8"?>
<!-- Generator: Adobe Illustrator 21.0.0, SVG Export Plug-In . SVG Version: 6.00 Build 0)  -->
<svg version="1.1" id="Layer_1" xmlns="http://www.w3.org/2000/svg" xmlns:xlink="http://www.w3.org/1999/xlink" x="0px" y="0px"
	 viewBox="0 0 822 186" style="enable-background:new 0 0 822 186;" xml:space="preserve">
<style type="text/css">
	.st0{fill:#354D6A;}
	.st1{fill:#54769E;}
	.st2{fill:url(#SVGID_1_);}
	.st3{fill:url(#SVGID_2_);}
	.st4{fill:#466284;}
	.st5{fill:url(#SVGID_3_);}
	.st6{fill:url(#SVGID_4_);}
	.st7{fill:url(#SVGID_5_);}
	.st8{fill:url(#SVGID_6_);}
	.st9{fill:url(#SVGID_7_);}
	.st10{fill:url(#SVGID_8_);}
	.st11{fill:url(#SVGID_9_);}
	.st12{fill:#FFFFFF;}
	.st13{fill:url(#SVGID_10_);}
	.st14{fill:url(#SVGID_11_);}
	.st15{fill:none;}
	.st16{fill:#273C51;}
	.st17{fill:url(#SVGID_12_);}
	.st18{fill:url(#SVGID_13_);}
	.st19{fill:url(#SVGID_14_);}
	.st20{fill:url(#SVGID_15_);}
	.st21{fill:url(#SVGID_16_);}
	.st22{fill:url(#SVGID_17_);}
	.st23{fill:url(#SVGID_18_);}
	.st24{fill:url(#SVGID_19_);}
	.st25{fill:url(#SVGID_20_);}
	.st26{fill:url(#SVGID_21_);}
	.st27{fill:url(#SVGID_22_);}
	.st28{fill:url(#SVGID_23_);}
	.st29{fill:url(#SVGID_24_);}
	.st30{fill:url(#SVGID_25_);}
	.st31{fill:url(#SVGID_26_);}
	.st32{fill:url(#SVGID_27_);}
	.st33{fill:url(#SVGID_28_);}
	.st34{fill:url(#SVGID_29_);}
	.st35{fill:url(#SVGID_30_);}
	.st36{fill:url(#SVGID_31_);}
	.st37{fill:url(#SVGID_32_);}
	.st38{fill:url(#SVGID_33_);}
	.st39{fill:url(#SVGID_34_);}
	.st40{fill:url(#SVGID_35_);}
	.st41{fill:url(#SVGID_36_);}
	.st42{fill:url(#SVGID_37_);}
	.st43{fill:url(#SVGID_38_);}
	.st44{fill:url(#SVGID_39_);}
	.st45{fill:url(#SVGID_40_);}
	.st46{fill:url(#SVGID_41_);}
	.st47{fill:url(#SVGID_42_);}
</style>
<g>
	<g>
		<g>
			<path class="st0" d="M170.7-978.2c-11,0-22.7,4.3-22.7,14.8c0,9.4,10.7,12.1,23.4,14.2c17.2,2.7,34.2,6.2,34.2,25.6
				c-0.1,19.3-18.6,25.6-35.1,25.6c-15.3,0-29.8-5.5-36.5-20l8.9-5.2c5.5,10.2,17.1,15.1,27.7,15.1c10.5,0,24.4-3.3,24.4-16
				c0.1-10.7-11.9-13.8-24.9-15.8c-16.6-2.6-32.8-6.4-32.8-23.9c-0.2-18,18.1-24.1,33-24.1c12.8,0,25,2.6,32.6,15.6l-8.1,5
				C190.3-974.6,180.3-978.1,170.7-978.2z"/>
			<path class="st0" d="M223.3-985.8v35.3c5.2-8,13.3-10.7,21.1-10.8c17.1,0,25.5,11.3,25.5,28.1v33.5h-10v-33.4
				c0-11.9-6.2-18.7-17.2-18.7s-19.2,8.7-19.2,19.8v32.3h-10.1v-86.2h10V-985.8z"/>
			<path class="st0" d="M331.5-899.5l-0.2-11.1c-4.8,8.4-14,12.3-22.4,12.3c-17.5,0-31.2-12.1-31.2-31.9c0-19.7,13.9-31.5,31.3-31.4
				c9.1,0,18.1,4.2,22.5,12.1l0.1-11.1h9.9v60.8h-9.7L331.5-899.5z M309.3-952c-12.1,0-21.8,8.6-21.8,22.2s9.7,22.3,21.8,22.3
				c29.3,0,29.3-44.6,0.1-44.6L309.3-952z"/>
			<path class="st0" d="M349.5-960.3h9.6l0.5,11.7c4.8-8.1,13.8-12.8,23.4-12.8c17.5,0.4,30.3,12.7,30.3,31.4
				c0,19.2-12.7,31.7-30.9,31.7c-8.6,0-18.2-3.7-23-12.3v39.7h-9.9V-960.3z M403.2-929.8c0-13.7-9-21.8-21.4-21.8
				c-12.7,0-21.3,9.4-21.3,21.8s9,21.8,21.3,21.9C394-907.9,403.2-916.1,403.2-929.8z"/>
			<path class="st0" d="M478.5-909.5c-6.2,7.3-16.7,10.8-26.2,10.8c-18.8,0-32-12.4-32-31.8c0-18.4,13.2-31.5,31.5-31.5
				c18.6,0,32.8,11.5,30.4,35.7h-51.7c1.1,11.2,10.3,18.2,22,18.2c6.9,0,15.3-2.7,19.3-7.6l6.8,6.2H478.5z M472.6-934.6
				c-0.5-11.8-8.6-18.2-20.6-18.2c-10.6,0-19.8,6.4-21.6,18.1h42.1V-934.6z"/>
		</g>
		<g>
			<path class="st1" d="M523.3-978.2c-11,0-22.7,4.3-22.7,14.8c0,9.4,10.7,12.1,23.4,14.2c17.2,2.7,34.2,6.2,34.2,25.6
				c-0.1,19.3-18.6,25.6-35.1,25.6c-15.3,0-29.8-5.5-36.5-20l8.9-5.2c5.5,10.2,17.1,15.1,27.7,15.1c10.5,0,24.4-3.3,24.4-16
				c0.1-10.7-11.9-13.8-24.9-15.8c-16.6-2.6-32.8-6.4-32.8-23.9c-0.2-18,18.1-24.1,33-24.1c12.8,0,25,2.6,32.6,15.6l-8.1,5
				C542.9-974.6,532.9-978.1,523.3-978.2z"/>
			<path class="st1" d="M575.9-985.8v35.3c5.2-8,13.3-10.7,21.1-10.8c17.1,0,25.5,11.3,25.5,28.1v33.5h-10v-33.4
				c0-11.9-6.2-18.7-17.2-18.7S576-943.1,576-932v32.3h-10.1v-86.2h10V-985.8z"/>
			<path class="st1" d="M630.7-899.7h10.1v-60h-10.1V-899.7z M635.8-968.9l-8-8.8l8-8.8l8,8.8L635.8-968.9z"/>
			<g>
				<polygon class="st1" points="659.6,-899.6 659.6,-899.7 659.5,-899.7 				"/>
				<path class="st1" d="M669.6-964.6c0-9.1,4.2-13.2,10.7-13.2c0.1,0,0.3,0,0.4,0l2.3-8.7c-1-0.1-1.9-0.2-2.9-0.2
					c-12.8,0-20.4,8.1-20.4,22v4.8h-11.9v8.9h11.9v51.2h10V-951h12.1v-8.9h-12.1V-964.6z"/>
			</g>
			<path class="st1" d="M720.9-908.2c-0.8,0.1-1.6,0.2-2.3,0.2c-7.3,0-9.6-4.6-9.6-11.7V-951h13v-8.8h-12.8v-18.5l-10.1,1.1v17.4
				h-12.2v8.8H699v31.4c0,13.4,6.2,21.1,19.2,20.8c1.6,0,3.2-0.2,4.7-0.6L720.9-908.2z"/>
		</g>
	</g>
	<g>
		<linearGradient id="SVGID_1_" gradientUnits="userSpaceOnUse" x1="306.1451" y1="-1086.569" x2="490.179" y2="-1086.569">
			<stop  offset="0.2664" style="stop-color:#54769E"/>
			<stop  offset="1" style="stop-color:#425E7F"/>
		</linearGradient>
		<polygon class="st2" points="306.2,-1171.2 306.1,-1124.2 370.6,-1023.8 439.6,-1001.9 490.2,-1034 		"/>
		<linearGradient id="SVGID_2_" gradientUnits="userSpaceOnUse" x1="451.3766" y1="-1343.5663" x2="370.2693" y2="-1108.2867">
			<stop  offset="0.1345" style="stop-color:#2B415B"/>
			<stop  offset="0.3762" style="stop-color:#3B5676"/>
			<stop  offset="0.6923" style="stop-color:#54769E"/>
			<stop  offset="0.7901" style="stop-color:#52749B"/>
			<stop  offset="0.8614" style="stop-color:#4D6C92"/>
			<stop  offset="0.9244" style="stop-color:#436082"/>
			<stop  offset="0.9822" style="stop-color:#364F6C"/>
			<stop  offset="1" style="stop-color:#314863"/>
		</linearGradient>
		<polygon class="st3" points="409.9,-1264.7 306.3,-1173.8 450.7,-1090.6 451.3,-1262 		"/>
		<polygon class="st4" points="395.2,-1208.5 450.8,-1059.8 451.2,-1200.2 		"/>
		<polygon class="st0" points="506.5,-1207.9 450.8,-1059.8 451.2,-1200.2 		"/>
		<linearGradient id="SVGID_3_" gradientUnits="userSpaceOnUse" x1="550.4745" y1="-1235.9104" x2="342.3844" y2="-1356.0514">
			<stop  offset="0" style="stop-color:#54769E"/>
			<stop  offset="0.4802" style="stop-color:#53749C"/>
			<stop  offset="0.6878" style="stop-color:#4F6F95"/>
			<stop  offset="0.8423" style="stop-color:#486588"/>
			<stop  offset="0.9095" style="stop-color:#435F80"/>
		</linearGradient>
		<polygon class="st5" points="550.9,-1371.9 495.6,-1342.9 451.3,-1333.1 406.7,-1342.9 351.6,-1372 370.6,-1284.2 352.5,-1235 
			415.7,-1195.7 451,-1157.5 451,-1157.2 451.1,-1157.4 451.3,-1157.2 451.3,-1157.5 486.5,-1195.7 549.9,-1234.9 531.9,-1284.2 		
			"/>
		<linearGradient id="SVGID_4_" gradientUnits="userSpaceOnUse" x1="669.8006" y1="-1303.4062" x2="465.9477" y2="-1303.4062">
			<stop  offset="0.2539" style="stop-color:#20344C"/>
			<stop  offset="0.4072" style="stop-color:#273D57"/>
			<stop  offset="0.6733" style="stop-color:#395373"/>
			<stop  offset="1" style="stop-color:#54769E"/>
		</linearGradient>
		<polygon class="st6" points="550.9,-1371.9 535.5,-1284 549.9,-1234.9 531.9,-1284.2 		"/>
		<linearGradient id="SVGID_5_" gradientUnits="userSpaceOnUse" x1="227.3564" y1="-1303.4612" x2="438.1062" y2="-1303.4612">
			<stop  offset="0.2539" style="stop-color:#54769E"/>
			<stop  offset="0.4133" style="stop-color:#4D6E93"/>
			<stop  offset="0.6897" style="stop-color:#3C5777"/>
			<stop  offset="1" style="stop-color:#233850"/>
		</linearGradient>
		<polygon class="st7" points="351.6,-1372 367,-1284 352.5,-1235 370.6,-1284.2 		"/>
		<linearGradient id="SVGID_6_" gradientUnits="userSpaceOnUse" x1="453.1741" y1="-1453.3228" x2="449.0058" y2="-1280.3385">
			<stop  offset="6.545247e-03" style="stop-color:#54769E"/>
			<stop  offset="0.1993" style="stop-color:#507198"/>
			<stop  offset="0.4502" style="stop-color:#466488"/>
			<stop  offset="0.7318" style="stop-color:#354F6D"/>
			<stop  offset="1" style="stop-color:#21354D"/>
		</linearGradient>
		<polygon class="st8" points="351.6,-1372 415.9,-1345.1 486.5,-1345.1 550.9,-1371.9 495.6,-1342.9 451.3,-1333.1 406.7,-1342.9 
					"/>
		<linearGradient id="SVGID_7_" gradientUnits="userSpaceOnUse" x1="490.1631" y1="-1395.8145" x2="319.7801" y2="-1230.4478">
			<stop  offset="0.2539" style="stop-color:#54769E"/>
			<stop  offset="0.4102" style="stop-color:#4D6E93"/>
			<stop  offset="0.6813" style="stop-color:#3C5777"/>
			<stop  offset="1" style="stop-color:#22364E"/>
		</linearGradient>
		<polygon class="st9" points="370.6,-1284.2 367.4,-1275.4 434.1,-1336.9 		"/>
		<linearGradient id="SVGID_8_" gradientUnits="userSpaceOnUse" x1="428.3028" y1="-1373.7482" x2="570.2934" y2="-1247.134">
			<stop  offset="0.2539" style="stop-color:#54769E"/>
			<stop  offset="0.4102" style="stop-color:#4D6E93"/>
			<stop  offset="0.6813" style="stop-color:#3C5777"/>
			<stop  offset="1" style="stop-color:#22364E"/>
		</linearGradient>
		<polygon class="st10" points="531.9,-1284.2 468.6,-1336.9 535,-1275.8 		"/>
		<linearGradient id="SVGID_9_" gradientUnits="userSpaceOnUse" x1="272.3535" y1="-1126.1427" x2="577.0248" y2="-1017.4061">
			<stop  offset="0.2664" style="stop-color:#54769E"/>
			<stop  offset="1" style="stop-color:#425E7F"/>
		</linearGradient>
		<polygon class="st11" points="306.3,-1173.8 461.5,-1088.1 481.2,-1039 439.6,-1023.1 374.8,-1029.8 306.2,-1124.2 		"/>
		<polygon class="st12" points="434.7,-1102.8 375,-1030.1 374.8,-1029.8 439.5,-1008.1 439.6,-1008.1 490.1,-1034 490.2,-1034 
			490.2,-1072.4 		"/>
		<linearGradient id="SVGID_10_" gradientUnits="userSpaceOnUse" x1="410.0088" y1="-1443.2653" x2="591.3452" y2="-1281.7004">
			<stop  offset="0.4609" style="stop-color:#54769E;stop-opacity:0"/>
			<stop  offset="0.5699" style="stop-color:#52739A;stop-opacity:0.2156"/>
			<stop  offset="0.6764" style="stop-color:#4A698E;stop-opacity:0.4266"/>
			<stop  offset="0.782" style="stop-color:#3D597B;stop-opacity:0.6356"/>
			<stop  offset="0.8863" style="stop-color:#2C435F;stop-opacity:0.8422"/>
			<stop  offset="0.9661" style="stop-color:#1B2E45"/>
		</linearGradient>
		<polygon class="st13" points="531.9,-1284.2 550.9,-1371.9 495.6,-1342.9 468.6,-1336.9 		"/>
		<polygon class="st12" points="451.3,-1157.2 433.7,-1176.4 451.3,-1195.7 468.8,-1176.4 		"/>
		<linearGradient id="SVGID_11_" gradientUnits="userSpaceOnUse" x1="451.2423" y1="-1001.821" x2="451.2423" y2="-1473.2903">
			<stop  offset="0.2539" style="stop-color:#54769E"/>
			<stop  offset="0.4102" style="stop-color:#4D6E93"/>
			<stop  offset="0.6813" style="stop-color:#3C5777"/>
			<stop  offset="1" style="stop-color:#22364E"/>
		</linearGradient>
		<polygon class="st14" points="449.5,-1333.5 451.3,-1333.1 452.9,-1333.5 451.2,-1221.5 		"/>
		<path class="st15" d="M388.7-1333.4"/>
		<path class="st15" d="M386-1333.4"/>
	</g>
</g>
<g>
	<rect x="1198.5" y="-1871.5" class="st16" width="1500" height="1500"/>
</g>
<g>
	<g>
		<g>
			<path class="st12" d="M1690.7-978.2c-11,0-22.7,4.3-22.7,14.8c0,9.4,10.7,12.1,23.4,14.2c17.2,2.7,34.2,6.2,34.2,25.6
				c-0.1,19.3-18.6,25.6-35.1,25.6c-15.3,0-29.8-5.5-36.5-20l8.9-5.2c5.5,10.2,17.1,15.1,27.7,15.1c10.5,0,24.4-3.3,24.4-16
				c0.1-10.7-11.9-13.8-24.9-15.8c-16.6-2.6-32.8-6.4-32.8-23.9c-0.2-18,18.1-24.1,33-24.1c12.8,0,25,2.6,32.6,15.6l-8.1,5
				C1710.3-974.6,1700.3-978.1,1690.7-978.2z"/>
			<path class="st12" d="M1743.3-985.8v35.3c5.2-8,13.3-10.7,21.1-10.8c17.1,0,25.5,11.3,25.5,28.1v33.5h-10v-33.4
				c0-11.9-6.2-18.7-17.2-18.7s-19.2,8.7-19.2,19.8v32.3h-10.1v-86.2h10V-985.8z"/>
			<path class="st12" d="M1851.5-899.5l-0.2-11.1c-4.8,8.4-14,12.3-22.4,12.3c-17.5,0-31.2-12.1-31.2-31.9
				c0-19.7,13.9-31.5,31.3-31.4c9.1,0,18.1,4.2,22.5,12.1l0.1-11.1h9.9v60.8h-9.7L1851.5-899.5z M1829.3-952
				c-12.1,0-21.8,8.6-21.8,22.2s9.7,22.3,21.8,22.3c29.3,0,29.3-44.6,0.1-44.6L1829.3-952z"/>
			<path class="st12" d="M1869.5-960.3h9.6l0.5,11.7c4.8-8.1,13.8-12.8,23.4-12.8c17.5,0.4,30.3,12.7,30.3,31.4
				c0,19.2-12.7,31.7-30.9,31.7c-8.6,0-18.2-3.7-23-12.3v39.7h-9.9V-960.3z M1923.2-929.8c0-13.7-9-21.8-21.4-21.8
				c-12.7,0-21.3,9.4-21.3,21.8s9,21.8,21.3,21.9C1914-907.9,1923.2-916.1,1923.2-929.8z"/>
			<path class="st12" d="M1998.5-909.5c-6.2,7.3-16.7,10.8-26.2,10.8c-18.8,0-32-12.4-32-31.8c0-18.4,13.2-31.5,31.5-31.5
				c18.6,0,32.8,11.5,30.4,35.7h-51.7c1.1,11.2,10.3,18.2,22,18.2c6.9,0,15.3-2.7,19.3-7.6l6.8,6.2H1998.5z M1992.6-934.6
				c-0.5-11.8-8.6-18.2-20.6-18.2c-10.6,0-19.8,6.4-21.6,18.1h42.1V-934.6z"/>
		</g>
		<g>
			<path class="st12" d="M2043.3-978.2c-11,0-22.7,4.3-22.7,14.8c0,9.4,10.7,12.1,23.4,14.2c17.2,2.7,34.2,6.2,34.2,25.6
				c-0.1,19.3-18.6,25.6-35.1,25.6c-15.3,0-29.8-5.5-36.5-20l8.9-5.2c5.5,10.2,17.1,15.1,27.7,15.1c10.5,0,24.4-3.3,24.4-16
				c0.1-10.7-11.9-13.8-24.9-15.8c-16.6-2.6-32.8-6.4-32.8-23.9c-0.2-18,18.1-24.1,33-24.1c12.8,0,25,2.6,32.6,15.6l-8.1,5
				C2062.9-974.6,2052.9-978.1,2043.3-978.2z"/>
			<path class="st12" d="M2095.9-985.8v35.3c5.2-8,13.3-10.7,21.1-10.8c17.1,0,25.5,11.3,25.5,28.1v33.5h-10v-33.4
				c0-11.9-6.2-18.7-17.2-18.7s-19.2,8.7-19.2,19.8v32.3h-10.1v-86.2h10V-985.8z"/>
			<path class="st12" d="M2150.7-899.7h10.1v-60h-10.1V-899.7z M2155.8-968.9l-8-8.8l8-8.8l8,8.8L2155.8-968.9z"/>
			<g>
				<polygon class="st12" points="2179.6,-899.6 2179.6,-899.7 2179.5,-899.7 				"/>
				<path class="st12" d="M2189.6-964.6c0-9.1,4.2-13.2,10.7-13.2c0.1,0,0.3,0,0.4,0l2.3-8.7c-1-0.1-1.9-0.2-2.9-0.2
					c-12.8,0-20.4,8.1-20.4,22v4.8h-11.9v8.9h11.9v51.2h10V-951h12.1v-8.9h-12.1V-964.6z"/>
			</g>
			<path class="st12" d="M2240.9-908.2c-0.8,0.1-1.6,0.2-2.3,0.2c-7.3,0-9.6-4.6-9.6-11.7V-951h13v-8.8h-12.8v-18.5l-10.1,1.1v17.4
				h-12.2v8.8h12.2v31.4c0,13.4,6.2,21.1,19.2,20.8c1.6,0,3.2-0.2,4.7-0.6L2240.9-908.2z"/>
		</g>
	</g>
	<g>
		<linearGradient id="SVGID_12_" gradientUnits="userSpaceOnUse" x1="1971.3766" y1="-1343.5663" x2="1890.2693" y2="-1108.2867">
			<stop  offset="0.1345" style="stop-color:#2B415B"/>
			<stop  offset="0.3762" style="stop-color:#3B5676"/>
			<stop  offset="0.6923" style="stop-color:#54769E"/>
			<stop  offset="0.7901" style="stop-color:#52749B"/>
			<stop  offset="0.8614" style="stop-color:#4D6C92"/>
			<stop  offset="0.9244" style="stop-color:#436082"/>
			<stop  offset="0.9822" style="stop-color:#364F6C"/>
			<stop  offset="1" style="stop-color:#314863"/>
		</linearGradient>
		<polygon class="st17" points="1929.9,-1264.7 1826.3,-1173.8 1970.7,-1090.6 1971.3,-1262 		"/>
		<polygon class="st4" points="1915.2,-1208.5 1970.8,-1059.8 1971.2,-1200.2 		"/>
		<polygon class="st0" points="2026.5,-1207.9 1970.8,-1059.8 1971.2,-1200.2 		"/>
		<linearGradient id="SVGID_13_" gradientUnits="userSpaceOnUse" x1="2070.4746" y1="-1235.9104" x2="1862.3844" y2="-1356.0514">
			<stop  offset="0" style="stop-color:#54769E"/>
			<stop  offset="0.4802" style="stop-color:#53749C"/>
			<stop  offset="0.6878" style="stop-color:#4F6F95"/>
			<stop  offset="0.8423" style="stop-color:#486588"/>
			<stop  offset="0.9095" style="stop-color:#435F80"/>
		</linearGradient>
		<polygon class="st18" points="2070.9,-1371.9 2015.6,-1342.9 1971.3,-1333.1 1926.7,-1342.9 1871.6,-1372 1890.6,-1284.2 
			1872.5,-1235 1935.7,-1195.7 1971,-1157.5 1971,-1157.2 1971.1,-1157.4 1971.3,-1157.2 1971.3,-1157.5 2006.5,-1195.7 
			2069.9,-1234.9 2051.9,-1284.2 		"/>
		<linearGradient id="SVGID_14_" gradientUnits="userSpaceOnUse" x1="2189.8005" y1="-1303.4062" x2="1985.9476" y2="-1303.4062">
			<stop  offset="0.2539" style="stop-color:#20344C"/>
			<stop  offset="0.4072" style="stop-color:#273D57"/>
			<stop  offset="0.6733" style="stop-color:#395373"/>
			<stop  offset="1" style="stop-color:#54769E"/>
		</linearGradient>
		<polygon class="st19" points="2070.9,-1371.9 2055.5,-1284 2069.9,-1234.9 2051.9,-1284.2 		"/>
		<linearGradient id="SVGID_15_" gradientUnits="userSpaceOnUse" x1="1747.3564" y1="-1303.4612" x2="1958.1062" y2="-1303.4612">
			<stop  offset="0.2539" style="stop-color:#54769E"/>
			<stop  offset="0.4133" style="stop-color:#4D6E93"/>
			<stop  offset="0.6897" style="stop-color:#3C5777"/>
			<stop  offset="1" style="stop-color:#233850"/>
		</linearGradient>
		<polygon class="st20" points="1871.6,-1372 1887,-1284 1872.5,-1235 1890.6,-1284.2 		"/>
		<linearGradient id="SVGID_16_" gradientUnits="userSpaceOnUse" x1="1973.1741" y1="-1453.3228" x2="1969.0057" y2="-1280.3385">
			<stop  offset="6.545247e-03" style="stop-color:#54769E"/>
			<stop  offset="0.1993" style="stop-color:#507198"/>
			<stop  offset="0.4502" style="stop-color:#466488"/>
			<stop  offset="0.7318" style="stop-color:#354F6D"/>
			<stop  offset="1" style="stop-color:#21354D"/>
		</linearGradient>
		<polygon class="st21" points="1871.6,-1372 1935.9,-1345.1 2006.5,-1345.1 2070.9,-1371.9 2015.6,-1342.9 1971.3,-1333.1 
			1926.7,-1342.9 		"/>
		<linearGradient id="SVGID_17_" gradientUnits="userSpaceOnUse" x1="2010.1631" y1="-1395.8145" x2="1839.7802" y2="-1230.4478">
			<stop  offset="0.2539" style="stop-color:#54769E"/>
			<stop  offset="0.4102" style="stop-color:#4D6E93"/>
			<stop  offset="0.6813" style="stop-color:#3C5777"/>
			<stop  offset="1" style="stop-color:#22364E"/>
		</linearGradient>
		<polygon class="st22" points="1890.6,-1284.2 1887.4,-1275.4 1954.1,-1336.9 		"/>
		<linearGradient id="SVGID_18_" gradientUnits="userSpaceOnUse" x1="1948.3029" y1="-1373.7482" x2="2090.2935" y2="-1247.134">
			<stop  offset="0.2539" style="stop-color:#54769E"/>
			<stop  offset="0.4102" style="stop-color:#4D6E93"/>
			<stop  offset="0.6813" style="stop-color:#3C5777"/>
			<stop  offset="1" style="stop-color:#22364E"/>
		</linearGradient>
		<polygon class="st23" points="2051.9,-1284.2 1988.6,-1336.9 2055,-1275.8 		"/>
		<linearGradient id="SVGID_19_" gradientUnits="userSpaceOnUse" x1="1792.3535" y1="-1126.1427" x2="2097.0247" y2="-1017.4061">
			<stop  offset="0.2664" style="stop-color:#54769E"/>
			<stop  offset="1" style="stop-color:#425E7F"/>
		</linearGradient>
		<polygon class="st24" points="1826.3,-1173.8 1981.5,-1088.1 2001.2,-1039 1959.6,-1023.1 1894.8,-1029.8 1826.2,-1124.2 		"/>
		<polygon class="st12" points="1954.7,-1102.8 1895,-1030.1 1894.8,-1029.8 1959.5,-1008.1 1959.6,-1008.1 2010.1,-1034 
			2010.2,-1034 2010.2,-1072.4 		"/>
		<linearGradient id="SVGID_20_" gradientUnits="userSpaceOnUse" x1="1930.0088" y1="-1443.2653" x2="2111.3452" y2="-1281.7004">
			<stop  offset="0.4609" style="stop-color:#54769E;stop-opacity:0"/>
			<stop  offset="0.5699" style="stop-color:#52739A;stop-opacity:0.2156"/>
			<stop  offset="0.6764" style="stop-color:#4A698E;stop-opacity:0.4266"/>
			<stop  offset="0.782" style="stop-color:#3D597B;stop-opacity:0.6356"/>
			<stop  offset="0.8863" style="stop-color:#2C435F;stop-opacity:0.8422"/>
			<stop  offset="0.9661" style="stop-color:#1B2E45"/>
		</linearGradient>
		<polygon class="st25" points="2051.9,-1284.2 2070.9,-1371.9 2015.6,-1342.9 1988.6,-1336.9 		"/>
		<polygon class="st12" points="1971.3,-1157.2 1953.7,-1176.4 1971.3,-1195.7 1988.8,-1176.4 		"/>
		<linearGradient id="SVGID_21_" gradientUnits="userSpaceOnUse" x1="1971.2423" y1="-1001.821" x2="1971.2423" y2="-1473.2903">
			<stop  offset="0.2539" style="stop-color:#54769E"/>
			<stop  offset="0.4102" style="stop-color:#4D6E93"/>
			<stop  offset="0.6813" style="stop-color:#3C5777"/>
			<stop  offset="1" style="stop-color:#22364E"/>
		</linearGradient>
		<polygon class="st26" points="1969.5,-1333.5 1971.3,-1333.1 1972.9,-1333.5 1971.2,-1221.5 		"/>
		<path class="st15" d="M1908.7-1333.4"/>
		<path class="st15" d="M1906-1333.4"/>
	</g>
</g>
<g>
	<rect x="1198.5" y="-350.5" class="st16" width="1500" height="1500"/>
</g>
<g>
	<g>
		<g>
			<path class="st12" d="M1704.3,359.2c-15.3,0-31.6,6-31.6,20.6c0,13,14.9,16.8,32.6,19.7c24,3.8,47.7,8.6,47.7,35.7
				c-0.2,26.9-25.9,35.7-48.9,35.7c-21.3,0-41.5-7.7-50.8-27.8l12.4-7.2c7.7,14.2,23.8,21.1,38.6,21.1c14.6,0,34-4.6,34-22.3
				c0.2-14.9-16.6-19.2-34.7-22c-23.2-3.6-45.6-8.9-45.6-33.3c-0.3-25,25.2-33.6,46-33.6c17.8,0,34.8,3.6,45.5,21.8l-11.3,7
				C1731.5,364.2,1717.6,359.4,1704.3,359.2z"/>
			<path class="st12" d="M1777.5,348.6v49.2c7.2-11.2,18.5-14.9,29.3-15.1c23.8,0,35.5,15.8,35.5,39.1v46.7h-13.9V422
				c0-16.6-8.6-26.1-24-26.1s-26.8,12.2-26.8,27.6v44.9h-14.1V348.4h13.9V348.6z"/>
			<path class="st12" d="M1928.3,468.9l-0.3-15.4c-6.7,11.7-19.6,17.2-31.2,17.2c-24.4,0-43.4-16.8-43.4-44.4
				c0-27.4,19.4-43.9,43.6-43.7c12.7,0,25.2,5.8,31.4,16.8l0.2-15.4h13.7v84.8h-13.6L1928.3,468.9z M1897.4,395.8
				c-16.8,0-30.4,12-30.4,30.9c0,18.9,13.6,31.1,30.4,31.1c40.8,0,40.8-62.1,0.2-62.1L1897.4,395.8z"/>
			<path class="st12" d="M1953.4,384.1h13.4l0.7,16.3c6.7-11.3,19.2-17.8,32.6-17.8c24.4,0.5,42.2,17.7,42.2,43.7
				c0,26.8-17.7,44.1-43.1,44.1c-12,0-25.4-5.1-32.1-17.2v55.2h-13.7V384.1z M2028.2,426.7c0-19-12.5-30.4-29.9-30.4
				c-17.7,0-29.7,13-29.7,30.4s12.5,30.4,29.7,30.5C2015.3,457.2,2028.2,445.7,2028.2,426.7z"/>
			<path class="st12" d="M2133.1,455c-8.6,10.1-23.3,15.1-36.5,15.1c-26.2,0-44.6-17.3-44.6-44.3c0-25.6,18.4-43.9,43.9-43.9
				c25.9,0,45.6,16,42.4,49.8h-72.1c1.5,15.6,14.4,25.4,30.7,25.4c9.6,0,21.3-3.8,26.9-10.6l9.4,8.6H2133.1z M2124.8,420
				c-0.7-16.5-12-25.4-28.7-25.4c-14.8,0-27.6,8.9-30,25.2h58.7V420z"/>
		</g>
		<g>
			<path class="st12" d="M2195.5,359.2c-15.3,0-31.6,6-31.6,20.6c0,13,14.9,16.8,32.6,19.7c24,3.8,47.7,8.6,47.7,35.7
				c-0.2,26.9-25.9,35.7-48.9,35.7c-21.3,0-41.5-7.7-50.8-27.8l12.4-7.2c7.7,14.2,23.8,21.1,38.6,21.1c14.6,0,34-4.6,34-22.3
				c0.2-14.9-16.6-19.2-34.7-22c-23.2-3.6-45.6-8.9-45.6-33.3c-0.3-25,25.2-33.6,46-33.6c17.8,0,34.8,3.6,45.5,21.8l-11.3,7
				C2222.8,364.2,2208.9,359.4,2195.5,359.2z"/>
			<path class="st12" d="M2268.7,348.6v49.2c7.2-11.2,18.5-14.9,29.3-15.1c23.8,0,35.5,15.8,35.5,39.1v46.7h-13.9V422
				c0-16.6-8.6-26.1-24-26.1c-15.4,0-26.8,12.2-26.8,27.6v44.9h-14.1V348.4h13.9V348.6z"/>
			<path class="st12" d="M2345,468.5h14.1V385H2345V468.5z M2352.2,372.2l-11.1-12.2l11.1-12.2l11.1,12.2L2352.2,372.2z"/>
			<g>
				<polygon class="st12" points="2385.4,468.7 2385.4,468.5 2385.2,468.5 				"/>
				<path class="st12" d="M2399.3,378.1c0-12.7,5.8-18.4,14.9-18.4c0.2,0,0.4,0,0.5,0l3.2-12.1c-1.3-0.2-2.7-0.3-4-0.3
					c-17.8,0-28.5,11.3-28.5,30.7v6.7h-16.6v12.4h16.6v71.4h13.9v-71.4h16.8v-12.4h-16.8V378.1z"/>
			</g>
			<path class="st12" d="M2470.7,456.8c-1.1,0.2-2.2,0.3-3.3,0.3c-10.1,0-13.4-6.3-13.4-16.3V397h18.1v-12.2h-17.9v-25.8l-14.1,1.5
				v24.2h-17V397h17v43.7c0,18.7,8.6,29.3,26.8,29c2.2-0.1,4.4-0.3,6.6-0.8L2470.7,456.8z"/>
		</g>
	</g>
	<g>
		<linearGradient id="SVGID_22_" gradientUnits="userSpaceOnUse" x1="1560.1586" y1="186.2968" x2="1483.6409" y2="408.2628">
			<stop  offset="0.1345" style="stop-color:#2B415B"/>
			<stop  offset="0.3762" style="stop-color:#3B5676"/>
			<stop  offset="0.6923" style="stop-color:#54769E"/>
			<stop  offset="0.7901" style="stop-color:#52749B"/>
			<stop  offset="0.8614" style="stop-color:#4D6C92"/>
			<stop  offset="0.9244" style="stop-color:#436082"/>
			<stop  offset="0.9822" style="stop-color:#364F6C"/>
			<stop  offset="1" style="stop-color:#314863"/>
		</linearGradient>
		<polygon class="st27" points="1521,260.7 1423.3,346.5 1559.5,424.9 1560,263.3 		"/>
		<polygon class="st4" points="1507.1,313.7 1559.7,454 1560,321.6 		"/>
		<polygon class="st0" points="1612.2,314.3 1559.7,454 1560,321.6 		"/>
		<linearGradient id="SVGID_23_" gradientUnits="userSpaceOnUse" x1="1653.649" y1="287.8609" x2="1457.3337" y2="174.5182">
			<stop  offset="0" style="stop-color:#54769E"/>
			<stop  offset="0.4802" style="stop-color:#53749C"/>
			<stop  offset="0.6878" style="stop-color:#4F6F95"/>
			<stop  offset="0.8423" style="stop-color:#486588"/>
			<stop  offset="0.9095" style="stop-color:#435F80"/>
		</linearGradient>
		<polygon class="st28" points="1654,159.6 1601.9,187 1560.1,196.1 1518,187 1466,159.5 1483.9,242.3 1466.9,288.8 1526.5,325.8 
			1559.8,361.8 1559.8,362.1 1559.9,362 1560.1,362.1 1560.1,361.8 1593.3,325.8 1653.1,288.8 1636.1,242.3 		"/>
		<linearGradient id="SVGID_24_" gradientUnits="userSpaceOnUse" x1="1766.2229" y1="224.1844" x2="1573.9052" y2="224.1844">
			<stop  offset="0.2539" style="stop-color:#20344C"/>
			<stop  offset="0.4072" style="stop-color:#273D57"/>
			<stop  offset="0.6733" style="stop-color:#395373"/>
			<stop  offset="1" style="stop-color:#54769E"/>
		</linearGradient>
		<polygon class="st29" points="1654,159.6 1639.5,242.5 1653.1,288.8 1636.1,242.3 		"/>
		<linearGradient id="SVGID_25_" gradientUnits="userSpaceOnUse" x1="1348.8147" y1="224.1325" x2="1547.6392" y2="224.1325">
			<stop  offset="0.2539" style="stop-color:#54769E"/>
			<stop  offset="0.4133" style="stop-color:#4D6E93"/>
			<stop  offset="0.6897" style="stop-color:#3C5777"/>
			<stop  offset="1" style="stop-color:#233850"/>
		</linearGradient>
		<polygon class="st30" points="1466,159.5 1480.6,242.5 1466.9,288.8 1483.9,242.3 		"/>
		<linearGradient id="SVGID_26_" gradientUnits="userSpaceOnUse" x1="1561.8544" y1="82.751" x2="1557.9219" y2="245.9468">
			<stop  offset="6.545247e-03" style="stop-color:#54769E"/>
			<stop  offset="0.1993" style="stop-color:#507198"/>
			<stop  offset="0.4502" style="stop-color:#466488"/>
			<stop  offset="0.7318" style="stop-color:#354F6D"/>
			<stop  offset="1" style="stop-color:#21354D"/>
		</linearGradient>
		<polygon class="st31" points="1466,159.5 1526.7,184.9 1593.3,184.9 1654,159.6 1601.9,187 1560.1,196.1 1518,187 		"/>
		<linearGradient id="SVGID_27_" gradientUnits="userSpaceOnUse" x1="1596.7504" y1="137.0051" x2="1436.0085" y2="293.0145">
			<stop  offset="0.2539" style="stop-color:#54769E"/>
			<stop  offset="0.4102" style="stop-color:#4D6E93"/>
			<stop  offset="0.6813" style="stop-color:#3C5777"/>
			<stop  offset="1" style="stop-color:#22364E"/>
		</linearGradient>
		<polygon class="st32" points="1483.9,242.3 1480.9,250.6 1543.9,192.6 		"/>
		<linearGradient id="SVGID_28_" gradientUnits="userSpaceOnUse" x1="1538.3904" y1="157.8228" x2="1672.3463" y2="277.2724">
			<stop  offset="0.2539" style="stop-color:#54769E"/>
			<stop  offset="0.4102" style="stop-color:#4D6E93"/>
			<stop  offset="0.6813" style="stop-color:#3C5777"/>
			<stop  offset="1" style="stop-color:#22364E"/>
		</linearGradient>
		<polygon class="st33" points="1636.1,242.3 1576.4,192.6 1639,250.2 		"/>
		<linearGradient id="SVGID_29_" gradientUnits="userSpaceOnUse" x1="1391.2656" y1="391.4173" x2="1678.6968" y2="494.001">
			<stop  offset="0.2664" style="stop-color:#54769E"/>
			<stop  offset="1" style="stop-color:#425E7F"/>
		</linearGradient>
		<polygon class="st34" points="1423.3,346.5 1569.7,427.3 1588.3,473.6 1549,488.6 1488,482.3 1423.2,393.2 		"/>
		<polygon class="st12" points="1544.5,413.5 1488.1,482.1 1488,482.3 1548.9,502.8 1549,502.8 1596.7,478.4 1596.8,478.3 
			1596.8,442.1 		"/>
		<linearGradient id="SVGID_30_" gradientUnits="userSpaceOnUse" x1="1521.1316" y1="92.2394" x2="1692.2069" y2="244.662">
			<stop  offset="0.4609" style="stop-color:#54769E;stop-opacity:0"/>
			<stop  offset="0.5699" style="stop-color:#52739A;stop-opacity:0.2156"/>
			<stop  offset="0.6764" style="stop-color:#4A698E;stop-opacity:0.4266"/>
			<stop  offset="0.782" style="stop-color:#3D597B;stop-opacity:0.6356"/>
			<stop  offset="0.8863" style="stop-color:#2C435F;stop-opacity:0.8422"/>
			<stop  offset="0.9661" style="stop-color:#1B2E45"/>
		</linearGradient>
		<polygon class="st35" points="1636.1,242.3 1654,159.6 1601.9,187 1576.4,192.6 		"/>
		<polygon class="st12" points="1560,362.1 1543.5,344 1560,325.8 1576.6,344 		"/>
		<linearGradient id="SVGID_31_" gradientUnits="userSpaceOnUse" x1="1560.0319" y1="508.7042" x2="1560.0319" y2="63.9134">
			<stop  offset="0.2539" style="stop-color:#54769E"/>
			<stop  offset="0.4102" style="stop-color:#4D6E93"/>
			<stop  offset="0.6813" style="stop-color:#3C5777"/>
			<stop  offset="1" style="stop-color:#22364E"/>
		</linearGradient>
		<polygon class="st36" points="1558.4,195.8 1560.1,196.1 1561.6,195.8 1560,301.5 		"/>
		<path class="st15" d="M1501,195.9"/>
		<path class="st15" d="M1498.5,195.9"/>
	</g>
</g>
<g>
	<g>
		<g>
			<path class="st12" d="M178.2,75c-12.4,0-25.6,4.4-25.6,15c0,9.5,12.1,12.3,26.5,14.4c19.5,2.8,38.7,6.3,38.7,26
				c-0.1,19.7-21,26-39.7,26c-17.3,0-33.7-5.6-41.2-20.3l10-5.3c6.3,10.4,19.4,15.4,31.3,15.4c11.8,0,27.6-3.4,27.6-16.3
				c0.1-10.9-13.5-14-28.1-16c-18.8-2.6-37-6.5-37-24.3c-0.3-18.3,20.5-24.5,37.3-24.5c14.5,0,28.3,2.6,36.9,15.9l-9.2,5.1
				C200.3,78.6,189.1,75.1,178.2,75z"/>
			<path class="st12" d="M237.6,67.2v35.9c5.8-8.1,15-10.9,23.8-11c19.4,0,28.8,11.5,28.8,28.5v34.1H279v-33.9c0-12.1-7-19-19.5-19
				c-12.5,0-21.7,8.9-21.7,20.2v32.8h-11.4V67.1h11.3V67.2z"/>
			<path class="st12" d="M360,155l-0.3-11.3c-5.4,8.5-15.9,12.5-25.3,12.5c-19.8,0-35.2-12.3-35.2-32.4c0-20,15.7-32.1,35.4-31.9
				c10.3,0,20.5,4.3,25.5,12.3l0.1-11.3h11.1v61.9h-11L360,155z M334.9,101.6c-13.6,0-24.6,8.8-24.6,22.5s11,22.7,24.6,22.7
				c33.1,0,33.1-45.3,0.1-45.3L334.9,101.6z"/>
			<path class="st12" d="M380.4,93.1h10.9l0.6,11.9c5.4-8.3,15.6-13,26.5-13c19.8,0.4,34.3,12.9,34.3,31.9
				c0,19.5-14.3,32.2-34.9,32.2c-9.7,0-20.6-3.8-26-12.5v40.3h-11.1V93.1z M441.1,124.2c0-13.9-10.2-22.2-24.2-22.2
				c-14.3,0-24.1,9.5-24.1,22.2s10.2,22.2,24.1,22.3C430.7,146.5,441.1,138.1,441.1,124.2z"/>
			<path class="st12" d="M526.2,144.8c-7,7.4-18.9,11-29.7,11c-21.3,0-36.2-12.6-36.2-32.3c0-18.7,14.9-32.1,35.6-32.1
				c21,0,37,11.6,34.4,36.3h-58.5c1.3,11.4,11.7,18.5,24.9,18.5c7.8,0,17.3-2.8,21.9-7.8l7.7,6.3H526.2z M519.5,119.3
				c-0.6-12-9.7-18.5-23.3-18.5c-12,0-22.4,6.5-24.4,18.4h47.6V119.3z"/>
		</g>
		<g>
			<path class="st12" d="M576.9,75c-12.4,0-25.6,4.4-25.6,15c0,9.5,12.1,12.3,26.5,14.4c19.5,2.8,38.7,6.3,38.7,26
				c-0.1,19.7-21,26-39.7,26c-17.3,0-33.7-5.6-41.2-20.3l10-5.3c6.3,10.4,19.4,15.4,31.3,15.4c11.8,0,27.6-3.4,27.6-16.3
				c0.1-10.9-13.5-14-28.1-16c-18.8-2.6-37-6.5-37-24.3c-0.3-18.3,20.5-24.5,37.3-24.5c14.5,0,28.3,2.6,36.9,15.9l-9.2,5.1
				C599,78.6,587.7,75.1,576.9,75z"/>
			<path class="st12" d="M636.3,67.2v35.9c5.8-8.1,15-10.9,23.8-11c19.4,0,28.8,11.5,28.8,28.5v34.1h-11.3v-33.9
				c0-12.1-7-19-19.5-19s-21.7,8.9-21.7,20.2v32.8H625V67.1h11.3V67.2z"/>
			<path class="st12" d="M698.2,154.7h11.4v-61h-11.4V154.7z M704.1,84.4l-9-8.9l9-8.9l9,8.9L704.1,84.4z"/>
			<g>
				<polygon class="st12" points="731,154.8 731,154.7 730.8,154.7 				"/>
				<path class="st12" d="M742.2,88.7c0-9.3,4.7-13.4,12.1-13.4c0.1,0,0.3,0,0.4,0l2.6-8.8c-1.1-0.1-2.2-0.2-3.3-0.2
					c-14.5,0-23.1,8.3-23.1,22.4v4.9h-13.5v9H731v52.1h11.3v-52.1h13.7v-9h-13.7V88.7z"/>
			</g>
			<path class="st12" d="M800.2,146.1c-0.9,0.1-1.8,0.2-2.6,0.2c-8.2,0-10.9-4.6-10.9-11.9v-31.9h14.7v-8.9h-14.5V74.8L775.5,76
				v17.7h-13.8v8.9h13.8v31.9c0,13.6,7,21.4,21.7,21.2c1.8,0,3.6-0.2,5.3-0.6L800.2,146.1z"/>
		</g>
	</g>
	<g>
		<linearGradient id="SVGID_32_" gradientUnits="userSpaceOnUse" x1="23.1451" y1="126.1291" x2="108.1728" y2="126.1291">
			<stop  offset="0.2664" style="stop-color:#54769E"/>
			<stop  offset="1" style="stop-color:#425E7F"/>
		</linearGradient>
		<polygon class="st37" points="23.2,91 23.1,110.5 52.9,152.2 84.8,161.3 108.2,148 		"/>
		<linearGradient id="SVGID_33_" gradientUnits="userSpaceOnUse" x1="87.2165" y1="18.2984" x2="53.5117" y2="116.0707">
			<stop  offset="0.1345" style="stop-color:#2B415B"/>
			<stop  offset="0.3762" style="stop-color:#3B5676"/>
			<stop  offset="0.6923" style="stop-color:#54769E"/>
			<stop  offset="0.7901" style="stop-color:#52749B"/>
			<stop  offset="0.8614" style="stop-color:#4D6C92"/>
			<stop  offset="0.9244" style="stop-color:#436082"/>
			<stop  offset="0.9822" style="stop-color:#364F6C"/>
			<stop  offset="1" style="stop-color:#314863"/>
		</linearGradient>
		<polygon class="st38" points="71.1,52.1 23.2,89.9 89.9,124.4 90.2,53.2 		"/>
		<polygon class="st4" points="64.3,75.5 90,137.3 90.2,78.9 		"/>
		<polygon class="st0" points="115.7,75.7 90,137.3 90.2,78.9 		"/>
		<linearGradient id="SVGID_34_" gradientUnits="userSpaceOnUse" x1="135.4347" y1="65.0635" x2="42.0523" y2="11.1491">
			<stop  offset="0" style="stop-color:#54769E"/>
			<stop  offset="0.4802" style="stop-color:#53749C"/>
			<stop  offset="0.6878" style="stop-color:#4F6F95"/>
			<stop  offset="0.8423" style="stop-color:#486588"/>
			<stop  offset="0.9095" style="stop-color:#435F80"/>
		</linearGradient>
		<polygon class="st39" points="136.2,7.6 110.7,19.6 90.2,23.7 69.6,19.6 44.1,7.5 52.9,44 44.6,64.5 73.8,80.8 90.1,96.6 
			90.1,96.8 90.1,96.7 90.2,96.8 90.2,96.6 106.5,80.8 135.8,64.5 127.5,44 		"/>
		<linearGradient id="SVGID_35_" gradientUnits="userSpaceOnUse" x1="191.162" y1="36.0315" x2="96.9774" y2="36.0315">
			<stop  offset="0.2539" style="stop-color:#20344C"/>
			<stop  offset="0.4072" style="stop-color:#273D57"/>
			<stop  offset="0.6733" style="stop-color:#395373"/>
			<stop  offset="1" style="stop-color:#54769E"/>
		</linearGradient>
		<polygon class="st40" points="136.2,7.6 129.1,44.1 135.8,64.5 127.5,44 		"/>
		<linearGradient id="SVGID_36_" gradientUnits="userSpaceOnUse" x1="-13.257" y1="36.0086" x2="84.1141" y2="36.0086">
			<stop  offset="0.2539" style="stop-color:#54769E"/>
			<stop  offset="0.4133" style="stop-color:#4D6E93"/>
			<stop  offset="0.6897" style="stop-color:#3C5777"/>
			<stop  offset="1" style="stop-color:#233850"/>
		</linearGradient>
		<polygon class="st41" points="44.1,7.5 51.3,44.1 44.6,64.5 52.9,44 		"/>
		<linearGradient id="SVGID_37_" gradientUnits="userSpaceOnUse" x1="90.9924" y1="-26.586" x2="89.2491" y2="45.7595">
			<stop  offset="6.545247e-03" style="stop-color:#54769E"/>
			<stop  offset="0.1993" style="stop-color:#507198"/>
			<stop  offset="0.4502" style="stop-color:#466488"/>
			<stop  offset="0.7318" style="stop-color:#354F6D"/>
			<stop  offset="1" style="stop-color:#21354D"/>
		</linearGradient>
		<polygon class="st42" points="44.1,7.5 73.9,18.7 106.5,18.7 136.2,7.6 110.7,19.6 90.2,23.7 69.6,19.6 		"/>
		<linearGradient id="SVGID_38_" gradientUnits="userSpaceOnUse" x1="106.2734" y1="-4.4933" x2="31.2929" y2="68.2798">
			<stop  offset="0.2539" style="stop-color:#54769E"/>
			<stop  offset="0.4102" style="stop-color:#4D6E93"/>
			<stop  offset="0.6813" style="stop-color:#3C5777"/>
			<stop  offset="1" style="stop-color:#22364E"/>
		</linearGradient>
		<polygon class="st43" points="52.9,44 51.4,47.6 82.3,22.1 		"/>
		<linearGradient id="SVGID_39_" gradientUnits="userSpaceOnUse" x1="81.2719" y1="4.92" x2="143.8966" y2="60.7629">
			<stop  offset="0.2539" style="stop-color:#54769E"/>
			<stop  offset="0.4102" style="stop-color:#4D6E93"/>
			<stop  offset="0.6813" style="stop-color:#3C5777"/>
			<stop  offset="1" style="stop-color:#22364E"/>
		</linearGradient>
		<polygon class="st44" points="127.5,44 98.2,22.1 128.9,47.5 		"/>
		<linearGradient id="SVGID_40_" gradientUnits="userSpaceOnUse" x1="8.7431" y1="108.9855" x2="146.4509" y2="158.1331">
			<stop  offset="0.2664" style="stop-color:#54769E"/>
			<stop  offset="1" style="stop-color:#425E7F"/>
		</linearGradient>
		<polygon class="st45" points="23.2,89.9 94.9,125.5 104,145.9 84.8,152.5 54.9,149.7 23.2,110.5 		"/>
		<polygon class="st12" points="82.6,119.4 55,149.6 54.9,149.7 84.8,158.7 84.8,158.7 108.1,148 108.2,148 108.2,132 		"/>
		<linearGradient id="SVGID_41_" gradientUnits="userSpaceOnUse" x1="72.424" y1="-25.0636" x2="152.6098" y2="46.3793">
			<stop  offset="0.4609" style="stop-color:#54769E;stop-opacity:0"/>
			<stop  offset="0.5699" style="stop-color:#52739A;stop-opacity:0.2156"/>
			<stop  offset="0.6764" style="stop-color:#4A698E;stop-opacity:0.4266"/>
			<stop  offset="0.782" style="stop-color:#3D597B;stop-opacity:0.6356"/>
			<stop  offset="0.8863" style="stop-color:#2C435F;stop-opacity:0.8422"/>
			<stop  offset="0.9661" style="stop-color:#1B2E45"/>
		</linearGradient>
		<polygon class="st46" points="127.5,44 136.2,7.6 110.7,19.6 98.2,22.1 		"/>
		<polygon class="st12" points="90.2,96.8 82.1,88.8 90.2,80.8 98.3,88.8 		"/>
		<linearGradient id="SVGID_42_" gradientUnits="userSpaceOnUse" x1="90.1833" y1="161.3426" x2="90.1833" y2="-34.5567">
			<stop  offset="0.2539" style="stop-color:#54769E"/>
			<stop  offset="0.4102" style="stop-color:#4D6E93"/>
			<stop  offset="0.6813" style="stop-color:#3C5777"/>
			<stop  offset="1" style="stop-color:#22364E"/>
		</linearGradient>
		<polygon class="st47" points="89.4,23.5 90.2,23.7 91,23.5 90.2,70.1 		"/>
		<path class="st15" d="M61.3,23.6"/>
		<path class="st15" d="M60,23.6"/>
	</g>
</g>
</svg>
